<?xml version="1.0" encoding="UTF-8" standalone="no"?>
<!DOCTYPE svg PUBLIC "-//W3C//DTD SVG 1.1//EN" "http://www.w3.org/Graphics/SVG/1.1/DTD/svg11.dtd">
<!-- Created with Inkscape (http://www.inkscape.org/) -->
<svg xmlns:svg="http://www.w3.org/2000/svg" xmlns:xlink="http://www.w3.org/1999/xlink" xmlns="http://www.w3.org/2000/svg" version="1.1" width="400" height="75" id="svg2443" xml:space="preserve"><defs id="defs2446"><linearGradient x1="0" y1="0" x2="1" y2="0" id="linearGradient2466" gradientUnits="userSpaceOnUse" gradientTransform="matrix(-302.40186,3.05e-5,3.05e-5,302.40186,453.32129,493.80176)" spreadMethod="pad"><stop id="stop2468" style="stop-color:#41baef;stop-opacity:1" offset="0"/><stop id="stop2470" style="stop-color:#0d88d3;stop-opacity:1" offset="0.44999701"/><stop id="stop2472" style="stop-color:#25378c;stop-opacity:1" offset="1"/></linearGradient><linearGradient x1="0" y1="0" x2="1" y2="0" id="linearGradient2479" xlink:href="#linearGradient2466" gradientUnits="userSpaceOnUse" gradientTransform="matrix(-302.40186,3.05e-5,3.05e-5,302.40186,453.32129,493.80176)" spreadMethod="pad"/><linearGradient x1="0" y1="0" x2="1" y2="0" id="linearGradient2483" xlink:href="#linearGradient2466" gradientUnits="userSpaceOnUse" gradientTransform="matrix(-302.40186,3.05e-5,3.05e-5,302.40186,453.32129,493.80176)" spreadMethod="pad"/><linearGradient x1="0" y1="0" x2="1" y2="0" id="linearGradient2486" xlink:href="#linearGradient2466" gradientUnits="userSpaceOnUse" gradientTransform="matrix(-304.00087,3.0661275e-5,3.0661275e-5,304.00087,312.00029,762.00026)" spreadMethod="pad"/></defs><g transform="matrix(1.25,0,0,-1.25,0,990)" id="g2452"><g id="g2488"><path d="M 287.44082,787.73185 C 273.42108,787.71777 262.96509,780.74811 262.98921,766.52329 L 262.98921,766.52329 L 262.98921,738.06259 L 273.33865,738.06259 L 273.33865,766.52329 C 273.33463,774.48618 278.19318,779.41007 287.4549,779.42113 L 287.4549,779.42113 C 296.71259,779.43521 301.63247,774.49221 301.65157,766.52329 L 301.65157,766.52329 L 301.65157,738.06259 L 312,738.06259 L 312,766.52329 C 311.98291,780.71594 301.51284,787.73185 287.54135,787.73185 L 287.54135,787.73185 C 287.50818,787.73185 287.475,787.73185 287.44082,787.73185 M 231.91677,787.73185 C 225.53722,787.7228 217.91513,786.52651 212.97715,782.67726 L 212.97715,782.67726 C 209.09976,779.65637 216.94,775.88453 223.92373,779.15775 L 223.92373,779.15775 C 225.64378,779.96298 228.07356,780.66166 230.57069,780.67171 L 230.57069,780.67171 C 241.31219,780.74208 244.86589,776.1831 245.22377,768.62937 L 245.22377,768.62937 C 240.60045,768.62937 235.55793,768.61429 229.2216,768.39715 L 229.2216,768.39715 C 212.14075,767.97392 203.71041,762.78262 203.71946,752.23514 L 203.71946,752.23514 C 203.73554,742.98347 212.66149,736.26815 225.11801,736.26815 L 225.11801,736.26815 C 238.90755,736.26815 252.5302,738.9 252.5302,738.9 L 252.5302,738.9 C 256.41161,742.78242 255.83257,770.55349 255.83257,770.55349 L 255.83257,770.55349 C 255.81749,782.78784 245.35546,787.73185 231.97609,787.73185 L 231.97609,787.73185 C 231.95598,787.73185 231.93688,787.73185 231.91677,787.73185 M 214.88418,752.52768 C 214.87815,758.31512 220.7229,759.95374 230.72953,760.30659 L 230.72953,760.30659 C 236.85475,760.5931 241.61378,760.59813 245.22377,760.60215 L 245.22377,760.60215 C 244.76435,750.45176 248.10894,743.75654 227.44123,743.75654 L 227.44123,743.75654 C 218.79375,743.75654 214.88418,748.50854 214.88418,752.52768 M 36.197314,787.73185 C 29.817764,787.7228 22.195664,786.52651 17.256694,782.67726 L 17.256694,782.67726 C 13.380304,779.65637 21.220544,775.88453 28.204274,779.15775 L 28.204274,779.15775 C 29.924324,779.96298 32.354104,780.66166 34.852244,780.67171 L 34.852244,780.67171 C 45.593744,780.74208 49.145424,776.1831 49.505314,768.62937 L 49.505314,768.62937 C 44.880994,768.62937 39.839474,768.61429 33.502144,768.39715 L 33.502144,768.39715 C 16.421294,767.97392 7.9899445,762.78262 8.0000045,752.23514 L 8.0000045,752.23514 C 8.0150845,742.98347 16.942034,736.26815 29.397554,736.26815 L 29.397554,736.26815 C 43.188084,736.26815 56.812754,738.9 56.812754,738.9 L 56.812754,738.9 C 60.693164,742.78242 60.114114,770.55349 60.114114,770.55349 L 60.114114,770.55349 C 60.097024,782.78784 49.636004,787.73185 36.256624,787.73185 L 36.256624,787.73185 C 36.236524,787.73185 36.217424,787.73185 36.197314,787.73185 M 19.163724,752.52768 C 19.158694,758.31512 25.002434,759.95374 35.010074,760.30659 L 35.010074,760.30659 C 41.135294,760.5931 45.894324,760.59813 49.505314,760.60215 L 49.505314,760.60215 C 49.044894,750.45176 52.389484,743.75654 31.720774,743.75654 L 31.720774,743.75654 C 23.074294,743.75654 19.163724,748.50854 19.163724,752.52768 M 178.99139,787.18597 L 148.85086,787.18597 L 148.85086,738.06259 L 159.87685,738.06259 L 159.87685,757.4365 L 173.22808,757.44454 C 183.20355,757.31787 186.7492,755.14846 186.7492,745.83749 L 186.7492,745.83749 L 186.7492,738.06259 L 197.929,738.06259 L 197.929,747.04785 C 197.929,754.17936 196.49345,758.58453 190.47278,760.38802 L 190.47278,760.38802 C 195.04885,763.06912 197.94509,767.36773 197.929,772.43941 L 197.929,772.43941 C 197.91794,782.16456 189.82739,787.18597 179.02959,787.18597 L 179.02959,787.18597 C 179.01653,787.18597 179.00446,787.18597 178.99139,787.18597 M 159.87685,779.1487 L 175.33516,779.1487 C 181.17789,779.15172 186.67983,778.55558 186.69391,772.63142 L 186.69391,772.63142 C 186.69592,766.7143 181.34075,765.07869 174.87776,765.07467 L 174.87776,765.07467 L 159.87685,765.05457 L 159.87685,779.1487 z M 93.369034,787.18597 L 93.369034,779.1487 L 104.04016,779.1487 C 112.10458,779.1487 112.12971,779.14468 112.12971,771.28936 L 112.12971,771.28936 L 112.12971,738.06259 L 123.15269,738.06259 L 123.15269,771.28936 C 123.15269,779.14468 123.13158,779.1487 131.05626,779.1487 L 131.05626,779.1487 L 141.83495,779.1487 L 141.83495,787.18597 L 93.369034,787.18597 z M 66.106634,787.18597 L 66.106634,749.08256 C 66.106634,738.02942 77.133634,738.06259 77.133634,738.06259 L 77.133634,738.06259 L 104.18794,738.06259 L 104.18794,746.09283 L 88.096294,746.09283 C 77.133634,746.09283 77.133634,746.10489 77.133634,757.05047 L 77.133634,757.05047 L 77.133634,787.18597 L 66.106634,787.18597 z" id="path2474" style="fill:url(#linearGradient2486);stroke:none"/></g></g></svg>