<?xml version="1.0" encoding="utf-8"?>
<svg version="1.1" id="Layer_1" xmlns="http://www.w3.org/2000/svg" xmlns:xlink="http://www.w3.org/1999/xlink" x="0px" y="0px"
	 viewBox="0 0 496 60.4" style="enable-background:new 0 0 496 60.4;" xml:space="preserve">
<g>
	<path d="M59.4,30.3c0,17.5-12.7,30.1-29.7,30.1C12.6,60.4,0,47.7,0,30.3S12.6,0.1,29.7,0.1S59.4,12.9,59.4,30.3z M10.2,30.3
		c0,12.3,8.1,21,19.6,21c11.4,0,19.6-8.7,19.6-21S41.2,9.2,29.8,9.2C18.3,9.2,10.2,18,10.2,30.3z"/>
	<path d="M127.9,19.6c0,8.3-4.6,14-11.3,16.7l14,23.1H119L106,38h-9.9v21.4h-9.8V1.1h20.9C118.7,1.1,127.9,7.7,127.9,19.6z
		 M96.1,9.7v19.6h10.2c6.9,0,11.4-3.3,11.4-9.8c0-6.3-4.6-9.8-11.4-9.8C106.3,9.7,96.1,9.7,96.1,9.7z"/>
	<path d="M202,8.7l-6.3,7.1c-3.4-3.8-8.3-6.7-14.5-6.7c-11.7,0-19.6,8.8-19.6,21.1c0,12.1,7.9,21,19.6,21c6.4,0,11.4-2.9,14.8-7
		l6.2,7.3c-5.6,6.1-12.6,8.8-21,8.8c-17.3,0-29.7-12.9-29.7-30.1c0-17.4,12.4-30.2,29.7-30.2C190.1,0.1,196.5,3.1,202,8.7z"/>
	<path d="M273,59.4h-9.8V34.1h-26.6v25.3h-9.9V1.1h9.9v24h26.6v-24h9.8V59.4z"/>
	<path d="M352.6,59.4h-10.8l-4.6-10.6h-24.4l-4.6,10.6h-10.8l27.4-59.3h0.3L352.6,59.4z M316.2,40.7h17.6L325,20.5L316.2,40.7z"/>
	<path d="M418.4,19.6c0,8.3-4.6,14-11.3,16.7l14,23.1h-11.6l-13-21.4h-9.9v21.4h-9.8V1.1h21C409.2,1.1,418.4,7.7,418.4,19.6z
		 M386.7,9.7v19.6h10.2c6.9,0,11.4-3.3,11.4-9.8c0-6.3-4.6-9.8-11.4-9.8C396.9,9.7,386.7,9.7,386.7,9.7z"/>
	<path d="M496,30.2c0,18.4-11.6,29.2-31.6,29.2h-18V1.1h18C484.2,1.1,496,11.8,496,30.2z M456.3,10.3v40h7.9
		c14.2,0,21.8-7.4,21.8-20.1c0-12.6-7.7-19.9-21.8-19.9C464.2,10.3,456.3,10.3,456.3,10.3z"/>
</g>
</svg>
