G75*
G70*
%OFA0B0*%
%FSLAX24Y24*%
%IPPOS*%
%LPD*%
%AMOC8*
5,1,8,0,0,1.08239X$1,22.5*
%
%ADD10R,0.0709X0.0610*%
%ADD11R,0.0630X0.0118*%
%ADD12R,0.0500X0.0142*%
%ADD13R,0.1260X0.0551*%
%ADD14R,0.0394X0.0433*%
%ADD15C,0.0515*%
%ADD16R,0.0433X0.0394*%
%ADD17OC8,0.0520*%
%ADD18R,0.0394X0.0551*%
%ADD19R,0.0315X0.0315*%
%ADD20O,0.0600X0.1200*%
%ADD21R,0.0480X0.0244*%
%ADD22R,0.0480X0.0358*%
%ADD23R,0.0591X0.0512*%
%ADD24R,0.0299X0.0598*%
%ADD25R,0.0610X0.0709*%
%ADD26R,0.0512X0.0591*%
%ADD27R,0.0236X0.0472*%
%ADD28R,0.0480X0.0880*%
%ADD29R,0.1417X0.0866*%
%ADD30R,0.0846X0.0709*%
%ADD31R,0.0142X0.0500*%
%ADD32C,0.0120*%
%ADD33C,0.0317*%
%ADD34C,0.0160*%
%ADD35C,0.0100*%
%ADD36C,0.0315*%
%ADD37C,0.0071*%
D10*
X014085Y026183D03*
X014085Y027108D03*
X020156Y025065D03*
X020156Y024140D03*
X020376Y017797D03*
X020376Y016872D03*
X007672Y031651D03*
X007672Y032576D03*
D11*
X007451Y020066D03*
X007451Y019869D03*
X007451Y019672D03*
X007451Y019475D03*
X007451Y019278D03*
X009472Y019275D03*
X009472Y019472D03*
X009472Y019669D03*
X009472Y019866D03*
X009472Y020062D03*
D12*
X009396Y037370D03*
X009396Y037626D03*
X009396Y037882D03*
X009396Y038138D03*
X007715Y038138D03*
X007715Y037882D03*
X007715Y037626D03*
X007715Y037370D03*
D13*
X010427Y016726D03*
X010427Y014915D03*
X010427Y012122D03*
X010427Y010311D03*
X010427Y007372D03*
X010427Y005561D03*
X012908Y005561D03*
X012908Y007372D03*
X012908Y010311D03*
X012908Y012122D03*
X012908Y014915D03*
X012908Y016726D03*
X015427Y012122D03*
X015427Y010311D03*
X017908Y010311D03*
X017908Y012122D03*
X007908Y012122D03*
X007908Y010311D03*
X005427Y010311D03*
X005427Y012122D03*
D14*
X005337Y013453D03*
X006006Y013453D03*
X006996Y021545D03*
X007665Y021545D03*
X012003Y036952D03*
X012672Y036952D03*
X018514Y028701D03*
X019183Y028701D03*
D15*
X005171Y038319D03*
X004187Y038319D03*
X003203Y038319D03*
D16*
X006786Y038138D03*
X006786Y037468D03*
X014030Y031334D03*
X014030Y030665D03*
X014730Y030665D03*
X014730Y031335D03*
X007681Y022812D03*
X007681Y022143D03*
X007020Y022127D03*
X007020Y022797D03*
X007279Y023442D03*
X007279Y024112D03*
X007987Y002866D03*
X007987Y002196D03*
D17*
X014070Y037055D03*
X015070Y037055D03*
D18*
X012005Y037602D03*
X011631Y038468D03*
X011257Y037602D03*
X004043Y022549D03*
X003669Y021682D03*
X003295Y022549D03*
D19*
X006810Y002196D03*
X007400Y002196D03*
D20*
X018908Y002512D03*
X019908Y002512D03*
D21*
X006161Y022993D03*
X006161Y023367D03*
X006161Y023741D03*
X005047Y023741D03*
X005047Y023367D03*
X005047Y022993D03*
D22*
X004279Y023770D03*
X004275Y024794D03*
D23*
X003431Y024067D03*
X003431Y023397D03*
X015392Y024551D03*
X015392Y025220D03*
X019293Y025063D03*
X019293Y024394D03*
D24*
X004447Y025807D03*
X003699Y025807D03*
D25*
X006211Y024993D03*
X007136Y024993D03*
X019024Y033126D03*
X019949Y033126D03*
D26*
X019691Y034027D03*
X019022Y034027D03*
X019026Y032138D03*
X019026Y031248D03*
X019026Y030382D03*
X019695Y030382D03*
X019695Y031248D03*
X019695Y032138D03*
X006232Y022127D03*
X005563Y022127D03*
X003620Y002409D03*
X002951Y002409D03*
X018908Y003807D03*
X019577Y003807D03*
D27*
X014616Y024194D03*
X014242Y024194D03*
X013868Y024194D03*
X013868Y025223D03*
X014616Y025223D03*
D28*
X004774Y003528D03*
X003864Y003528D03*
X002954Y003528D03*
D29*
X003864Y005968D03*
D30*
X004559Y002409D03*
X005721Y002409D03*
X017742Y007344D03*
X018904Y007344D03*
D31*
X018902Y006299D03*
X018647Y006299D03*
X018391Y006299D03*
X018135Y006299D03*
X018135Y004618D03*
X018391Y004618D03*
X018647Y004618D03*
X018902Y004618D03*
D32*
X015380Y010315D02*
X014978Y010315D01*
X014978Y011185D01*
X012152Y013500D02*
X007211Y013500D01*
X006597Y014114D01*
X004128Y014114D01*
X004128Y021043D01*
X003703Y021039D02*
X003703Y010311D01*
X005435Y010311D01*
X005427Y012122D02*
X005408Y012122D01*
X005337Y012193D01*
X005337Y013453D01*
X005337Y012157D02*
X005372Y012122D01*
X005427Y012122D01*
X003293Y010260D02*
X004014Y009539D01*
X010427Y009539D01*
X010427Y010311D01*
X010427Y005561D02*
X007437Y005561D01*
X006518Y006480D01*
X006518Y009197D01*
X003801Y009197D01*
X002888Y010110D01*
X002888Y021043D01*
X003293Y021039D02*
X003293Y010260D01*
X005112Y006102D02*
X006081Y006102D01*
X002955Y003516D02*
X002951Y003512D01*
X002955Y003516D02*
X002954Y003516D01*
X004526Y016726D02*
X004526Y021043D01*
X004526Y016726D02*
X010419Y016726D01*
X013388Y020598D02*
X012573Y021413D01*
X012573Y027425D01*
X012573Y027846D01*
X012392Y028027D01*
X008967Y028027D01*
X008349Y028646D01*
X008349Y028791D01*
X008667Y028799D02*
X008667Y029086D01*
X008667Y029090D01*
X008667Y028799D02*
X009144Y028323D01*
X012474Y028323D01*
X012955Y027842D01*
X012955Y027067D01*
X012955Y022106D01*
X013864Y024161D02*
X013868Y024161D01*
X013868Y024661D01*
X014616Y024661D01*
X014616Y024194D01*
X014616Y025223D02*
X015401Y025223D01*
X015404Y025220D01*
X015392Y025220D01*
X015230Y025807D02*
X015230Y026752D01*
X014813Y026134D02*
X014089Y026134D01*
X014087Y026183D01*
X014085Y026183D01*
X014091Y026116D01*
X014089Y026118D01*
X014087Y026183D02*
X013868Y025964D01*
X013868Y025223D01*
X013868Y024194D02*
X013868Y024161D01*
X012226Y027709D02*
X008849Y027709D01*
X008034Y028508D01*
X007329Y028476D02*
X009234Y030382D01*
X009234Y030909D01*
X008782Y030921D02*
X008782Y030362D01*
X006896Y028476D01*
X006415Y028476D02*
X008352Y030413D01*
X008352Y030925D01*
X007931Y030929D02*
X007931Y030496D01*
X005951Y028516D01*
X005522Y028516D02*
X007518Y030512D01*
X007518Y030929D01*
X007679Y031651D02*
X008260Y031651D01*
X009474Y032866D01*
X009474Y034043D01*
X010286Y034854D01*
X010286Y037795D01*
X009943Y038138D01*
X009396Y038138D01*
X009396Y038547D01*
X006786Y038547D01*
X006786Y038138D01*
X006786Y038134D01*
X006128Y038134D01*
X005943Y038319D01*
X005171Y038319D01*
X006786Y037468D02*
X007242Y037468D01*
X007242Y038138D01*
X007715Y038138D01*
X008400Y038138D01*
X008660Y037878D01*
X008660Y036913D01*
X009498Y036913D01*
X009927Y036484D01*
X011257Y037602D02*
X011258Y037603D01*
X011258Y034988D01*
X009758Y033488D01*
X009758Y030283D01*
X010868Y026866D02*
X010868Y026421D01*
X007889Y023442D01*
X007283Y023442D01*
X007665Y021545D02*
X008256Y021545D01*
X010557Y023846D01*
X010557Y025610D01*
X006356Y026807D02*
X005077Y028086D01*
X005077Y028819D01*
X005837Y029579D01*
X005837Y032909D01*
X005837Y033370D02*
X005510Y033370D01*
X005510Y029657D01*
X004754Y028901D01*
X004754Y027795D01*
X006041Y026508D01*
X005750Y026201D02*
X004419Y027531D01*
X004419Y028996D01*
X005183Y029760D01*
X005183Y033783D01*
X007010Y033783D01*
X007010Y033539D01*
X007715Y036960D02*
X007715Y037370D01*
X007715Y036960D02*
X003203Y036960D01*
X003203Y038319D01*
X011258Y037603D02*
X011258Y037606D01*
X011631Y038468D02*
X013144Y038468D01*
X014069Y037543D01*
X014069Y037067D01*
X014070Y037066D01*
X014070Y037055D01*
X012003Y036952D02*
X012003Y037575D01*
X012002Y037575D01*
X012003Y037575D02*
X012005Y037575D01*
X012005Y037602D01*
X019022Y034027D02*
X019022Y033126D01*
X019014Y033126D01*
X019022Y033126D02*
X019024Y033126D01*
X019024Y032130D01*
X019022Y032130D01*
X019024Y032130D02*
X019026Y032130D01*
X019026Y032138D01*
X019026Y031248D01*
X019026Y030366D01*
X019030Y030366D01*
X019026Y030366D02*
X019026Y030382D01*
X019026Y031244D02*
X019030Y031244D01*
X019026Y031244D02*
X019026Y031248D01*
X019695Y031248D02*
X019695Y030382D01*
X019695Y030370D01*
X019695Y031232D02*
X019695Y031248D01*
X019695Y032138D01*
X019829Y032271D01*
X019829Y033130D01*
X019945Y033130D01*
X019949Y033126D01*
X020160Y025724D02*
X020160Y025063D01*
X019293Y025063D01*
X020152Y025063D01*
X020154Y025065D01*
X020156Y025065D01*
D33*
X020160Y025724D03*
X020321Y026583D03*
X020341Y027512D03*
X019982Y028610D03*
X020254Y029937D03*
X018486Y028102D03*
X017963Y027008D03*
X017553Y027008D03*
X017132Y027008D03*
X016699Y027008D03*
X016699Y027905D03*
X016663Y028429D03*
X016612Y028838D03*
X017258Y028421D03*
X017884Y028838D03*
X018187Y030149D03*
X017813Y030433D03*
X017089Y030209D03*
X016305Y030173D03*
X016289Y030705D03*
X015762Y029771D03*
X015758Y029338D03*
X015219Y028102D03*
X014908Y028976D03*
X014415Y029039D03*
X013872Y028319D03*
X013116Y029079D03*
X012226Y027709D03*
X012573Y027425D03*
X012955Y027067D03*
X014703Y026657D03*
X014813Y026134D03*
X015230Y025807D03*
X015230Y026752D03*
X016014Y026134D03*
X016612Y025614D03*
X017152Y025657D03*
X018809Y023464D03*
X019715Y022819D03*
X019116Y026307D03*
X016809Y032118D03*
X017526Y032610D03*
X017270Y035472D03*
X013356Y031334D03*
X011746Y031925D03*
X010742Y030598D03*
X009758Y030283D03*
X009234Y030909D03*
X008782Y030921D03*
X008352Y030925D03*
X007931Y030929D03*
X007518Y030929D03*
X006927Y031649D03*
X006939Y032579D03*
X007010Y033539D03*
X005837Y033370D03*
X005837Y032909D03*
X004187Y035598D03*
X003203Y036960D03*
X007061Y036622D03*
X009927Y036484D03*
X010286Y034854D03*
X010286Y033484D03*
X009104Y029075D03*
X008667Y029086D03*
X008349Y028791D03*
X008034Y028508D03*
X007329Y028476D03*
X006896Y028476D03*
X006415Y028476D03*
X005951Y028516D03*
X005522Y028516D03*
X006356Y026807D03*
X006041Y026508D03*
X005750Y026201D03*
X005372Y025807D03*
X005959Y024295D03*
X007494Y027252D03*
X008538Y025807D03*
X008494Y024827D03*
X008656Y023512D03*
X007927Y020775D03*
X008534Y019275D03*
X010423Y019338D03*
X010786Y020063D03*
X012230Y022106D03*
X012211Y022815D03*
X012955Y022106D03*
X013620Y022480D03*
X014207Y023067D03*
X014553Y023484D03*
X015219Y022905D03*
X013388Y020598D03*
X010557Y025610D03*
X010868Y026866D03*
X009581Y028886D03*
X004526Y021043D03*
X004128Y021043D03*
X003703Y021039D03*
X003293Y021039D03*
X002888Y021043D03*
X006341Y017409D03*
X009069Y012905D03*
X009108Y011209D03*
X009203Y007937D03*
X009959Y004980D03*
X010872Y004657D03*
X010860Y002453D03*
X010888Y001953D03*
X010081Y001949D03*
X008049Y004331D03*
X007534Y003527D03*
X006813Y002858D03*
X006156Y003110D03*
X006368Y004331D03*
X006081Y006102D03*
X005112Y006102D03*
X003852Y005008D03*
X007274Y006709D03*
X012152Y013500D03*
X014203Y013775D03*
X015329Y012960D03*
X015817Y012976D03*
X016392Y012976D03*
X016986Y012976D03*
X017341Y013775D03*
X017750Y015453D03*
X018219Y016870D03*
X017750Y017307D03*
X018219Y017882D03*
X019636Y017736D03*
X014978Y011185D03*
X015329Y008649D03*
X014390Y003937D03*
X018487Y005391D03*
X004187Y029484D03*
X010423Y038484D03*
D34*
X002667Y001914D02*
X002667Y001696D01*
X008385Y001696D01*
X008357Y001725D01*
X008314Y001828D01*
X008286Y001800D01*
X007687Y001800D01*
X002667Y001800D01*
X002667Y001914D02*
X003290Y001914D01*
X003407Y002031D01*
X003407Y002787D01*
X003292Y002902D01*
X003394Y003005D01*
X003394Y004027D01*
X004334Y004027D01*
X004334Y003005D01*
X004451Y002888D01*
X005097Y002888D01*
X005214Y003005D01*
X005214Y003248D01*
X005443Y003248D01*
X005443Y002964D01*
X005214Y002964D01*
X005097Y002846D01*
X005097Y001972D01*
X005214Y001855D01*
X006227Y001855D01*
X006344Y001972D01*
X006344Y002846D01*
X006227Y002964D01*
X006002Y002964D01*
X006002Y003248D01*
X006169Y003248D01*
X006170Y003247D01*
X006401Y003247D01*
X006402Y003248D01*
X007306Y003248D01*
X007330Y003223D01*
X007462Y003169D01*
X007593Y003169D01*
X007570Y003145D01*
X007570Y002586D01*
X007602Y002554D01*
X007160Y002554D01*
X007105Y002499D01*
X007093Y002511D01*
X007093Y002631D01*
X007117Y002655D01*
X007172Y002787D01*
X007172Y002929D01*
X007117Y003061D01*
X007016Y003162D01*
X006884Y003217D01*
X006742Y003217D01*
X006610Y003162D01*
X006509Y003061D01*
X006454Y002929D01*
X006454Y002787D01*
X006509Y002655D01*
X006533Y002631D01*
X006533Y002518D01*
X006452Y002437D01*
X006452Y001956D01*
X006569Y001839D01*
X007050Y001839D01*
X007105Y001894D01*
X007160Y001839D01*
X007640Y001839D01*
X007644Y001843D01*
X007687Y001800D01*
X007736Y001800D02*
X007736Y001696D01*
X007578Y001696D02*
X007578Y001839D01*
X007419Y001839D02*
X007419Y001696D01*
X007260Y001696D02*
X007260Y001839D01*
X007102Y001891D02*
X007102Y001696D01*
X006943Y001696D02*
X006943Y001839D01*
X006785Y001839D02*
X006785Y001696D01*
X006626Y001696D02*
X006626Y001839D01*
X006468Y001940D02*
X006468Y001696D01*
X006309Y001696D02*
X006309Y001938D01*
X006330Y001959D02*
X006452Y001959D01*
X006452Y002117D02*
X006344Y002117D01*
X006344Y002276D02*
X006452Y002276D01*
X006452Y002434D02*
X006344Y002434D01*
X006468Y002452D02*
X006468Y002754D01*
X006469Y002751D02*
X006344Y002751D01*
X006309Y002881D02*
X006309Y003247D01*
X006151Y003248D02*
X006151Y002964D01*
X006280Y002910D02*
X006454Y002910D01*
X006468Y002962D02*
X006468Y003248D01*
X006626Y003248D02*
X006626Y003169D01*
X006516Y003069D02*
X006002Y003069D01*
X006002Y003227D02*
X007327Y003227D01*
X007260Y003248D02*
X007260Y002554D01*
X007419Y002554D02*
X007419Y003187D01*
X007578Y003169D02*
X007578Y003153D01*
X007570Y003069D02*
X007110Y003069D01*
X007102Y003077D02*
X007102Y003248D01*
X006943Y003248D02*
X006943Y003192D01*
X006785Y003217D02*
X006785Y003248D01*
X006813Y002858D02*
X006813Y002212D01*
X006810Y002209D01*
X006810Y002196D01*
X007102Y002502D02*
X007102Y002640D01*
X007093Y002593D02*
X007570Y002593D01*
X007578Y002579D02*
X007578Y002554D01*
X007570Y002751D02*
X007157Y002751D01*
X007172Y002910D02*
X007570Y002910D01*
X007986Y003331D02*
X007789Y003528D01*
X007541Y003528D01*
X007534Y003527D01*
X007541Y003528D02*
X006286Y003528D01*
X006286Y003527D01*
X006286Y003528D02*
X005723Y003528D01*
X005723Y002409D01*
X005721Y002409D01*
X005675Y001855D02*
X005675Y001696D01*
X005516Y001696D02*
X005516Y001855D01*
X005358Y001855D02*
X005358Y001696D01*
X005199Y001696D02*
X005199Y001870D01*
X005111Y001959D02*
X003334Y001959D01*
X003297Y001921D02*
X003297Y001696D01*
X003455Y001696D02*
X003455Y004027D01*
X003394Y004020D02*
X004334Y004020D01*
X004248Y004027D02*
X004248Y001696D01*
X004090Y001696D02*
X004090Y004027D01*
X003931Y004027D02*
X003931Y001696D01*
X003773Y001696D02*
X003773Y004027D01*
X003614Y004027D02*
X003614Y001696D01*
X003407Y002117D02*
X005097Y002117D01*
X005097Y002276D02*
X003407Y002276D01*
X003407Y002434D02*
X005097Y002434D01*
X005097Y002593D02*
X003407Y002593D01*
X003407Y002751D02*
X005097Y002751D01*
X005041Y002888D02*
X005041Y001696D01*
X004882Y001696D02*
X004882Y002888D01*
X004724Y002888D02*
X004724Y001696D01*
X004565Y001696D02*
X004565Y002888D01*
X004429Y002910D02*
X003299Y002910D01*
X003297Y002908D02*
X003297Y002897D01*
X003394Y003069D02*
X004334Y003069D01*
X004407Y002933D02*
X004407Y001696D01*
X004559Y002409D02*
X003620Y002409D01*
X003620Y002815D01*
X003864Y003059D01*
X003864Y003528D01*
X003864Y003500D01*
X003868Y003496D01*
X004334Y003544D02*
X003394Y003544D01*
X003394Y003386D02*
X004334Y003386D01*
X004334Y003227D02*
X003394Y003227D01*
X003394Y003703D02*
X004334Y003703D01*
X004334Y003861D02*
X003394Y003861D01*
X002954Y003528D02*
X002954Y003516D01*
X002955Y003516D02*
X002955Y004307D01*
X005600Y004307D01*
X005955Y003953D01*
X009360Y003953D01*
X010860Y002453D01*
X011190Y002593D02*
X014024Y002593D01*
X014065Y002692D02*
X013935Y002378D01*
X013935Y002039D01*
X014065Y001725D01*
X014094Y001696D01*
X011139Y001696D01*
X011192Y001749D01*
X011247Y001881D01*
X011247Y002024D01*
X011192Y002156D01*
X011131Y002216D01*
X011164Y002249D01*
X011219Y002381D01*
X011219Y002524D01*
X011164Y002656D01*
X011064Y002757D01*
X010932Y002811D01*
X010898Y002811D01*
X009476Y004233D01*
X009244Y004233D01*
X008397Y004233D01*
X008408Y004259D01*
X008408Y004402D01*
X008353Y004534D01*
X008252Y004635D01*
X008121Y004689D01*
X007978Y004689D01*
X007846Y004635D01*
X007822Y004611D01*
X006596Y004611D01*
X006571Y004635D01*
X006440Y004689D01*
X006297Y004689D01*
X006165Y004635D01*
X006064Y004534D01*
X006009Y004402D01*
X006009Y004294D01*
X005716Y004587D01*
X005484Y004587D01*
X002839Y004587D01*
X002675Y004423D01*
X002675Y004191D01*
X002675Y004168D01*
X002667Y004168D01*
X002667Y007865D01*
X002716Y007816D01*
X002993Y007701D01*
X003294Y007701D01*
X003572Y007816D01*
X003784Y008029D01*
X003899Y008306D01*
X003899Y008607D01*
X003784Y008885D01*
X003732Y008937D01*
X006258Y008937D01*
X006258Y006417D01*
X006152Y006461D01*
X006009Y006461D01*
X005878Y006406D01*
X005833Y006362D01*
X005360Y006362D01*
X005315Y006406D01*
X005184Y006461D01*
X005041Y006461D01*
X004909Y006406D01*
X004808Y006305D01*
X004754Y006174D01*
X004754Y006031D01*
X004808Y005899D01*
X004909Y005798D01*
X005041Y005743D01*
X005184Y005743D01*
X005315Y005798D01*
X005360Y005842D01*
X005833Y005842D01*
X005878Y005798D01*
X006009Y005743D01*
X006152Y005743D01*
X006284Y005798D01*
X006385Y005899D01*
X006439Y006031D01*
X006439Y006174D01*
X006427Y006203D01*
X007329Y005301D01*
X007545Y005301D01*
X009597Y005301D01*
X009597Y005202D01*
X009643Y005156D01*
X009600Y005051D01*
X009600Y004909D01*
X009655Y004777D01*
X009756Y004676D01*
X009887Y004621D01*
X010030Y004621D01*
X010162Y004676D01*
X010186Y004700D01*
X010513Y004700D01*
X010513Y004586D01*
X010568Y004454D01*
X010669Y004353D01*
X010801Y004299D01*
X010877Y004299D01*
X011343Y003833D01*
X011489Y003687D01*
X014132Y003687D01*
X014186Y003633D01*
X014318Y003578D01*
X014461Y003578D01*
X014593Y003633D01*
X014694Y003734D01*
X014748Y003865D01*
X014748Y004008D01*
X014694Y004140D01*
X014593Y004241D01*
X014461Y004296D01*
X014318Y004296D01*
X014186Y004241D01*
X014132Y004187D01*
X011696Y004187D01*
X011231Y004652D01*
X011231Y004700D01*
X015213Y004700D01*
X015217Y004700D01*
X017685Y002232D01*
X017917Y002232D01*
X018408Y002232D01*
X018408Y002005D01*
X018700Y001712D01*
X019115Y001712D01*
X019408Y002005D01*
X019408Y003019D01*
X019265Y003161D01*
X019265Y003330D01*
X019363Y003429D01*
X019363Y004185D01*
X019246Y004302D01*
X019173Y004302D01*
X019173Y004951D01*
X019056Y005068D01*
X018800Y005068D01*
X018643Y005068D01*
X018690Y005087D01*
X018791Y005188D01*
X018846Y005320D01*
X018846Y005463D01*
X018791Y005595D01*
X018690Y005695D01*
X018558Y005750D01*
X018416Y005750D01*
X018284Y005695D01*
X018183Y005595D01*
X018128Y005463D01*
X018128Y005386D01*
X017885Y005143D01*
X017885Y004971D01*
X017864Y004951D01*
X017864Y004285D01*
X017981Y004168D01*
X018288Y004168D01*
X018452Y004168D01*
X018452Y003429D01*
X018550Y003330D01*
X018550Y003161D01*
X018408Y003019D01*
X018408Y002792D01*
X017917Y002792D01*
X015609Y005100D01*
X015609Y008422D01*
X015633Y008446D01*
X015688Y008578D01*
X015688Y008721D01*
X015633Y008853D01*
X015532Y008954D01*
X015400Y009008D01*
X015257Y009008D01*
X015126Y008954D01*
X015025Y008853D01*
X014970Y008721D01*
X014970Y008578D01*
X015025Y008446D01*
X015049Y008422D01*
X015049Y005260D01*
X013737Y005260D01*
X013737Y005919D01*
X013620Y006036D01*
X012195Y006036D01*
X012078Y005919D01*
X012078Y005918D01*
X011257Y005918D01*
X011257Y005919D01*
X011140Y006036D01*
X009714Y006036D01*
X009597Y005919D01*
X009597Y005821D01*
X007545Y005821D01*
X006778Y006588D01*
X006778Y009279D01*
X010535Y009279D01*
X010687Y009431D01*
X010687Y009647D01*
X010687Y009835D01*
X011140Y009835D01*
X011257Y009952D01*
X011257Y009953D01*
X012078Y009953D01*
X012078Y009952D01*
X012195Y009835D01*
X013620Y009835D01*
X013737Y009952D01*
X013737Y010669D01*
X013620Y010786D01*
X012195Y010786D01*
X012078Y010669D01*
X012078Y010668D01*
X011257Y010668D01*
X011257Y010669D01*
X011140Y010786D01*
X009714Y010786D01*
X009597Y010669D01*
X009597Y009952D01*
X009714Y009835D01*
X010167Y009835D01*
X010167Y009799D01*
X004122Y009799D01*
X003870Y010051D01*
X004597Y010051D01*
X004597Y009952D01*
X004714Y009835D01*
X006140Y009835D01*
X006257Y009952D01*
X006257Y009953D01*
X007078Y009953D01*
X007078Y009952D01*
X007195Y009835D01*
X008620Y009835D01*
X008737Y009952D01*
X008737Y010669D01*
X008620Y010786D01*
X007195Y010786D01*
X007078Y010669D01*
X007078Y010668D01*
X006257Y010668D01*
X006257Y010669D01*
X006140Y010786D01*
X004714Y010786D01*
X004597Y010669D01*
X004597Y010571D01*
X003963Y010571D01*
X003963Y013912D01*
X004020Y013854D01*
X004236Y013854D01*
X005042Y013854D01*
X004940Y013752D01*
X004940Y013153D01*
X005057Y013036D01*
X005077Y013036D01*
X005077Y012597D01*
X004714Y012597D01*
X004597Y012480D01*
X004597Y011763D01*
X004714Y011646D01*
X006140Y011646D01*
X006257Y011763D01*
X006257Y011764D01*
X007078Y011764D01*
X007078Y011763D01*
X007195Y011646D01*
X008620Y011646D01*
X008737Y011763D01*
X008737Y011764D01*
X009597Y011764D01*
X009597Y011763D01*
X009714Y011646D01*
X011140Y011646D01*
X011257Y011763D01*
X011257Y011764D01*
X012078Y011764D01*
X012078Y011763D01*
X012195Y011646D01*
X013620Y011646D01*
X013737Y011763D01*
X013737Y011764D01*
X013759Y011764D01*
X013759Y009774D01*
X012550Y008565D01*
X012550Y008269D01*
X012550Y007847D01*
X012195Y007847D01*
X012078Y007730D01*
X012078Y007729D01*
X011257Y007729D01*
X011257Y007730D01*
X011140Y007847D01*
X009714Y007847D01*
X009597Y007730D01*
X009597Y007013D01*
X009714Y006896D01*
X011140Y006896D01*
X011257Y007013D01*
X011257Y007014D01*
X012078Y007014D01*
X012078Y007013D01*
X012195Y006896D01*
X013620Y006896D01*
X013737Y007013D01*
X013737Y007730D01*
X013620Y007847D01*
X013265Y007847D01*
X013265Y008269D01*
X014264Y009268D01*
X014474Y009478D01*
X014474Y011764D01*
X014597Y011764D01*
X014597Y011763D01*
X014714Y011646D01*
X016140Y011646D01*
X016257Y011763D01*
X016257Y011764D01*
X017078Y011764D01*
X017078Y011763D01*
X017195Y011646D01*
X018620Y011646D01*
X018706Y011732D01*
X018706Y010700D01*
X018620Y010786D01*
X017195Y010786D01*
X017078Y010669D01*
X017078Y010668D01*
X016257Y010668D01*
X016257Y010669D01*
X016140Y010786D01*
X015238Y010786D01*
X015238Y010938D01*
X015283Y010982D01*
X015337Y011114D01*
X015337Y011256D01*
X015283Y011388D01*
X015182Y011489D01*
X015050Y011544D01*
X014907Y011544D01*
X014775Y011489D01*
X014674Y011388D01*
X014620Y011256D01*
X014620Y011114D01*
X014674Y010982D01*
X014718Y010938D01*
X014718Y010786D01*
X014714Y010786D01*
X014597Y010669D01*
X014597Y009952D01*
X014714Y009835D01*
X016140Y009835D01*
X016257Y009952D01*
X016257Y009953D01*
X017078Y009953D01*
X017078Y009952D01*
X017195Y009835D01*
X018620Y009835D01*
X018706Y009921D01*
X018706Y007898D01*
X018398Y007898D01*
X018280Y007781D01*
X018280Y006906D01*
X018398Y006789D01*
X018662Y006789D01*
X018662Y006749D01*
X018544Y006749D01*
X018237Y006749D01*
X018120Y006632D01*
X018120Y005966D01*
X018237Y005849D01*
X018544Y005849D01*
X018800Y005849D01*
X019056Y005849D01*
X019173Y005966D01*
X019173Y006632D01*
X019162Y006643D01*
X019162Y006789D01*
X019410Y006789D01*
X019527Y006906D01*
X019527Y007781D01*
X019410Y007898D01*
X019266Y007898D01*
X019266Y012896D01*
X019266Y013128D01*
X018502Y013891D01*
X018502Y016592D01*
X019822Y016592D01*
X019822Y016484D01*
X019939Y016367D01*
X020707Y016367D01*
X020707Y009100D01*
X020436Y009212D01*
X020135Y009212D01*
X019857Y009097D01*
X019645Y008885D01*
X019530Y008607D01*
X019530Y008306D01*
X019645Y008029D01*
X019857Y007816D01*
X020135Y007701D01*
X020436Y007701D01*
X020707Y007813D01*
X020707Y001696D01*
X015485Y001696D01*
X015513Y001725D01*
X015643Y002039D01*
X015643Y002378D01*
X015513Y002692D01*
X015273Y002932D01*
X014959Y003062D01*
X014620Y003062D01*
X014306Y002932D01*
X014065Y002692D01*
X014078Y002705D02*
X014078Y003687D01*
X013919Y003687D02*
X013919Y001696D01*
X014034Y001800D02*
X011213Y001800D01*
X011224Y001827D02*
X011224Y001696D01*
X011383Y001696D02*
X011383Y003793D01*
X011315Y003861D02*
X009848Y003861D01*
X009797Y003912D02*
X009797Y004659D01*
X009809Y004654D02*
X008206Y004654D01*
X008212Y004651D02*
X008212Y005301D01*
X008370Y005301D02*
X008370Y004493D01*
X008369Y004495D02*
X010551Y004495D01*
X010590Y004432D02*
X010590Y003119D01*
X010640Y003069D02*
X016848Y003069D01*
X016773Y003144D02*
X016773Y001696D01*
X016615Y001696D02*
X016615Y003302D01*
X016690Y003227D02*
X010482Y003227D01*
X010431Y003277D02*
X010431Y004700D01*
X010513Y004654D02*
X010109Y004654D01*
X010114Y004656D02*
X010114Y003595D01*
X010165Y003544D02*
X016373Y003544D01*
X016297Y003619D02*
X016297Y001696D01*
X016139Y001696D02*
X016139Y003778D01*
X016214Y003703D02*
X014663Y003703D01*
X014712Y003778D02*
X014712Y003062D01*
X014871Y003062D02*
X014871Y004700D01*
X015029Y004700D02*
X015029Y003034D01*
X015188Y002968D02*
X015188Y004700D01*
X015263Y004654D02*
X011231Y004654D01*
X011383Y004700D02*
X011383Y004500D01*
X011388Y004495D02*
X015422Y004495D01*
X015346Y004571D02*
X015346Y002859D01*
X015296Y002910D02*
X017007Y002910D01*
X016932Y002985D02*
X016932Y001696D01*
X017090Y001696D02*
X017090Y002827D01*
X017166Y002751D02*
X015454Y002751D01*
X015505Y002701D02*
X015505Y004412D01*
X015580Y004337D02*
X011546Y004337D01*
X011541Y004342D02*
X011541Y004700D01*
X011700Y004700D02*
X011700Y004187D01*
X011858Y004187D02*
X011858Y004700D01*
X012017Y004700D02*
X012017Y004187D01*
X012175Y004187D02*
X012175Y004700D01*
X012334Y004700D02*
X012334Y004187D01*
X012492Y004187D02*
X012492Y004700D01*
X012651Y004700D02*
X012651Y004187D01*
X012809Y004187D02*
X012809Y004700D01*
X012968Y004700D02*
X012968Y004187D01*
X013127Y004187D02*
X013127Y004700D01*
X013285Y004700D02*
X013285Y004187D01*
X013444Y004187D02*
X013444Y004700D01*
X013602Y004700D02*
X013602Y004187D01*
X013761Y004187D02*
X013761Y004700D01*
X013919Y004700D02*
X013919Y004187D01*
X014078Y004187D02*
X014078Y004700D01*
X014236Y004700D02*
X014236Y004262D01*
X014395Y004296D02*
X014395Y004700D01*
X014553Y004700D02*
X014553Y004257D01*
X014655Y004178D02*
X015739Y004178D01*
X015663Y004254D02*
X015663Y001696D01*
X015545Y001800D02*
X018612Y001800D01*
X018676Y001736D02*
X018676Y001696D01*
X018834Y001696D02*
X018834Y001712D01*
X018993Y001696D02*
X018993Y001712D01*
X019151Y001696D02*
X019151Y001748D01*
X019203Y001800D02*
X020707Y001800D01*
X020707Y001959D02*
X019362Y001959D01*
X019310Y001907D02*
X019310Y001696D01*
X019468Y001696D02*
X019468Y006848D01*
X019494Y006874D02*
X020707Y006874D01*
X020707Y007032D02*
X019527Y007032D01*
X019527Y007191D02*
X020707Y007191D01*
X020707Y007349D02*
X019527Y007349D01*
X019527Y007508D02*
X020707Y007508D01*
X020707Y007666D02*
X019527Y007666D01*
X019483Y007825D02*
X019849Y007825D01*
X019785Y007888D02*
X019785Y001696D01*
X019627Y001696D02*
X019627Y008072D01*
X019598Y008142D02*
X019266Y008142D01*
X019266Y008300D02*
X019532Y008300D01*
X019530Y008459D02*
X019266Y008459D01*
X019266Y008618D02*
X019534Y008618D01*
X019600Y008776D02*
X019266Y008776D01*
X019266Y008935D02*
X019695Y008935D01*
X019627Y008841D02*
X019627Y016592D01*
X019785Y016592D02*
X019785Y009025D01*
X019854Y009093D02*
X019266Y009093D01*
X019266Y009252D02*
X020707Y009252D01*
X020707Y009410D02*
X019266Y009410D01*
X019266Y009569D02*
X020707Y009569D01*
X020707Y009727D02*
X019266Y009727D01*
X019266Y009886D02*
X020707Y009886D01*
X020707Y010044D02*
X019266Y010044D01*
X019266Y010203D02*
X020707Y010203D01*
X020707Y010361D02*
X019266Y010361D01*
X019266Y010520D02*
X020707Y010520D01*
X020707Y010679D02*
X019266Y010679D01*
X019266Y010837D02*
X020707Y010837D01*
X020707Y010996D02*
X019266Y010996D01*
X019266Y011154D02*
X020707Y011154D01*
X020707Y011313D02*
X019266Y011313D01*
X019266Y011471D02*
X020707Y011471D01*
X020707Y011630D02*
X019266Y011630D01*
X019266Y011788D02*
X020707Y011788D01*
X020707Y011947D02*
X019266Y011947D01*
X019266Y012105D02*
X020707Y012105D01*
X020707Y012264D02*
X019266Y012264D01*
X019266Y012423D02*
X020707Y012423D01*
X020707Y012581D02*
X019266Y012581D01*
X019266Y012740D02*
X020707Y012740D01*
X020707Y012898D02*
X019266Y012898D01*
X019266Y013057D02*
X020707Y013057D01*
X020707Y013215D02*
X019179Y013215D01*
X019151Y013243D02*
X019151Y016592D01*
X018993Y016592D02*
X018993Y013401D01*
X019020Y013374D02*
X020707Y013374D01*
X020707Y013532D02*
X018861Y013532D01*
X018834Y013560D02*
X018834Y016592D01*
X018676Y016592D02*
X018676Y013718D01*
X018703Y013691D02*
X020707Y013691D01*
X020707Y013849D02*
X018544Y013849D01*
X018517Y013877D02*
X018517Y016592D01*
X018502Y016545D02*
X019822Y016545D01*
X019919Y016386D02*
X018502Y016386D01*
X018502Y016228D02*
X020707Y016228D01*
X020707Y016069D02*
X018502Y016069D01*
X018502Y015911D02*
X020707Y015911D01*
X020707Y015752D02*
X018502Y015752D01*
X018502Y015593D02*
X020707Y015593D01*
X020707Y015435D02*
X018502Y015435D01*
X018502Y015276D02*
X020707Y015276D01*
X020707Y015118D02*
X018502Y015118D01*
X018502Y014959D02*
X020707Y014959D01*
X020707Y014801D02*
X018502Y014801D01*
X018502Y014642D02*
X020707Y014642D01*
X020707Y014484D02*
X018502Y014484D01*
X018502Y014325D02*
X020707Y014325D01*
X020707Y014167D02*
X018502Y014167D01*
X018502Y014008D02*
X020707Y014008D01*
X020578Y016367D02*
X020578Y009153D01*
X020420Y009212D02*
X020420Y016367D01*
X020261Y016367D02*
X020261Y009212D01*
X020102Y009199D02*
X020102Y016367D01*
X019944Y016367D02*
X019944Y009133D01*
X019690Y007983D02*
X019266Y007983D01*
X019310Y007898D02*
X019310Y016592D01*
X019468Y016592D02*
X019468Y007839D01*
X019944Y007780D02*
X019944Y001696D01*
X020102Y001696D02*
X020102Y007715D01*
X020261Y007701D02*
X020261Y001696D01*
X020420Y001696D02*
X020420Y007701D01*
X020578Y007760D02*
X020578Y001696D01*
X020707Y002117D02*
X019408Y002117D01*
X019408Y002276D02*
X020707Y002276D01*
X020707Y002434D02*
X019408Y002434D01*
X019408Y002593D02*
X020707Y002593D01*
X020707Y002751D02*
X019408Y002751D01*
X019408Y002910D02*
X020707Y002910D01*
X020707Y003069D02*
X019358Y003069D01*
X019310Y003116D02*
X019310Y003375D01*
X019320Y003386D02*
X020707Y003386D01*
X020707Y003544D02*
X019363Y003544D01*
X019363Y003703D02*
X020707Y003703D01*
X020707Y003861D02*
X019363Y003861D01*
X019363Y004020D02*
X020707Y004020D01*
X020707Y004178D02*
X019363Y004178D01*
X019310Y004239D02*
X019310Y006789D01*
X019162Y006715D02*
X020707Y006715D01*
X020707Y006556D02*
X019173Y006556D01*
X019173Y006398D02*
X020707Y006398D01*
X020707Y006239D02*
X019173Y006239D01*
X019173Y006081D02*
X020707Y006081D01*
X020707Y005922D02*
X019130Y005922D01*
X019151Y005944D02*
X019151Y004973D01*
X019153Y004971D02*
X020707Y004971D01*
X020707Y004812D02*
X019173Y004812D01*
X019173Y004654D02*
X020707Y004654D01*
X020707Y004495D02*
X019173Y004495D01*
X019173Y004337D02*
X020707Y004337D01*
X020707Y005130D02*
X018733Y005130D01*
X018676Y005081D02*
X018676Y005068D01*
X018834Y005068D02*
X018834Y005292D01*
X018833Y005288D02*
X020707Y005288D01*
X020707Y005447D02*
X018846Y005447D01*
X018834Y005491D02*
X018834Y005849D01*
X018676Y005849D02*
X018676Y005702D01*
X018781Y005605D02*
X020707Y005605D01*
X020707Y005764D02*
X015609Y005764D01*
X015609Y005922D02*
X018163Y005922D01*
X018200Y005886D02*
X018200Y005612D01*
X018194Y005605D02*
X015609Y005605D01*
X015609Y005447D02*
X018128Y005447D01*
X018041Y005299D02*
X018041Y009835D01*
X017883Y009835D02*
X017883Y004970D01*
X017884Y004971D02*
X015738Y004971D01*
X015663Y005046D02*
X015663Y008519D01*
X015638Y008459D02*
X018706Y008459D01*
X018706Y008618D02*
X015688Y008618D01*
X015665Y008776D02*
X018706Y008776D01*
X018706Y008935D02*
X015551Y008935D01*
X015505Y008965D02*
X015505Y009835D01*
X015663Y009835D02*
X015663Y008779D01*
X015609Y008300D02*
X018706Y008300D01*
X018706Y008142D02*
X015609Y008142D01*
X015609Y007983D02*
X018706Y007983D01*
X018676Y007898D02*
X018676Y009891D01*
X018671Y009886D02*
X018706Y009886D01*
X018706Y009727D02*
X014474Y009727D01*
X014474Y009569D02*
X018706Y009569D01*
X018706Y009410D02*
X014406Y009410D01*
X014395Y009399D02*
X014395Y005260D01*
X014553Y005260D02*
X014553Y011764D01*
X014474Y011630D02*
X018706Y011630D01*
X018676Y011702D02*
X018676Y010731D01*
X018706Y010837D02*
X015238Y010837D01*
X015346Y010786D02*
X015346Y011646D01*
X015188Y011646D02*
X015188Y011483D01*
X015199Y011471D02*
X018706Y011471D01*
X018706Y011313D02*
X015314Y011313D01*
X015337Y011154D02*
X018706Y011154D01*
X018706Y010996D02*
X015288Y010996D01*
X015505Y010786D02*
X015505Y011646D01*
X015663Y011646D02*
X015663Y010786D01*
X015822Y010786D02*
X015822Y011646D01*
X015980Y011646D02*
X015980Y010786D01*
X016139Y010786D02*
X016139Y011646D01*
X016297Y011764D02*
X016297Y010668D01*
X016248Y010679D02*
X017087Y010679D01*
X017090Y010682D02*
X017090Y011751D01*
X016932Y011764D02*
X016932Y010668D01*
X016773Y010668D02*
X016773Y011764D01*
X016615Y011764D02*
X016615Y010668D01*
X016456Y010668D02*
X016456Y011764D01*
X016456Y012479D02*
X016456Y012617D01*
X016463Y012617D02*
X016595Y012672D01*
X016689Y012766D01*
X016783Y012672D01*
X016915Y012617D01*
X017058Y012617D01*
X017189Y012672D01*
X017290Y012773D01*
X017345Y012905D01*
X017345Y013048D01*
X017290Y013179D01*
X017222Y013248D01*
X017222Y013436D01*
X017269Y013417D01*
X017412Y013417D01*
X017544Y013471D01*
X017568Y013495D01*
X018107Y013495D01*
X018706Y012896D01*
X018706Y012511D01*
X018620Y012597D01*
X017195Y012597D01*
X017078Y012480D01*
X017078Y012479D01*
X016257Y012479D01*
X016257Y012480D01*
X016140Y012597D01*
X014714Y012597D01*
X014597Y012480D01*
X014597Y012479D01*
X013968Y012479D01*
X013737Y012479D01*
X013737Y012480D01*
X013620Y012597D01*
X013308Y012597D01*
X013308Y014440D01*
X013620Y014440D01*
X013737Y014557D01*
X013737Y015274D01*
X013620Y015391D01*
X012195Y015391D01*
X012078Y015274D01*
X012078Y015273D01*
X011257Y015273D01*
X011257Y015274D01*
X011140Y015391D01*
X009714Y015391D01*
X009597Y015274D01*
X009597Y014557D01*
X009714Y014440D01*
X011140Y014440D01*
X011257Y014557D01*
X011257Y014558D01*
X012078Y014558D01*
X012078Y014557D01*
X012195Y014440D01*
X012593Y014440D01*
X012593Y012597D01*
X012195Y012597D01*
X012078Y012480D01*
X012078Y012479D01*
X011257Y012479D01*
X011257Y012480D01*
X011140Y012597D01*
X009714Y012597D01*
X009597Y012480D01*
X009597Y012479D01*
X008737Y012479D01*
X008737Y012480D01*
X008620Y012597D01*
X007195Y012597D01*
X007078Y012480D01*
X007078Y012479D01*
X006257Y012479D01*
X006257Y012480D01*
X006140Y012597D01*
X005597Y012597D01*
X005597Y013036D01*
X005616Y013036D01*
X005734Y013153D01*
X005734Y013752D01*
X005631Y013854D01*
X006489Y013854D01*
X007103Y013240D01*
X007318Y013240D01*
X011904Y013240D01*
X011948Y013196D01*
X012080Y013141D01*
X012223Y013141D01*
X012355Y013196D01*
X012456Y013297D01*
X012510Y013428D01*
X012510Y013571D01*
X012456Y013703D01*
X012355Y013804D01*
X012223Y013859D01*
X012080Y013859D01*
X011948Y013804D01*
X011904Y013760D01*
X007318Y013760D01*
X006856Y014222D01*
X006704Y014374D01*
X004388Y014374D01*
X004388Y016496D01*
X004418Y016466D01*
X004633Y016466D01*
X009597Y016466D01*
X009597Y016368D01*
X009714Y016251D01*
X011140Y016251D01*
X011257Y016368D01*
X011257Y016369D01*
X012078Y016369D01*
X012078Y016368D01*
X012195Y016251D01*
X013620Y016251D01*
X013737Y016368D01*
X013737Y017085D01*
X013693Y017129D01*
X013923Y017129D01*
X013923Y014003D01*
X013899Y013979D01*
X013844Y013847D01*
X013844Y013704D01*
X013899Y013572D01*
X014000Y013471D01*
X014131Y013417D01*
X014274Y013417D01*
X014406Y013471D01*
X014507Y013572D01*
X014562Y013704D01*
X014562Y013847D01*
X014507Y013979D01*
X014483Y014003D01*
X014483Y017525D01*
X014319Y017689D01*
X014087Y017689D01*
X010524Y017689D01*
X010280Y017689D01*
X008814Y017689D01*
X008814Y019025D01*
X009066Y019025D01*
X009075Y019016D01*
X009870Y019016D01*
X009987Y019133D01*
X009987Y019185D01*
X010084Y019088D01*
X010166Y019088D01*
X010220Y019034D01*
X010352Y018980D01*
X010495Y018980D01*
X010626Y019034D01*
X010727Y019135D01*
X010782Y019267D01*
X010782Y019410D01*
X010755Y019474D01*
X010780Y019474D01*
X010987Y019474D01*
X012566Y021053D01*
X013029Y020589D01*
X013029Y020527D01*
X013084Y020395D01*
X013185Y020294D01*
X013316Y020240D01*
X013459Y020240D01*
X013591Y020294D01*
X013692Y020395D01*
X013727Y020481D01*
X015049Y019159D01*
X015049Y013188D01*
X015025Y013164D01*
X014970Y013032D01*
X014970Y012889D01*
X015025Y012757D01*
X015126Y012656D01*
X015257Y012602D01*
X015400Y012602D01*
X015532Y012656D01*
X015581Y012705D01*
X015614Y012672D01*
X015746Y012617D01*
X015888Y012617D01*
X016020Y012672D01*
X016104Y012756D01*
X016189Y012672D01*
X016320Y012617D01*
X016463Y012617D01*
X016297Y012627D02*
X016297Y012479D01*
X016156Y012581D02*
X017178Y012581D01*
X017249Y012597D02*
X017249Y012731D01*
X017257Y012740D02*
X018706Y012740D01*
X018704Y012898D02*
X017342Y012898D01*
X017341Y013057D02*
X018545Y013057D01*
X018517Y013085D02*
X018517Y012597D01*
X018637Y012581D02*
X018706Y012581D01*
X018676Y012542D02*
X018676Y012926D01*
X018986Y013012D02*
X018986Y007441D01*
X018904Y007358D01*
X018904Y007344D01*
X018517Y007898D02*
X018517Y009835D01*
X018359Y009835D02*
X018359Y007859D01*
X018324Y007825D02*
X015609Y007825D01*
X015609Y007666D02*
X018280Y007666D01*
X018280Y007508D02*
X015609Y007508D01*
X015609Y007349D02*
X018280Y007349D01*
X018280Y007191D02*
X015609Y007191D01*
X015609Y007032D02*
X018280Y007032D01*
X018313Y006874D02*
X015609Y006874D01*
X015609Y006715D02*
X018203Y006715D01*
X018200Y006712D02*
X018200Y009835D01*
X017724Y009835D02*
X017724Y002984D01*
X017799Y002910D02*
X018408Y002910D01*
X018359Y002792D02*
X018359Y004168D01*
X018200Y004168D02*
X018200Y002792D01*
X018041Y002792D02*
X018041Y004168D01*
X017970Y004178D02*
X016531Y004178D01*
X016456Y004253D02*
X016456Y009953D01*
X016297Y009953D02*
X016297Y004411D01*
X016372Y004337D02*
X017864Y004337D01*
X017883Y004266D02*
X017883Y002826D01*
X017801Y002512D02*
X015329Y004984D01*
X015329Y004980D01*
X009959Y004980D01*
X009956Y004621D02*
X009956Y003753D01*
X010006Y003703D02*
X011473Y003703D01*
X011541Y003687D02*
X011541Y001696D01*
X011700Y001696D02*
X011700Y003687D01*
X011858Y003687D02*
X011858Y001696D01*
X012017Y001696D02*
X012017Y003687D01*
X012175Y003687D02*
X012175Y001696D01*
X012334Y001696D02*
X012334Y003687D01*
X012492Y003687D02*
X012492Y001696D01*
X012651Y001696D02*
X012651Y003687D01*
X012809Y003687D02*
X012809Y001696D01*
X012968Y001696D02*
X012968Y003687D01*
X013127Y003687D02*
X013127Y001696D01*
X013285Y001696D02*
X013285Y003687D01*
X013444Y003687D02*
X013444Y001696D01*
X013602Y001696D02*
X013602Y003687D01*
X013761Y003687D02*
X013761Y001696D01*
X013969Y001959D02*
X011247Y001959D01*
X011224Y002078D02*
X011224Y003952D01*
X011156Y004020D02*
X009689Y004020D01*
X009639Y004070D02*
X009639Y004816D01*
X009640Y004812D02*
X002667Y004812D01*
X002667Y004654D02*
X006212Y004654D01*
X006151Y004620D02*
X006151Y005743D01*
X006201Y005764D02*
X006866Y005764D01*
X006943Y005687D02*
X006943Y004611D01*
X006785Y004611D02*
X006785Y005845D01*
X006708Y005922D02*
X006395Y005922D01*
X006309Y005823D02*
X006309Y004689D01*
X006468Y004678D02*
X006468Y006163D01*
X006439Y006081D02*
X006549Y006081D01*
X006626Y006004D02*
X006626Y004611D01*
X006525Y004654D02*
X007893Y004654D01*
X007895Y004655D02*
X007895Y005301D01*
X008053Y005301D02*
X008053Y004689D01*
X008049Y004331D02*
X006368Y004331D01*
X006009Y004337D02*
X005966Y004337D01*
X005992Y004311D02*
X005992Y005751D01*
X005960Y005764D02*
X005233Y005764D01*
X005199Y005750D02*
X005199Y004587D01*
X005041Y004587D02*
X005041Y005744D01*
X004992Y005764D02*
X002667Y005764D01*
X002667Y005922D02*
X004798Y005922D01*
X004882Y005825D02*
X004882Y004587D01*
X004724Y004587D02*
X004724Y008937D01*
X004882Y008937D02*
X004882Y006380D01*
X004901Y006398D02*
X002667Y006398D01*
X002667Y006556D02*
X006258Y006556D01*
X006151Y006461D02*
X006151Y008937D01*
X006258Y008935D02*
X003734Y008935D01*
X003773Y008937D02*
X003773Y008896D01*
X003829Y008776D02*
X006258Y008776D01*
X006258Y008618D02*
X003895Y008618D01*
X003899Y008459D02*
X006258Y008459D01*
X006258Y008300D02*
X003897Y008300D01*
X003831Y008142D02*
X006258Y008142D01*
X006258Y007983D02*
X003739Y007983D01*
X003773Y008017D02*
X003773Y004587D01*
X003931Y004587D02*
X003931Y008937D01*
X004090Y008937D02*
X004090Y004587D01*
X004248Y004587D02*
X004248Y008937D01*
X004407Y008937D02*
X004407Y004587D01*
X004565Y004587D02*
X004565Y008937D01*
X005041Y008937D02*
X005041Y006461D01*
X005199Y006454D02*
X005199Y008937D01*
X005358Y008937D02*
X005358Y006364D01*
X005324Y006398D02*
X005869Y006398D01*
X005834Y006362D02*
X005834Y008937D01*
X005992Y008937D02*
X005992Y006454D01*
X006258Y006715D02*
X002667Y006715D01*
X002667Y006874D02*
X006258Y006874D01*
X006258Y007032D02*
X002667Y007032D01*
X002667Y007191D02*
X006258Y007191D01*
X006258Y007349D02*
X002667Y007349D01*
X002667Y007508D02*
X006258Y007508D01*
X006258Y007666D02*
X002667Y007666D01*
X002667Y007825D02*
X002707Y007825D01*
X002821Y007772D02*
X002821Y004569D01*
X002747Y004495D02*
X002667Y004495D01*
X002667Y004337D02*
X002675Y004337D01*
X002667Y004178D02*
X002675Y004178D01*
X002980Y004587D02*
X002980Y007707D01*
X003138Y007701D02*
X003138Y004587D01*
X003297Y004587D02*
X003297Y007702D01*
X003455Y007768D02*
X003455Y004587D01*
X003614Y004587D02*
X003614Y007858D01*
X003581Y007825D02*
X006258Y007825D01*
X006778Y007825D02*
X008861Y007825D01*
X008846Y007861D02*
X008846Y006988D01*
X008923Y006988D02*
X007501Y006988D01*
X007477Y007013D01*
X007345Y007067D01*
X007202Y007067D01*
X007070Y007013D01*
X006970Y006912D01*
X006915Y006780D01*
X006915Y006637D01*
X006970Y006505D01*
X007070Y006404D01*
X007202Y006350D01*
X007345Y006350D01*
X007477Y006404D01*
X007501Y006429D01*
X009087Y006429D01*
X009319Y006429D01*
X009483Y006593D01*
X009483Y007709D01*
X009507Y007734D01*
X009562Y007865D01*
X009562Y008008D01*
X009507Y008140D01*
X009406Y008241D01*
X009274Y008296D01*
X009131Y008296D01*
X009000Y008241D01*
X008899Y008140D01*
X008844Y008008D01*
X008844Y007865D01*
X008899Y007734D01*
X008923Y007709D01*
X008923Y006988D01*
X008923Y007032D02*
X007430Y007032D01*
X007419Y007037D02*
X007419Y009279D01*
X007578Y009279D02*
X007578Y006988D01*
X007736Y006988D02*
X007736Y009279D01*
X007895Y009279D02*
X007895Y006988D01*
X008053Y006988D02*
X008053Y009279D01*
X008212Y009279D02*
X008212Y006988D01*
X008370Y006988D02*
X008370Y009279D01*
X008529Y009279D02*
X008529Y006988D01*
X008687Y006988D02*
X008687Y009279D01*
X008846Y009279D02*
X008846Y008013D01*
X008844Y007983D02*
X006778Y007983D01*
X006778Y008142D02*
X008901Y008142D01*
X009004Y008243D02*
X009004Y009279D01*
X009163Y009279D02*
X009163Y008296D01*
X009322Y008276D02*
X009322Y009279D01*
X009480Y009279D02*
X009480Y008167D01*
X009505Y008142D02*
X012550Y008142D01*
X012550Y008300D02*
X006778Y008300D01*
X006778Y008459D02*
X012550Y008459D01*
X012602Y008618D02*
X006778Y008618D01*
X006778Y008776D02*
X012761Y008776D01*
X012809Y008825D02*
X012809Y009835D01*
X012651Y009835D02*
X012651Y008666D01*
X012920Y008935D02*
X006778Y008935D01*
X006778Y009093D02*
X013078Y009093D01*
X013127Y009142D02*
X013127Y009835D01*
X013285Y009835D02*
X013285Y009300D01*
X013237Y009252D02*
X006778Y009252D01*
X006785Y009279D02*
X006785Y006581D01*
X006809Y006556D02*
X006948Y006556D01*
X006943Y006569D02*
X006943Y006422D01*
X006968Y006398D02*
X007086Y006398D01*
X007102Y006391D02*
X007102Y006264D01*
X007126Y006239D02*
X015049Y006239D01*
X015049Y006081D02*
X007285Y006081D01*
X007260Y006105D02*
X007260Y006350D01*
X007419Y006380D02*
X007419Y005947D01*
X007443Y005922D02*
X009600Y005922D01*
X009639Y005961D02*
X009639Y006972D01*
X009597Y007032D02*
X009483Y007032D01*
X009483Y006874D02*
X015049Y006874D01*
X015049Y007032D02*
X013737Y007032D01*
X013737Y007191D02*
X015049Y007191D01*
X015049Y007349D02*
X013737Y007349D01*
X013737Y007508D02*
X015049Y007508D01*
X015049Y007666D02*
X013737Y007666D01*
X013643Y007825D02*
X015049Y007825D01*
X015049Y007983D02*
X013265Y007983D01*
X013285Y007847D02*
X013285Y008289D01*
X013296Y008300D02*
X015049Y008300D01*
X015029Y008442D02*
X015029Y005260D01*
X015049Y005288D02*
X013737Y005288D01*
X013761Y005260D02*
X013761Y008765D01*
X013772Y008776D02*
X014993Y008776D01*
X015029Y008857D02*
X015029Y009835D01*
X014871Y009835D02*
X014871Y005260D01*
X014712Y005260D02*
X014712Y009838D01*
X014664Y009886D02*
X014474Y009886D01*
X014474Y010044D02*
X014597Y010044D01*
X014597Y010203D02*
X014474Y010203D01*
X014474Y010361D02*
X014597Y010361D01*
X014597Y010520D02*
X014474Y010520D01*
X014474Y010679D02*
X014607Y010679D01*
X014712Y010784D02*
X014712Y010944D01*
X014668Y010996D02*
X014474Y010996D01*
X014474Y011154D02*
X014620Y011154D01*
X014643Y011313D02*
X014474Y011313D01*
X014474Y011471D02*
X014758Y011471D01*
X014712Y011426D02*
X014712Y011649D01*
X014871Y011646D02*
X014871Y011529D01*
X015029Y011544D02*
X015029Y011646D01*
X014718Y010837D02*
X014474Y010837D01*
X013759Y010837D02*
X003963Y010837D01*
X003963Y010679D02*
X004607Y010679D01*
X004565Y010571D02*
X004565Y013854D01*
X004407Y013854D02*
X004407Y010571D01*
X004248Y010571D02*
X004248Y013854D01*
X004090Y013854D02*
X004090Y010571D01*
X003963Y010996D02*
X013759Y010996D01*
X013759Y011154D02*
X003963Y011154D01*
X003963Y011313D02*
X013759Y011313D01*
X013759Y011471D02*
X003963Y011471D01*
X003963Y011630D02*
X013759Y011630D01*
X013602Y011646D02*
X013602Y010786D01*
X013444Y010786D02*
X013444Y011646D01*
X013285Y011646D02*
X013285Y010786D01*
X013127Y010786D02*
X013127Y011646D01*
X012968Y011646D02*
X012968Y010786D01*
X012809Y010786D02*
X012809Y011646D01*
X012651Y011646D02*
X012651Y010786D01*
X012492Y010786D02*
X012492Y011646D01*
X012334Y011646D02*
X012334Y010786D01*
X012175Y010767D02*
X012175Y011666D01*
X012017Y011764D02*
X012017Y010668D01*
X012087Y010679D02*
X011248Y010679D01*
X011224Y010702D02*
X011224Y011730D01*
X011383Y011764D02*
X011383Y010668D01*
X011541Y010668D02*
X011541Y011764D01*
X011700Y011764D02*
X011700Y010668D01*
X011858Y010668D02*
X011858Y011764D01*
X011858Y012479D02*
X011858Y013240D01*
X011929Y013215D02*
X005734Y013215D01*
X005675Y013095D02*
X005675Y012597D01*
X005834Y012597D02*
X005834Y013854D01*
X005992Y013854D02*
X005992Y012597D01*
X006151Y012587D02*
X006151Y013854D01*
X006309Y013854D02*
X006309Y012479D01*
X006468Y012479D02*
X006468Y013854D01*
X006493Y013849D02*
X005636Y013849D01*
X005675Y013854D02*
X005675Y013810D01*
X005734Y013691D02*
X006652Y013691D01*
X006626Y013717D02*
X006626Y012479D01*
X006785Y012479D02*
X006785Y013558D01*
X006810Y013532D02*
X005734Y013532D01*
X005734Y013374D02*
X006969Y013374D01*
X006943Y013399D02*
X006943Y012479D01*
X007102Y012505D02*
X007102Y013241D01*
X007260Y013240D02*
X007260Y012597D01*
X007178Y012581D02*
X006156Y012581D01*
X005597Y012740D02*
X012593Y012740D01*
X012593Y012898D02*
X005597Y012898D01*
X005637Y013057D02*
X012593Y013057D01*
X012593Y013215D02*
X012374Y013215D01*
X012334Y013187D02*
X012334Y012597D01*
X012178Y012581D02*
X011156Y012581D01*
X011066Y012597D02*
X011066Y013240D01*
X011224Y013240D02*
X011224Y012513D01*
X011383Y012479D02*
X011383Y013240D01*
X011541Y013240D02*
X011541Y012479D01*
X011700Y012479D02*
X011700Y013240D01*
X011700Y013760D02*
X011700Y014558D01*
X011858Y014558D02*
X011858Y013760D01*
X012017Y013832D02*
X012017Y014558D01*
X012151Y014484D02*
X011184Y014484D01*
X011224Y014524D02*
X011224Y013760D01*
X011066Y013760D02*
X011066Y014440D01*
X010907Y014440D02*
X010907Y013760D01*
X010748Y013760D02*
X010748Y014440D01*
X010590Y014440D02*
X010590Y013760D01*
X010431Y013760D02*
X010431Y014440D01*
X010273Y014440D02*
X010273Y013760D01*
X010114Y013760D02*
X010114Y014440D01*
X009956Y014440D02*
X009956Y013760D01*
X009797Y013760D02*
X009797Y014440D01*
X009670Y014484D02*
X004388Y014484D01*
X004407Y014374D02*
X004407Y016478D01*
X004388Y016386D02*
X009597Y016386D01*
X009639Y016326D02*
X009639Y015315D01*
X009600Y015276D02*
X004388Y015276D01*
X004388Y015118D02*
X009597Y015118D01*
X009597Y014959D02*
X004388Y014959D01*
X004388Y014801D02*
X009597Y014801D01*
X009597Y014642D02*
X004388Y014642D01*
X004565Y014374D02*
X004565Y016466D01*
X004724Y016466D02*
X004724Y014374D01*
X004882Y014374D02*
X004882Y016466D01*
X005041Y016466D02*
X005041Y014374D01*
X005199Y014374D02*
X005199Y016466D01*
X005358Y016466D02*
X005358Y014374D01*
X005516Y014374D02*
X005516Y016466D01*
X005675Y016466D02*
X005675Y014374D01*
X005834Y014374D02*
X005834Y016466D01*
X005992Y016466D02*
X005992Y014374D01*
X006151Y014374D02*
X006151Y016466D01*
X006309Y016466D02*
X006309Y014374D01*
X006468Y014374D02*
X006468Y016466D01*
X006626Y016466D02*
X006626Y014374D01*
X006753Y014325D02*
X012593Y014325D01*
X012492Y014440D02*
X012492Y013615D01*
X012461Y013691D02*
X012593Y013691D01*
X012593Y013849D02*
X012245Y013849D01*
X012175Y013859D02*
X012175Y014459D01*
X012334Y014440D02*
X012334Y013813D01*
X012058Y013849D02*
X007229Y013849D01*
X007260Y013818D02*
X007260Y016466D01*
X007102Y016466D02*
X007102Y013976D01*
X007070Y014008D02*
X012593Y014008D01*
X012593Y014167D02*
X006912Y014167D01*
X006943Y014135D02*
X006943Y016466D01*
X006785Y016466D02*
X006785Y014293D01*
X007419Y013760D02*
X007419Y016466D01*
X007578Y016466D02*
X007578Y013760D01*
X007736Y013760D02*
X007736Y016466D01*
X007895Y016466D02*
X007895Y013760D01*
X008053Y013760D02*
X008053Y016466D01*
X008212Y016466D02*
X008212Y013760D01*
X008370Y013760D02*
X008370Y016466D01*
X008529Y016466D02*
X008529Y013760D01*
X008687Y013760D02*
X008687Y016466D01*
X008846Y016466D02*
X008846Y013760D01*
X009004Y013760D02*
X009004Y016466D01*
X009163Y016466D02*
X009163Y013760D01*
X009322Y013760D02*
X009322Y016466D01*
X009480Y016466D02*
X009480Y013760D01*
X009639Y013760D02*
X009639Y014515D01*
X009797Y015391D02*
X009797Y016251D01*
X009956Y016251D02*
X009956Y015391D01*
X010114Y015391D02*
X010114Y016251D01*
X010273Y016251D02*
X010273Y015391D01*
X010431Y015391D02*
X010431Y016251D01*
X010590Y016251D02*
X010590Y015391D01*
X010748Y015391D02*
X010748Y016251D01*
X010907Y016251D02*
X010907Y015391D01*
X011066Y015391D02*
X011066Y016251D01*
X011224Y016335D02*
X011224Y015307D01*
X011254Y015276D02*
X012080Y015276D01*
X012017Y015273D02*
X012017Y016369D01*
X011858Y016369D02*
X011858Y015273D01*
X011700Y015273D02*
X011700Y016369D01*
X011541Y016369D02*
X011541Y015273D01*
X011383Y015273D02*
X011383Y016369D01*
X012175Y016270D02*
X012175Y015371D01*
X012334Y015391D02*
X012334Y016251D01*
X012492Y016251D02*
X012492Y015391D01*
X012651Y015391D02*
X012651Y016251D01*
X012809Y016251D02*
X012809Y015391D01*
X012968Y015391D02*
X012968Y016251D01*
X013127Y016251D02*
X013127Y015391D01*
X013285Y015391D02*
X013285Y016251D01*
X013444Y016251D02*
X013444Y015391D01*
X013602Y015391D02*
X013602Y016251D01*
X013737Y016386D02*
X013923Y016386D01*
X013923Y016228D02*
X004388Y016228D01*
X004388Y016069D02*
X013923Y016069D01*
X013923Y015911D02*
X004388Y015911D01*
X004388Y015752D02*
X013923Y015752D01*
X013923Y015593D02*
X004388Y015593D01*
X004388Y015435D02*
X013923Y015435D01*
X013923Y015276D02*
X013735Y015276D01*
X013737Y015118D02*
X013923Y015118D01*
X013923Y014959D02*
X013737Y014959D01*
X013737Y014801D02*
X013923Y014801D01*
X013923Y014642D02*
X013737Y014642D01*
X013664Y014484D02*
X013923Y014484D01*
X013923Y014325D02*
X013308Y014325D01*
X013308Y014167D02*
X013923Y014167D01*
X013923Y014008D02*
X013308Y014008D01*
X013308Y013849D02*
X013845Y013849D01*
X013850Y013691D02*
X013308Y013691D01*
X013308Y013532D02*
X013939Y013532D01*
X013919Y013552D02*
X013919Y012479D01*
X013761Y012479D02*
X013761Y017129D01*
X013737Y017020D02*
X013923Y017020D01*
X013919Y017129D02*
X013919Y013999D01*
X014203Y013775D02*
X014203Y017409D01*
X010408Y017409D01*
X008534Y017409D01*
X008534Y019283D01*
X008534Y019275D01*
X008534Y019272D01*
X008534Y019271D01*
X008534Y019283D01*
X008534Y019283D01*
X008534Y020559D01*
X010789Y022815D01*
X012211Y022815D01*
X012175Y023174D02*
X012175Y027350D01*
X012155Y027350D02*
X012216Y027350D01*
X012269Y027222D01*
X012313Y027178D01*
X012313Y023161D01*
X012282Y023174D01*
X012139Y023174D01*
X012007Y023119D01*
X011983Y023095D01*
X010905Y023095D01*
X010673Y023095D01*
X008418Y020839D01*
X008254Y020675D01*
X008254Y019566D01*
X008249Y019571D01*
X008249Y019962D01*
X008249Y020169D01*
X008103Y020316D01*
X007858Y020316D01*
X007849Y020325D01*
X007053Y020325D01*
X006936Y020207D01*
X006936Y019924D01*
X006936Y019727D01*
X006937Y019726D01*
X006882Y019726D01*
X006882Y020050D01*
X006882Y020257D01*
X005237Y021902D01*
X005237Y022671D01*
X005370Y022671D01*
X005487Y022789D01*
X005487Y023198D01*
X005370Y023315D01*
X004724Y023315D01*
X004724Y023420D01*
X004724Y023419D02*
X005370Y023419D01*
X005487Y023537D01*
X005487Y023946D01*
X005370Y024064D01*
X005367Y024064D01*
X005367Y025332D01*
X005216Y025483D01*
X005301Y025448D01*
X005443Y025448D01*
X005575Y025503D01*
X005599Y025527D01*
X006727Y025527D01*
X006631Y025431D01*
X006631Y024556D01*
X006748Y024439D01*
X007524Y024439D01*
X007641Y024556D01*
X007641Y024713D01*
X008098Y024713D01*
X008262Y024877D01*
X008262Y025109D01*
X008262Y025527D01*
X008310Y025527D01*
X008335Y025502D01*
X008466Y025448D01*
X008609Y025448D01*
X008741Y025502D01*
X008842Y025603D01*
X008897Y025735D01*
X008897Y025878D01*
X008842Y026010D01*
X008741Y026111D01*
X008609Y026165D01*
X008466Y026165D01*
X008335Y026111D01*
X008311Y026087D01*
X007866Y026087D01*
X006091Y026087D01*
X006109Y026129D01*
X006109Y026149D01*
X006113Y026149D01*
X006245Y026204D01*
X006346Y026304D01*
X006400Y026436D01*
X006400Y026448D01*
X006428Y026448D01*
X006560Y026503D01*
X006660Y026604D01*
X006715Y026736D01*
X006715Y026878D01*
X006660Y027010D01*
X006560Y027111D01*
X006428Y027166D01*
X006365Y027166D01*
X005337Y028194D01*
X005337Y028204D01*
X005450Y028157D01*
X005593Y028157D01*
X005725Y028211D01*
X005736Y028223D01*
X005748Y028211D01*
X005879Y028157D01*
X006022Y028157D01*
X006154Y028211D01*
X006163Y028221D01*
X006212Y028172D01*
X006344Y028117D01*
X006487Y028117D01*
X006619Y028172D01*
X006656Y028209D01*
X006693Y028172D01*
X006824Y028117D01*
X006967Y028117D01*
X007099Y028172D01*
X007112Y028185D01*
X007126Y028172D01*
X007257Y028117D01*
X007400Y028117D01*
X007532Y028172D01*
X007633Y028273D01*
X007688Y028405D01*
X007688Y028406D01*
X007729Y028304D01*
X007830Y028204D01*
X007962Y028149D01*
X008028Y028149D01*
X008665Y027524D01*
X008741Y027449D01*
X008742Y027449D01*
X008956Y027449D01*
X011979Y027449D01*
X012023Y027404D01*
X012155Y027350D01*
X012226Y027326D02*
X006205Y027326D01*
X006151Y027380D02*
X006151Y028210D01*
X005992Y028157D02*
X005992Y027539D01*
X006047Y027484D02*
X008705Y027484D01*
X008687Y027502D02*
X008687Y026133D01*
X008794Y026057D02*
X010137Y026057D01*
X010114Y026035D02*
X010114Y027449D01*
X009956Y027449D02*
X009956Y025876D01*
X009978Y025899D02*
X008888Y025899D01*
X008846Y026000D02*
X008846Y027449D01*
X009004Y027449D02*
X009004Y024925D01*
X009027Y024947D02*
X008262Y024947D01*
X008212Y024827D02*
X008212Y024132D01*
X008234Y024155D02*
X006353Y024155D01*
X006372Y024114D02*
X007278Y024114D01*
X007260Y023839D02*
X007260Y024439D01*
X007102Y024439D02*
X007102Y023839D01*
X006980Y023839D02*
X006863Y023722D01*
X006863Y023655D01*
X006601Y023655D01*
X006601Y023946D01*
X006484Y024064D01*
X006353Y024064D01*
X006353Y024297D01*
X006317Y024332D01*
X006317Y024366D01*
X006263Y024498D01*
X006162Y024599D01*
X006030Y024654D01*
X005887Y024654D01*
X005756Y024599D01*
X005655Y024498D01*
X005600Y024366D01*
X005600Y024224D01*
X005655Y024092D01*
X005756Y023991D01*
X005763Y023988D01*
X005721Y023946D01*
X005721Y023572D01*
X005721Y023198D01*
X005721Y022789D01*
X005838Y022671D01*
X005862Y022671D01*
X005862Y022629D01*
X005881Y022610D01*
X005776Y022505D01*
X005776Y021749D01*
X005893Y021632D01*
X006019Y021632D01*
X006019Y021429D01*
X006183Y021265D01*
X006599Y021265D01*
X006599Y021245D01*
X006716Y021128D01*
X007276Y021128D01*
X007331Y021183D01*
X007386Y021128D01*
X007945Y021128D01*
X008062Y021245D01*
X008062Y021285D01*
X008148Y021285D01*
X008363Y021285D01*
X010665Y023586D01*
X010817Y023739D01*
X010817Y025363D01*
X010861Y025407D01*
X010916Y025539D01*
X010916Y025681D01*
X010861Y025813D01*
X010760Y025914D01*
X010738Y025923D01*
X010976Y026161D01*
X011128Y026313D01*
X011128Y026619D01*
X011172Y026663D01*
X011227Y026795D01*
X011227Y026937D01*
X011172Y027069D01*
X011071Y027170D01*
X010940Y027225D01*
X010797Y027225D01*
X010665Y027170D01*
X010564Y027069D01*
X010509Y026937D01*
X010509Y026795D01*
X010564Y026663D01*
X010608Y026619D01*
X010608Y026529D01*
X007782Y023702D01*
X007696Y023702D01*
X007696Y023722D01*
X007579Y023839D01*
X006980Y023839D01*
X006979Y023838D02*
X006601Y023838D01*
X006601Y023679D02*
X006863Y023679D01*
X006785Y023655D02*
X006785Y024439D01*
X006715Y024472D02*
X006274Y024472D01*
X006309Y024386D02*
X006309Y025527D01*
X006151Y025527D02*
X006151Y024604D01*
X006087Y024630D02*
X006631Y024630D01*
X006631Y024789D02*
X005367Y024789D01*
X005367Y024947D02*
X006631Y024947D01*
X006631Y025106D02*
X005367Y025106D01*
X005367Y025265D02*
X006631Y025265D01*
X006631Y025423D02*
X005276Y025423D01*
X005358Y025448D02*
X005358Y025341D01*
X005516Y025478D02*
X005516Y021622D01*
X005521Y021618D02*
X006019Y021618D01*
X005992Y021632D02*
X005992Y021147D01*
X005996Y021142D02*
X006702Y021142D01*
X006785Y021128D02*
X006785Y020354D01*
X006789Y020350D02*
X008254Y020350D01*
X008212Y020207D02*
X008212Y021285D01*
X008370Y021292D02*
X008370Y020792D01*
X008404Y020825D02*
X006313Y020825D01*
X006309Y020830D02*
X006309Y021265D01*
X006468Y021265D02*
X006468Y020671D01*
X006472Y020667D02*
X008254Y020667D01*
X008254Y020508D02*
X006631Y020508D01*
X006626Y020513D02*
X006626Y021218D01*
X006299Y021545D02*
X006299Y022127D01*
X006232Y022127D01*
X006299Y022127D02*
X006299Y022155D01*
X006142Y022745D02*
X007008Y022745D01*
X007008Y022797D01*
X007020Y022797D01*
X007677Y022797D01*
X007677Y022812D01*
X007681Y022812D01*
X007677Y022812D02*
X007677Y022824D01*
X007736Y022416D02*
X007736Y021961D01*
X007578Y021961D02*
X007578Y022416D01*
X007436Y022407D02*
X007428Y022416D01*
X007980Y022416D01*
X008098Y022533D01*
X008098Y023092D01*
X008002Y023187D01*
X010244Y025429D01*
X010253Y025407D01*
X010297Y025363D01*
X010297Y023954D01*
X008148Y021805D01*
X008062Y021805D01*
X008062Y021844D01*
X007945Y021961D01*
X007436Y021961D01*
X007436Y022407D01*
X007432Y022411D02*
X008754Y022411D01*
X008687Y022344D02*
X008687Y023873D01*
X008652Y023838D02*
X010181Y023838D01*
X010114Y023771D02*
X010114Y025299D01*
X010079Y025265D02*
X010297Y025265D01*
X010273Y025387D02*
X010273Y023930D01*
X010297Y023996D02*
X008811Y023996D01*
X008846Y024031D02*
X008846Y022503D01*
X008913Y022569D02*
X008098Y022569D01*
X008053Y022488D02*
X008053Y021853D01*
X007971Y021935D02*
X008278Y021935D01*
X008212Y021869D02*
X008212Y023397D01*
X008177Y023362D02*
X009705Y023362D01*
X009639Y023295D02*
X009639Y024824D01*
X009604Y024789D02*
X010297Y024789D01*
X010297Y024947D02*
X009762Y024947D01*
X009797Y024982D02*
X009797Y023454D01*
X009864Y023521D02*
X008335Y023521D01*
X008370Y023556D02*
X008370Y022027D01*
X008437Y022094D02*
X007436Y022094D01*
X007436Y022252D02*
X008595Y022252D01*
X008529Y022186D02*
X008529Y023714D01*
X008494Y023679D02*
X010022Y023679D01*
X009956Y023613D02*
X009956Y025141D01*
X009921Y025106D02*
X010297Y025106D01*
X010246Y025423D02*
X010238Y025423D01*
X009820Y025740D02*
X008897Y025740D01*
X008846Y025613D02*
X008846Y024766D01*
X008868Y024789D02*
X008174Y024789D01*
X008053Y024713D02*
X008053Y023974D01*
X008076Y023996D02*
X006552Y023996D01*
X006468Y024064D02*
X006468Y025527D01*
X006626Y025527D02*
X006626Y023655D01*
X006372Y024114D02*
X006372Y024993D01*
X006063Y024993D01*
X006211Y024993D01*
X006063Y024993D02*
X005551Y024993D01*
X005551Y023415D01*
X005551Y022155D01*
X005551Y022127D01*
X005563Y022127D01*
X005776Y022094D02*
X005237Y022094D01*
X005237Y022252D02*
X005776Y022252D01*
X005776Y022411D02*
X005237Y022411D01*
X005237Y022569D02*
X005840Y022569D01*
X005834Y022563D02*
X005834Y022676D01*
X005782Y022728D02*
X005427Y022728D01*
X005358Y022671D02*
X005358Y021781D01*
X005362Y021777D02*
X005776Y021777D01*
X005834Y021692D02*
X005834Y021305D01*
X005838Y021301D02*
X006147Y021301D01*
X006151Y021297D02*
X006151Y020988D01*
X006155Y020984D02*
X008563Y020984D01*
X008529Y020950D02*
X008529Y021450D01*
X008538Y021460D02*
X009038Y021460D01*
X009004Y021426D02*
X009004Y021926D01*
X009014Y021935D02*
X009514Y021935D01*
X009480Y021901D02*
X009480Y022402D01*
X009489Y022411D02*
X009989Y022411D01*
X009956Y022377D02*
X009956Y022877D01*
X009965Y022886D02*
X010465Y022886D01*
X010431Y022853D02*
X010431Y023353D01*
X010441Y023362D02*
X012313Y023362D01*
X012313Y023204D02*
X010282Y023204D01*
X010273Y023194D02*
X010273Y022694D01*
X010307Y022728D02*
X009806Y022728D01*
X009797Y022719D02*
X009797Y022218D01*
X009831Y022252D02*
X009331Y022252D01*
X009322Y022243D02*
X009322Y021743D01*
X009355Y021777D02*
X008855Y021777D01*
X008846Y021767D02*
X008846Y021267D01*
X008880Y021301D02*
X008380Y021301D01*
X008053Y021236D02*
X008053Y020316D01*
X007895Y020316D02*
X007895Y021128D01*
X007959Y021142D02*
X008721Y021142D01*
X008687Y021109D02*
X008687Y021609D01*
X008697Y021618D02*
X009197Y021618D01*
X009163Y021584D02*
X009163Y022084D01*
X009172Y022094D02*
X009672Y022094D01*
X009639Y022060D02*
X009639Y022560D01*
X009648Y022569D02*
X010148Y022569D01*
X010114Y022536D02*
X010114Y023036D01*
X010124Y023045D02*
X010624Y023045D01*
X010590Y023011D02*
X010590Y023511D01*
X010599Y023521D02*
X012313Y023521D01*
X012313Y023679D02*
X010758Y023679D01*
X010748Y023670D02*
X010748Y023095D01*
X010907Y023095D02*
X010907Y025517D01*
X010916Y025582D02*
X012313Y025582D01*
X012313Y025740D02*
X010892Y025740D01*
X010907Y025703D02*
X010907Y026092D01*
X010872Y026057D02*
X012313Y026057D01*
X012313Y025899D02*
X010776Y025899D01*
X010748Y025919D02*
X010748Y025934D01*
X011031Y026216D02*
X012313Y026216D01*
X012313Y026374D02*
X011128Y026374D01*
X011066Y026251D02*
X011066Y023095D01*
X011224Y023095D02*
X011224Y026788D01*
X011227Y026850D02*
X012313Y026850D01*
X012313Y026691D02*
X011184Y026691D01*
X011128Y026533D02*
X012313Y026533D01*
X012313Y027009D02*
X011197Y027009D01*
X011224Y026944D02*
X011224Y027449D01*
X011066Y027449D02*
X011066Y027172D01*
X011074Y027167D02*
X012313Y027167D01*
X012017Y027411D02*
X012017Y023123D01*
X011858Y023095D02*
X011858Y027449D01*
X011700Y027449D02*
X011700Y023095D01*
X011541Y023095D02*
X011541Y027449D01*
X011383Y027449D02*
X011383Y023095D01*
X010817Y023838D02*
X012313Y023838D01*
X012313Y023996D02*
X010817Y023996D01*
X010817Y024155D02*
X012313Y024155D01*
X012313Y024313D02*
X010817Y024313D01*
X010817Y024472D02*
X012313Y024472D01*
X012313Y024630D02*
X010817Y024630D01*
X010817Y024789D02*
X012313Y024789D01*
X012313Y024947D02*
X010817Y024947D01*
X010817Y025106D02*
X012313Y025106D01*
X012313Y025265D02*
X010817Y025265D01*
X010868Y025423D02*
X012313Y025423D01*
X013592Y026632D02*
X013593Y028541D01*
X014057Y029005D01*
X014057Y028968D01*
X014111Y028836D01*
X014180Y028767D01*
X014180Y027834D01*
X014180Y027639D01*
X014908Y026911D01*
X014872Y026823D01*
X014872Y026680D01*
X014926Y026549D01*
X014970Y026504D01*
X014970Y026457D01*
X014884Y026492D01*
X014742Y026492D01*
X014639Y026450D01*
X014639Y026571D01*
X014522Y026688D01*
X013648Y026688D01*
X013592Y026632D01*
X013602Y026643D02*
X013602Y028551D01*
X013646Y028594D02*
X014180Y028594D01*
X014180Y028753D02*
X013804Y028753D01*
X013761Y028709D02*
X013761Y026688D01*
X013919Y026688D02*
X013919Y028868D01*
X013963Y028911D02*
X014080Y028911D01*
X014078Y028917D02*
X014078Y026688D01*
X014236Y026688D02*
X014236Y027582D01*
X014180Y027643D02*
X013592Y027643D01*
X013593Y027801D02*
X014180Y027801D01*
X014180Y027960D02*
X013593Y027960D01*
X013593Y028118D02*
X014180Y028118D01*
X014180Y028277D02*
X013593Y028277D01*
X013593Y028435D02*
X014180Y028435D01*
X014334Y027484D02*
X013592Y027484D01*
X013592Y027326D02*
X014493Y027326D01*
X014553Y027265D02*
X014553Y026656D01*
X014639Y026533D02*
X014942Y026533D01*
X014871Y026492D02*
X014871Y026948D01*
X014810Y027009D02*
X013592Y027009D01*
X013592Y027167D02*
X014651Y027167D01*
X014712Y027107D02*
X014712Y026480D01*
X014872Y026691D02*
X013592Y026691D01*
X013592Y026850D02*
X014883Y026850D01*
X014395Y026688D02*
X014395Y027424D01*
X015143Y027601D02*
X015143Y027745D01*
X015147Y027743D01*
X015244Y027743D01*
X015318Y027670D01*
X016427Y027670D01*
X016496Y027601D01*
X016628Y027547D01*
X016770Y027547D01*
X016902Y027601D01*
X016971Y027670D01*
X018192Y027670D01*
X018387Y027670D01*
X018460Y027743D01*
X018558Y027743D01*
X018689Y027798D01*
X018790Y027899D01*
X018845Y028031D01*
X018845Y028174D01*
X018790Y028305D01*
X018689Y028406D01*
X018558Y028461D01*
X018415Y028461D01*
X018283Y028406D01*
X018182Y028305D01*
X018128Y028174D01*
X018128Y028141D01*
X016971Y028141D01*
X016902Y028209D01*
X016770Y028264D01*
X016628Y028264D01*
X016496Y028209D01*
X016427Y028141D01*
X015577Y028141D01*
X015577Y028174D01*
X015523Y028305D01*
X015422Y028406D01*
X015290Y028461D01*
X015147Y028461D01*
X015143Y028459D01*
X015143Y028704D01*
X015212Y028773D01*
X015266Y028905D01*
X015266Y029048D01*
X015212Y029179D01*
X015111Y029280D01*
X014979Y029335D01*
X014836Y029335D01*
X014704Y029280D01*
X014693Y029269D01*
X014619Y029343D01*
X014487Y029398D01*
X014344Y029398D01*
X014310Y029384D01*
X014310Y030268D01*
X014329Y030268D01*
X014446Y030385D01*
X014446Y030938D01*
X015029Y030938D01*
X015029Y029314D01*
X015163Y029228D02*
X015415Y029228D01*
X015399Y029267D02*
X015454Y029135D01*
X015555Y029034D01*
X015687Y028980D01*
X015829Y028980D01*
X015961Y029034D01*
X016030Y029103D01*
X016370Y029103D01*
X016308Y029042D01*
X016254Y028910D01*
X016254Y028767D01*
X016308Y028635D01*
X016409Y028534D01*
X016541Y028480D01*
X016684Y028480D01*
X016815Y028534D01*
X016884Y028603D01*
X017612Y028603D01*
X017681Y028534D01*
X017813Y028480D01*
X017955Y028480D01*
X018087Y028534D01*
X018188Y028635D01*
X018243Y028767D01*
X018243Y028910D01*
X018188Y029042D01*
X018127Y029103D01*
X018889Y029103D01*
X018786Y029000D01*
X018786Y028401D01*
X018903Y028284D01*
X019463Y028284D01*
X019558Y028379D01*
X019562Y028375D01*
X019710Y028375D01*
X019779Y028306D01*
X019911Y028251D01*
X020054Y028251D01*
X020105Y028273D01*
X020105Y027784D01*
X020036Y027715D01*
X019982Y027583D01*
X019982Y027440D01*
X020036Y027308D01*
X020137Y027208D01*
X020269Y027153D01*
X020412Y027153D01*
X020544Y027208D01*
X020645Y027308D01*
X020699Y027440D01*
X020699Y027583D01*
X020645Y027715D01*
X020576Y027784D01*
X020576Y028855D01*
X020576Y029050D01*
X019844Y029782D01*
X019649Y029782D01*
X019261Y029782D01*
X019261Y029886D01*
X019364Y029886D01*
X019482Y030004D01*
X019482Y030760D01*
X019427Y030815D01*
X019482Y030870D01*
X019482Y031626D01*
X019415Y031693D01*
X019482Y031759D01*
X019482Y032516D01*
X019419Y032579D01*
X019529Y032689D01*
X019529Y033532D01*
X020030Y033532D01*
X020147Y033649D01*
X020147Y034406D01*
X020030Y034523D01*
X019971Y034523D01*
X019971Y035108D01*
X019971Y035340D01*
X018754Y036557D01*
X018590Y036721D01*
X015386Y036721D01*
X015530Y036864D01*
X015530Y037245D01*
X015260Y037515D01*
X014879Y037515D01*
X014610Y037245D01*
X014610Y036864D01*
X014789Y036685D01*
X014789Y036561D01*
X014785Y036557D01*
X014785Y036553D01*
X011996Y033764D01*
X011110Y033764D01*
X010513Y033764D01*
X010489Y033788D01*
X010444Y033807D01*
X011366Y034728D01*
X011518Y034880D01*
X011518Y037127D01*
X011537Y037127D01*
X011606Y037196D01*
X011606Y036652D01*
X011723Y036535D01*
X012283Y036535D01*
X012400Y036652D01*
X012400Y037242D01*
X012402Y037244D01*
X012402Y037961D01*
X012285Y038078D01*
X011996Y038078D01*
X012028Y038110D01*
X012028Y038208D01*
X013036Y038208D01*
X013804Y037440D01*
X013610Y037245D01*
X013610Y036864D01*
X013879Y036595D01*
X014260Y036595D01*
X014530Y036864D01*
X014530Y037245D01*
X014329Y037446D01*
X014329Y037651D01*
X013251Y038728D01*
X013036Y038728D01*
X012028Y038728D01*
X012028Y038736D01*
X020707Y038736D01*
X020707Y025456D01*
X020593Y025570D01*
X020484Y025570D01*
X020518Y025653D01*
X020518Y025796D01*
X020464Y025927D01*
X020363Y026028D01*
X020231Y026083D01*
X020088Y026083D01*
X019956Y026028D01*
X019855Y025927D01*
X019801Y025796D01*
X019801Y025653D01*
X019835Y025570D01*
X019718Y025570D01*
X019667Y025519D01*
X018915Y025519D01*
X018798Y025402D01*
X018798Y024732D01*
X018798Y024055D01*
X018915Y023938D01*
X019009Y023938D01*
X019009Y022482D01*
X017939Y021411D01*
X017939Y021179D01*
X017939Y018109D01*
X017914Y018085D01*
X017860Y017953D01*
X017860Y017810D01*
X017914Y017679D01*
X017939Y017654D01*
X017939Y017617D01*
X017821Y017666D01*
X017679Y017666D01*
X017547Y017611D01*
X017446Y017510D01*
X017391Y017378D01*
X017391Y017236D01*
X017446Y017104D01*
X017500Y017050D01*
X017500Y015710D01*
X017446Y015656D01*
X017391Y015524D01*
X017391Y015381D01*
X017446Y015249D01*
X017547Y015148D01*
X017679Y015094D01*
X017821Y015094D01*
X017943Y015144D01*
X017943Y014055D01*
X017568Y014055D01*
X017544Y014080D01*
X017412Y014134D01*
X017269Y014134D01*
X017222Y014114D01*
X017222Y019178D01*
X017226Y019182D01*
X017226Y021891D01*
X018415Y023079D01*
X018415Y023274D01*
X018415Y026042D01*
X018277Y026180D01*
X018198Y026259D01*
X018198Y026736D01*
X018267Y026804D01*
X018272Y026818D01*
X018757Y026333D01*
X018757Y026236D01*
X018812Y026104D01*
X018913Y026003D01*
X019045Y025948D01*
X019188Y025948D01*
X019319Y026003D01*
X019420Y026104D01*
X019475Y026236D01*
X019475Y026378D01*
X019420Y026510D01*
X019319Y026611D01*
X019188Y026666D01*
X019090Y026666D01*
X018387Y027369D01*
X018387Y027373D01*
X018249Y027511D01*
X018054Y027511D01*
X015233Y027511D01*
X015143Y027601D01*
X015143Y027643D02*
X016454Y027643D01*
X016456Y027641D02*
X016456Y027511D01*
X016297Y027511D02*
X016297Y027670D01*
X016139Y027670D02*
X016139Y027511D01*
X015980Y027511D02*
X015980Y027670D01*
X015822Y027670D02*
X015822Y027511D01*
X015663Y027511D02*
X015663Y027670D01*
X015505Y027670D02*
X015505Y027511D01*
X015346Y027511D02*
X015346Y027670D01*
X015188Y027743D02*
X015188Y027557D01*
X015663Y028141D02*
X015663Y028989D01*
X015822Y028980D02*
X015822Y028141D01*
X015980Y028141D02*
X015980Y029054D01*
X015996Y029070D02*
X016336Y029070D01*
X016297Y029103D02*
X016297Y029016D01*
X016254Y028911D02*
X015266Y028911D01*
X015257Y029070D02*
X015519Y029070D01*
X015505Y029084D02*
X015505Y028323D01*
X015534Y028277D02*
X018170Y028277D01*
X018200Y028323D02*
X018200Y028664D01*
X018147Y028594D02*
X018786Y028594D01*
X018786Y028753D02*
X018237Y028753D01*
X018242Y028911D02*
X018786Y028911D01*
X018834Y029048D02*
X018834Y029103D01*
X018856Y029070D02*
X018160Y029070D01*
X018200Y029103D02*
X018200Y029013D01*
X018359Y029103D02*
X018359Y028438D01*
X018353Y028435D02*
X015351Y028435D01*
X015346Y028438D02*
X015346Y036161D01*
X015188Y036161D02*
X015188Y029203D01*
X015399Y029267D02*
X015399Y029410D01*
X015454Y029542D01*
X015469Y029557D01*
X015458Y029568D01*
X015403Y029700D01*
X015403Y029843D01*
X015458Y029975D01*
X015559Y030076D01*
X015691Y030130D01*
X015833Y030130D01*
X015956Y030079D01*
X015946Y030102D01*
X015946Y030244D01*
X016001Y030376D01*
X016102Y030477D01*
X016234Y030532D01*
X016377Y030532D01*
X016508Y030477D01*
X016609Y030376D01*
X016664Y030244D01*
X016664Y030147D01*
X016710Y030101D01*
X016745Y030101D01*
X016730Y030137D01*
X016730Y030280D01*
X016785Y030412D01*
X016885Y030513D01*
X017017Y030567D01*
X017114Y030567D01*
X017216Y030668D01*
X017411Y030668D01*
X017541Y030668D01*
X017610Y030737D01*
X017742Y030792D01*
X017884Y030792D01*
X017952Y030764D01*
X017952Y033650D01*
X017034Y034568D01*
X017034Y034763D01*
X017034Y035200D01*
X016966Y035269D01*
X016911Y035401D01*
X016911Y035544D01*
X016966Y035675D01*
X017067Y035776D01*
X017198Y035831D01*
X017341Y035831D01*
X017473Y035776D01*
X017574Y035675D01*
X017628Y035544D01*
X017628Y035401D01*
X017574Y035269D01*
X017505Y035200D01*
X017505Y034763D01*
X018285Y033983D01*
X018422Y033845D01*
X018422Y030421D01*
X018491Y030353D01*
X018546Y030221D01*
X018546Y030101D01*
X018570Y030101D01*
X018570Y030760D01*
X018625Y030815D01*
X018570Y030870D01*
X018570Y031626D01*
X018637Y031693D01*
X018570Y031759D01*
X018570Y032516D01*
X018631Y032577D01*
X018519Y032689D01*
X018519Y033563D01*
X018585Y033630D01*
X018566Y033649D01*
X018566Y034254D01*
X018328Y034254D01*
X018029Y034378D01*
X017800Y034607D01*
X017676Y034907D01*
X017676Y035231D01*
X017800Y035530D01*
X018029Y035759D01*
X018328Y035883D01*
X018636Y035883D01*
X018359Y036161D01*
X018359Y035883D01*
X018517Y035883D02*
X018517Y036002D01*
X018474Y036046D02*
X015070Y036046D01*
X015029Y036005D02*
X015029Y031732D01*
X014431Y031732D01*
X014380Y031681D01*
X014329Y031731D01*
X013731Y031731D01*
X013614Y031614D01*
X013584Y031614D01*
X013560Y031639D01*
X013428Y031693D01*
X013285Y031693D01*
X013285Y034261D01*
X013326Y034302D02*
X017300Y034302D01*
X017249Y034353D02*
X017249Y032845D01*
X017254Y032845D02*
X017204Y032845D01*
X017066Y032708D01*
X016835Y032477D01*
X016738Y032477D01*
X016606Y032422D01*
X016505Y032321D01*
X016450Y032189D01*
X016450Y032047D01*
X016505Y031915D01*
X016606Y031814D01*
X016738Y031759D01*
X016880Y031759D01*
X017012Y031814D01*
X017113Y031915D01*
X017168Y032047D01*
X017168Y032144D01*
X017328Y032304D01*
X017454Y032251D01*
X017597Y032251D01*
X017729Y032306D01*
X017830Y032407D01*
X017884Y032539D01*
X017884Y032681D01*
X017830Y032813D01*
X017729Y032914D01*
X017597Y032969D01*
X017454Y032969D01*
X017322Y032914D01*
X017254Y032845D01*
X017283Y032875D02*
X010565Y032875D01*
X010565Y033033D02*
X017952Y033033D01*
X017952Y032875D02*
X017768Y032875D01*
X017724Y032916D02*
X017724Y033878D01*
X017776Y033826D02*
X012850Y033826D01*
X012809Y033785D02*
X012809Y028355D01*
X012734Y028430D02*
X012734Y028430D01*
X013033Y028132D01*
X013033Y028613D01*
X013033Y028773D01*
X013750Y029490D01*
X013750Y030268D01*
X013731Y030268D01*
X013613Y030385D01*
X013613Y030945D01*
X013668Y031000D01*
X013614Y031054D01*
X013583Y031054D01*
X013560Y031030D01*
X013428Y030976D01*
X013285Y030976D01*
X013285Y029025D01*
X013329Y029070D02*
X010118Y029070D01*
X010114Y029066D02*
X010114Y028583D01*
X009956Y028583D02*
X009956Y028907D01*
X009960Y028911D02*
X013171Y028911D01*
X013127Y028867D02*
X013127Y031057D01*
X013153Y031030D02*
X013285Y030976D01*
X013153Y031030D02*
X013052Y031131D01*
X012998Y031263D01*
X012998Y031406D01*
X013052Y031538D01*
X013153Y031639D01*
X013285Y031693D01*
X013444Y031687D02*
X013444Y034420D01*
X013484Y034460D02*
X017142Y034460D01*
X017090Y034512D02*
X017090Y032732D01*
X017074Y032716D02*
X010565Y032716D01*
X010565Y032558D02*
X016916Y032558D01*
X016932Y032573D02*
X016932Y035351D01*
X016911Y035411D02*
X014435Y035411D01*
X014395Y035371D02*
X014395Y031696D01*
X014553Y031732D02*
X014553Y035529D01*
X014594Y035570D02*
X016922Y035570D01*
X016932Y035593D02*
X016932Y036161D01*
X017090Y036161D02*
X017090Y035786D01*
X017019Y035728D02*
X014753Y035728D01*
X014712Y035688D02*
X014712Y031732D01*
X014871Y031732D02*
X014871Y035846D01*
X014911Y035887D02*
X018632Y035887D01*
X018993Y036319D02*
X018993Y037175D01*
X018973Y037155D02*
X020707Y037155D01*
X020707Y036997D02*
X015530Y036997D01*
X015530Y037155D02*
X018008Y037155D01*
X018029Y037134D02*
X018328Y037010D01*
X018653Y037010D01*
X018952Y037134D01*
X019181Y037363D01*
X019305Y037662D01*
X019305Y037987D01*
X019181Y038286D01*
X018952Y038515D01*
X018653Y038639D01*
X018328Y038639D01*
X018029Y038515D01*
X017800Y038286D01*
X017676Y037987D01*
X017676Y037662D01*
X017800Y037363D01*
X018029Y037134D01*
X018041Y037129D02*
X018041Y036721D01*
X017883Y036721D02*
X017883Y037280D01*
X017849Y037314D02*
X015461Y037314D01*
X015505Y037271D02*
X015505Y038736D01*
X015663Y038736D02*
X015663Y036721D01*
X015505Y036721D02*
X015505Y036839D01*
X015504Y036838D02*
X020707Y036838D01*
X020707Y036680D02*
X018631Y036680D01*
X018676Y036636D02*
X018676Y037019D01*
X018517Y037010D02*
X018517Y036721D01*
X018359Y036721D02*
X018359Y037010D01*
X018200Y037063D02*
X018200Y036721D01*
X018474Y036441D02*
X015069Y036441D01*
X015065Y036441D01*
X015069Y036441D02*
X015069Y037051D01*
X015070Y037052D01*
X015070Y037055D01*
X015346Y037429D02*
X015346Y038736D01*
X015188Y038736D02*
X015188Y037515D01*
X015303Y037472D02*
X017755Y037472D01*
X017724Y037546D02*
X017724Y036721D01*
X017566Y036721D02*
X017566Y038736D01*
X017724Y038736D02*
X017724Y038104D01*
X017726Y038107D02*
X013873Y038107D01*
X013919Y038060D02*
X013919Y038736D01*
X013761Y038736D02*
X013761Y038219D01*
X013715Y038265D02*
X017791Y038265D01*
X017883Y038369D02*
X017883Y038736D01*
X018041Y038736D02*
X018041Y038520D01*
X017938Y038424D02*
X013556Y038424D01*
X013602Y038378D02*
X013602Y038736D01*
X013444Y038736D02*
X013444Y038536D01*
X013398Y038582D02*
X018191Y038582D01*
X018200Y038586D02*
X018200Y038736D01*
X018359Y038736D02*
X018359Y038639D01*
X018517Y038639D02*
X018517Y038736D01*
X018676Y038736D02*
X018676Y038630D01*
X018790Y038582D02*
X020707Y038582D01*
X020707Y038424D02*
X019044Y038424D01*
X018993Y038474D02*
X018993Y038736D01*
X019151Y038736D02*
X019151Y038316D01*
X019190Y038265D02*
X020707Y038265D01*
X020707Y038107D02*
X019255Y038107D01*
X019305Y037948D02*
X020707Y037948D01*
X020707Y037789D02*
X019305Y037789D01*
X019292Y037631D02*
X020707Y037631D01*
X020707Y037472D02*
X019226Y037472D01*
X019151Y037333D02*
X019151Y036160D01*
X019107Y036204D02*
X020707Y036204D01*
X020707Y036046D02*
X019266Y036046D01*
X019310Y036001D02*
X019310Y038736D01*
X019468Y038736D02*
X019468Y035843D01*
X019424Y035887D02*
X020707Y035887D01*
X020707Y035728D02*
X019583Y035728D01*
X019627Y035684D02*
X019627Y038736D01*
X019785Y038736D02*
X019785Y035526D01*
X019741Y035570D02*
X020707Y035570D01*
X020707Y035411D02*
X019900Y035411D01*
X019944Y035367D02*
X019944Y038736D01*
X020102Y038736D02*
X020102Y034450D01*
X020092Y034460D02*
X020707Y034460D01*
X020707Y034302D02*
X020147Y034302D01*
X020147Y034143D02*
X020707Y034143D01*
X020707Y033984D02*
X020147Y033984D01*
X020147Y033826D02*
X020707Y033826D01*
X020707Y033667D02*
X020147Y033667D01*
X020102Y033605D02*
X020102Y029524D01*
X020081Y029545D02*
X020707Y029545D01*
X020707Y029387D02*
X020239Y029387D01*
X020261Y029365D02*
X020261Y038736D01*
X020420Y038736D02*
X020420Y029207D01*
X020398Y029228D02*
X020707Y029228D01*
X020707Y029070D02*
X020556Y029070D01*
X020576Y028911D02*
X020707Y028911D01*
X020707Y028753D02*
X020576Y028753D01*
X020576Y028594D02*
X020707Y028594D01*
X020707Y028435D02*
X020576Y028435D01*
X020576Y028277D02*
X020707Y028277D01*
X020707Y028118D02*
X020576Y028118D01*
X020576Y027960D02*
X020707Y027960D01*
X020707Y027801D02*
X020576Y027801D01*
X020578Y027781D02*
X020578Y038736D01*
X020707Y037314D02*
X019132Y037314D01*
X018834Y037085D02*
X018834Y036477D01*
X018790Y036521D02*
X020707Y036521D01*
X020707Y036363D02*
X018949Y036363D01*
X018474Y036441D02*
X019691Y035224D01*
X019691Y034027D01*
X019627Y033532D02*
X019627Y029782D01*
X019785Y029782D02*
X019785Y033532D01*
X019944Y033532D02*
X019944Y029682D01*
X019922Y029704D02*
X020707Y029704D01*
X020707Y029862D02*
X019261Y029862D01*
X019310Y029886D02*
X019310Y029782D01*
X019468Y029782D02*
X019468Y029990D01*
X019482Y030021D02*
X020707Y030021D01*
X020707Y030179D02*
X019482Y030179D01*
X019482Y030338D02*
X020707Y030338D01*
X020707Y030496D02*
X019482Y030496D01*
X019482Y030655D02*
X020707Y030655D01*
X020707Y030814D02*
X019428Y030814D01*
X019468Y030773D02*
X019468Y030856D01*
X019482Y030972D02*
X020707Y030972D01*
X020707Y031131D02*
X019482Y031131D01*
X019482Y031289D02*
X020707Y031289D01*
X020707Y031448D02*
X019482Y031448D01*
X019482Y031606D02*
X020707Y031606D01*
X020707Y031765D02*
X019482Y031765D01*
X019468Y031746D02*
X019468Y031639D01*
X019482Y031923D02*
X020707Y031923D01*
X020707Y032082D02*
X019482Y032082D01*
X019482Y032240D02*
X020707Y032240D01*
X020707Y032399D02*
X019482Y032399D01*
X019468Y032529D02*
X019468Y032628D01*
X019440Y032558D02*
X020707Y032558D01*
X020707Y032716D02*
X019529Y032716D01*
X019529Y032875D02*
X020707Y032875D01*
X020707Y033033D02*
X019529Y033033D01*
X019529Y033192D02*
X020707Y033192D01*
X020707Y033350D02*
X019529Y033350D01*
X019529Y033509D02*
X020707Y033509D01*
X020707Y034619D02*
X019971Y034619D01*
X019971Y034777D02*
X020707Y034777D01*
X020707Y034936D02*
X019971Y034936D01*
X019971Y035094D02*
X020707Y035094D01*
X020707Y035253D02*
X019971Y035253D01*
X018517Y034254D02*
X018517Y030290D01*
X018497Y030338D02*
X018570Y030338D01*
X018570Y030496D02*
X018422Y030496D01*
X018422Y030655D02*
X018570Y030655D01*
X018624Y030814D02*
X018422Y030814D01*
X018422Y030972D02*
X018570Y030972D01*
X018570Y031131D02*
X018422Y031131D01*
X018422Y031289D02*
X018570Y031289D01*
X018570Y031448D02*
X018422Y031448D01*
X018422Y031606D02*
X018570Y031606D01*
X018570Y031765D02*
X018422Y031765D01*
X018422Y031923D02*
X018570Y031923D01*
X018570Y032082D02*
X018422Y032082D01*
X018422Y032240D02*
X018570Y032240D01*
X018570Y032399D02*
X018422Y032399D01*
X018422Y032558D02*
X018612Y032558D01*
X018519Y032716D02*
X018422Y032716D01*
X018422Y032875D02*
X018519Y032875D01*
X018519Y033033D02*
X018422Y033033D01*
X018422Y033192D02*
X018519Y033192D01*
X018519Y033350D02*
X018422Y033350D01*
X018422Y033509D02*
X018519Y033509D01*
X018566Y033667D02*
X018422Y033667D01*
X018422Y033826D02*
X018566Y033826D01*
X018566Y033984D02*
X018283Y033984D01*
X018359Y033909D02*
X018359Y034254D01*
X018214Y034302D02*
X017966Y034302D01*
X018041Y034373D02*
X018041Y034226D01*
X018125Y034143D02*
X018566Y034143D01*
X018200Y034068D02*
X018200Y034307D01*
X017947Y034460D02*
X017808Y034460D01*
X017883Y034524D02*
X017883Y034385D01*
X017724Y034544D02*
X017724Y034790D01*
X017729Y034777D02*
X017505Y034777D01*
X017566Y034702D02*
X017566Y035261D01*
X017558Y035253D02*
X017685Y035253D01*
X017724Y035348D02*
X017724Y036161D01*
X017566Y036161D02*
X017566Y035684D01*
X017521Y035728D02*
X017998Y035728D01*
X018041Y035764D02*
X018041Y036161D01*
X017883Y036161D02*
X017883Y035613D01*
X017840Y035570D02*
X017618Y035570D01*
X017628Y035411D02*
X017751Y035411D01*
X017676Y035094D02*
X017505Y035094D01*
X017505Y034936D02*
X017676Y034936D01*
X017649Y034619D02*
X017795Y034619D01*
X017566Y034036D02*
X017566Y032969D01*
X017407Y032949D02*
X017407Y034195D01*
X017459Y034143D02*
X013167Y034143D01*
X013127Y034102D02*
X013127Y031612D01*
X013121Y031606D02*
X010565Y031606D01*
X010565Y031448D02*
X013015Y031448D01*
X012998Y031289D02*
X010565Y031289D01*
X010565Y031131D02*
X013053Y031131D01*
X013356Y031334D02*
X013356Y031334D01*
X014030Y031334D01*
X014030Y031334D01*
X014030Y031335D01*
X014730Y031335D01*
X014712Y030938D02*
X014712Y029284D01*
X014871Y029335D02*
X014871Y030938D01*
X015029Y030938D02*
X015146Y031055D01*
X015146Y031614D01*
X015029Y031732D01*
X015146Y031606D02*
X017952Y031606D01*
X017952Y031448D02*
X015146Y031448D01*
X015146Y031289D02*
X017952Y031289D01*
X017952Y031131D02*
X015146Y031131D01*
X015064Y030972D02*
X017952Y030972D01*
X017952Y030814D02*
X014446Y030814D01*
X014446Y030655D02*
X017202Y030655D01*
X017249Y030668D02*
X017249Y032225D01*
X017265Y032240D02*
X017952Y032240D01*
X017952Y032082D02*
X017168Y032082D01*
X017117Y031923D02*
X017952Y031923D01*
X017952Y031765D02*
X016894Y031765D01*
X016932Y031780D02*
X016932Y030532D01*
X016869Y030496D02*
X016462Y030496D01*
X016456Y030499D02*
X016456Y032033D01*
X016450Y032082D02*
X010565Y032082D01*
X010565Y032240D02*
X016472Y032240D01*
X016456Y032203D02*
X016456Y036161D01*
X016297Y036161D02*
X016297Y030532D01*
X016149Y030496D02*
X014446Y030496D01*
X014399Y030338D02*
X015985Y030338D01*
X015980Y030326D02*
X015980Y036161D01*
X015822Y036161D02*
X015822Y030130D01*
X015946Y030179D02*
X014310Y030179D01*
X014310Y030021D02*
X015504Y030021D01*
X015505Y030022D02*
X015505Y036161D01*
X015663Y036161D02*
X015663Y030119D01*
X015411Y029862D02*
X014310Y029862D01*
X014310Y029704D02*
X015403Y029704D01*
X015457Y029545D02*
X014310Y029545D01*
X014310Y029387D02*
X014317Y029387D01*
X014395Y029398D02*
X014395Y030334D01*
X014030Y030665D02*
X014030Y030665D01*
X014030Y030665D01*
X014030Y030665D01*
X014030Y029374D01*
X013313Y028657D01*
X013309Y021295D01*
X015329Y019275D01*
X015329Y012960D01*
X015188Y012631D02*
X015188Y012597D01*
X015346Y012597D02*
X015346Y012602D01*
X015505Y012597D02*
X015505Y012645D01*
X015663Y012652D02*
X015663Y012597D01*
X015822Y012597D02*
X015822Y012617D01*
X015980Y012597D02*
X015980Y012656D01*
X016088Y012740D02*
X016121Y012740D01*
X016139Y012722D02*
X016139Y012597D01*
X016615Y012692D02*
X016615Y012479D01*
X016773Y012479D02*
X016773Y012682D01*
X016716Y012740D02*
X016663Y012740D01*
X016932Y012617D02*
X016932Y012479D01*
X017090Y012493D02*
X017090Y012631D01*
X017407Y012597D02*
X017407Y013417D01*
X017249Y013425D02*
X017249Y013221D01*
X017255Y013215D02*
X018387Y013215D01*
X018359Y013243D02*
X018359Y012597D01*
X018200Y012597D02*
X018200Y013402D01*
X018228Y013374D02*
X017222Y013374D01*
X017341Y013775D02*
X018223Y013775D01*
X018223Y016870D01*
X018224Y016872D01*
X020376Y016872D01*
X020420Y017377D02*
X020420Y021295D01*
X020436Y021295D02*
X020707Y021408D01*
X020707Y017377D01*
X019939Y017377D01*
X019822Y017260D01*
X019822Y017152D01*
X018499Y017152D01*
X018499Y017654D01*
X020707Y017654D01*
X020707Y017496D02*
X018499Y017496D01*
X018499Y017654D02*
X018523Y017679D01*
X018577Y017810D01*
X018577Y017953D01*
X018523Y018085D01*
X018499Y018109D01*
X018499Y021179D01*
X019405Y022086D01*
X019536Y022217D01*
X019530Y022201D01*
X019530Y021901D01*
X019645Y021623D01*
X019857Y021410D01*
X020135Y021295D01*
X020436Y021295D01*
X020449Y021301D02*
X020707Y021301D01*
X020578Y021354D02*
X020578Y017377D01*
X020261Y017377D02*
X020261Y021295D01*
X020122Y021301D02*
X018620Y021301D01*
X018676Y021356D02*
X018676Y017152D01*
X018834Y017152D02*
X018834Y021515D01*
X018779Y021460D02*
X019808Y021460D01*
X019785Y021483D02*
X019785Y017152D01*
X019822Y017179D02*
X018499Y017179D01*
X018517Y017152D02*
X018517Y017673D01*
X018577Y017813D02*
X020707Y017813D01*
X020707Y017972D02*
X018570Y017972D01*
X018517Y018091D02*
X018517Y021198D01*
X018499Y021142D02*
X020707Y021142D01*
X020707Y020984D02*
X018499Y020984D01*
X018499Y020825D02*
X020707Y020825D01*
X020707Y020667D02*
X018499Y020667D01*
X018499Y020508D02*
X020707Y020508D01*
X020707Y020350D02*
X018499Y020350D01*
X018499Y020191D02*
X020707Y020191D01*
X020707Y020033D02*
X018499Y020033D01*
X018499Y019874D02*
X020707Y019874D01*
X020707Y019716D02*
X018499Y019716D01*
X018499Y019557D02*
X020707Y019557D01*
X020707Y019398D02*
X018499Y019398D01*
X018499Y019240D02*
X020707Y019240D01*
X020707Y019081D02*
X018499Y019081D01*
X018499Y018923D02*
X020707Y018923D01*
X020707Y018764D02*
X018499Y018764D01*
X018499Y018606D02*
X020707Y018606D01*
X020707Y018447D02*
X018499Y018447D01*
X018499Y018289D02*
X020707Y018289D01*
X020707Y018130D02*
X018499Y018130D01*
X018219Y017882D02*
X018219Y021295D01*
X019289Y022366D01*
X019289Y024362D01*
X019293Y024366D01*
X019293Y024394D01*
X018993Y023938D02*
X018993Y022465D01*
X018938Y022411D02*
X017746Y022411D01*
X017724Y022389D02*
X017724Y017666D01*
X017652Y017654D02*
X017222Y017654D01*
X017222Y017496D02*
X017440Y017496D01*
X017407Y017417D02*
X017407Y022072D01*
X017429Y022094D02*
X018621Y022094D01*
X018676Y022148D02*
X018676Y026415D01*
X018716Y026374D02*
X018198Y026374D01*
X018200Y026257D02*
X018200Y026738D01*
X018198Y026691D02*
X018399Y026691D01*
X018359Y026732D02*
X018359Y026098D01*
X018400Y026057D02*
X018859Y026057D01*
X018834Y026082D02*
X018834Y025438D01*
X018820Y025423D02*
X018415Y025423D01*
X018415Y025265D02*
X018798Y025265D01*
X018798Y025106D02*
X018415Y025106D01*
X018415Y024947D02*
X018798Y024947D01*
X018798Y024789D02*
X018415Y024789D01*
X018415Y024630D02*
X018798Y024630D01*
X018798Y024472D02*
X018415Y024472D01*
X018415Y024313D02*
X018798Y024313D01*
X018798Y024155D02*
X018415Y024155D01*
X018415Y023996D02*
X018857Y023996D01*
X018834Y024019D02*
X018834Y022307D01*
X018780Y022252D02*
X017587Y022252D01*
X017566Y022231D02*
X017566Y017619D01*
X017848Y017654D02*
X017938Y017654D01*
X017883Y017640D02*
X017883Y017755D01*
X017860Y017813D02*
X017222Y017813D01*
X017222Y017972D02*
X017868Y017972D01*
X017883Y018009D02*
X017883Y022548D01*
X017904Y022569D02*
X019009Y022569D01*
X019009Y022728D02*
X018063Y022728D01*
X018041Y022706D02*
X018041Y021514D01*
X017987Y021460D02*
X017226Y021460D01*
X017226Y021618D02*
X018146Y021618D01*
X018200Y021672D02*
X018200Y022865D01*
X018222Y022886D02*
X019009Y022886D01*
X019009Y023045D02*
X018380Y023045D01*
X018359Y023023D02*
X018359Y021831D01*
X018304Y021777D02*
X017226Y021777D01*
X017249Y021914D02*
X017249Y014126D01*
X017222Y014167D02*
X017943Y014167D01*
X017883Y014055D02*
X017883Y015119D01*
X017879Y015118D02*
X017943Y015118D01*
X017943Y014959D02*
X017222Y014959D01*
X017222Y014801D02*
X017943Y014801D01*
X017943Y014642D02*
X017222Y014642D01*
X017222Y014484D02*
X017943Y014484D01*
X017943Y014325D02*
X017222Y014325D01*
X017407Y014134D02*
X017407Y015343D01*
X017435Y015276D02*
X017222Y015276D01*
X017222Y015118D02*
X017621Y015118D01*
X017566Y015141D02*
X017566Y014058D01*
X017724Y014055D02*
X017724Y015094D01*
X017500Y015752D02*
X017222Y015752D01*
X017222Y015911D02*
X017500Y015911D01*
X017500Y016069D02*
X017222Y016069D01*
X017222Y016228D02*
X017500Y016228D01*
X017500Y016386D02*
X017222Y016386D01*
X017222Y016545D02*
X017500Y016545D01*
X017500Y016703D02*
X017222Y016703D01*
X017222Y016862D02*
X017500Y016862D01*
X017500Y017020D02*
X017222Y017020D01*
X017222Y017179D02*
X017415Y017179D01*
X017407Y017197D02*
X017407Y015562D01*
X017420Y015593D02*
X017222Y015593D01*
X017222Y015435D02*
X017391Y015435D01*
X018219Y016870D02*
X018223Y016870D01*
X018219Y016870D02*
X018219Y017882D01*
X017939Y018130D02*
X017222Y018130D01*
X017222Y018289D02*
X017939Y018289D01*
X017939Y018447D02*
X017222Y018447D01*
X017222Y018606D02*
X017939Y018606D01*
X017939Y018764D02*
X017222Y018764D01*
X017222Y018923D02*
X017939Y018923D01*
X017939Y019081D02*
X017222Y019081D01*
X017226Y019240D02*
X017939Y019240D01*
X017939Y019398D02*
X017226Y019398D01*
X017226Y019557D02*
X017939Y019557D01*
X017939Y019716D02*
X017226Y019716D01*
X017226Y019874D02*
X017939Y019874D01*
X017939Y020033D02*
X017226Y020033D01*
X017226Y020191D02*
X017939Y020191D01*
X017939Y020350D02*
X017226Y020350D01*
X017226Y020508D02*
X017939Y020508D01*
X017939Y020667D02*
X017226Y020667D01*
X017226Y020825D02*
X017939Y020825D01*
X017939Y020984D02*
X017226Y020984D01*
X017226Y021142D02*
X017939Y021142D01*
X017939Y021301D02*
X017226Y021301D01*
X017270Y021935D02*
X018463Y021935D01*
X018517Y021990D02*
X018517Y026573D01*
X018557Y026533D02*
X018198Y026533D01*
X018241Y026216D02*
X018766Y026216D01*
X018993Y025970D02*
X018993Y025519D01*
X019151Y025519D02*
X019151Y025948D01*
X019310Y025999D02*
X019310Y025519D01*
X019468Y025519D02*
X019468Y026220D01*
X019467Y026216D02*
X020707Y026216D01*
X020707Y026374D02*
X019475Y026374D01*
X019468Y026394D02*
X019468Y028290D01*
X019310Y028284D02*
X019310Y026615D01*
X019398Y026533D02*
X020707Y026533D01*
X020707Y026691D02*
X019065Y026691D01*
X019151Y026666D02*
X019151Y028284D01*
X018993Y028284D02*
X018993Y026763D01*
X018906Y026850D02*
X020707Y026850D01*
X020707Y027009D02*
X018747Y027009D01*
X018676Y027080D02*
X018676Y027792D01*
X018693Y027801D02*
X020105Y027801D01*
X020102Y027781D02*
X020102Y028272D01*
X020105Y028118D02*
X018845Y028118D01*
X018834Y028200D02*
X018834Y028353D01*
X018802Y028277D02*
X019849Y028277D01*
X019785Y028303D02*
X019785Y025570D01*
X019830Y025582D02*
X018415Y025582D01*
X018415Y025740D02*
X019801Y025740D01*
X019844Y025899D02*
X018415Y025899D01*
X018834Y026922D02*
X018834Y028005D01*
X018816Y027960D02*
X020105Y027960D01*
X020007Y027643D02*
X016944Y027643D01*
X016932Y027631D02*
X016932Y027511D01*
X017090Y027511D02*
X017090Y027670D01*
X017249Y027670D02*
X017249Y027511D01*
X017407Y027511D02*
X017407Y027670D01*
X017566Y027670D02*
X017566Y027511D01*
X017724Y027511D02*
X017724Y027670D01*
X017883Y027670D02*
X017883Y027511D01*
X018041Y027511D02*
X018041Y027670D01*
X018200Y027670D02*
X018200Y027511D01*
X018276Y027484D02*
X019982Y027484D01*
X020029Y027326D02*
X018430Y027326D01*
X018359Y027401D02*
X018359Y027670D01*
X018517Y027743D02*
X018517Y027239D01*
X018589Y027167D02*
X020235Y027167D01*
X020261Y027156D02*
X020261Y026070D01*
X020293Y026057D02*
X020707Y026057D01*
X020707Y025899D02*
X020476Y025899D01*
X020420Y025971D02*
X020420Y027156D01*
X020446Y027167D02*
X020707Y027167D01*
X020578Y027242D02*
X020578Y025570D01*
X020489Y025582D02*
X020707Y025582D01*
X020707Y025740D02*
X020518Y025740D01*
X020102Y026083D02*
X020102Y027242D01*
X020652Y027326D02*
X020707Y027326D01*
X020699Y027484D02*
X020707Y027484D01*
X020707Y027643D02*
X020675Y027643D01*
X019944Y028251D02*
X019944Y026016D01*
X020026Y026057D02*
X019374Y026057D01*
X019627Y025519D02*
X019627Y028375D01*
X018786Y028435D02*
X018619Y028435D01*
X018676Y028412D02*
X018676Y029103D01*
X018517Y029103D02*
X018517Y028461D01*
X018041Y028515D02*
X018041Y028141D01*
X017883Y028141D02*
X017883Y028480D01*
X017724Y028516D02*
X017724Y028141D01*
X017566Y028141D02*
X017566Y028603D01*
X017621Y028594D02*
X016875Y028594D01*
X016932Y028603D02*
X016932Y028180D01*
X017090Y028141D02*
X017090Y028603D01*
X017249Y028603D02*
X017249Y028141D01*
X017407Y028141D02*
X017407Y028603D01*
X016773Y028517D02*
X016773Y028263D01*
X016615Y028259D02*
X016615Y028480D01*
X016456Y028515D02*
X016456Y028170D01*
X016297Y028141D02*
X016297Y028661D01*
X016349Y028594D02*
X015143Y028594D01*
X015188Y028461D02*
X015188Y028749D01*
X015191Y028753D02*
X016260Y028753D01*
X016139Y029103D02*
X016139Y028141D01*
X016615Y027552D02*
X016615Y027511D01*
X016773Y027511D02*
X016773Y027548D01*
X016897Y026701D02*
X016770Y026649D01*
X016673Y026649D01*
X016331Y026306D01*
X016373Y026205D01*
X016373Y026062D01*
X016318Y025930D01*
X016237Y025849D01*
X016340Y025849D01*
X016409Y025918D01*
X016541Y025973D01*
X016684Y025973D01*
X016815Y025918D01*
X016916Y025817D01*
X016971Y025685D01*
X016971Y025543D01*
X016916Y025411D01*
X016815Y025310D01*
X016684Y025255D01*
X016541Y025255D01*
X016409Y025310D01*
X016340Y025379D01*
X015887Y025379D01*
X015887Y024882D01*
X015770Y024764D01*
X015014Y024764D01*
X014904Y024874D01*
X014838Y024807D01*
X014876Y024769D01*
X014876Y024571D01*
X014934Y024513D01*
X014934Y023875D01*
X014817Y023758D01*
X014415Y023758D01*
X014298Y023875D01*
X014298Y024401D01*
X014186Y024401D01*
X014186Y023875D01*
X014148Y023837D01*
X014148Y023521D01*
X014244Y023425D01*
X014278Y023425D01*
X014410Y023371D01*
X014511Y023270D01*
X014565Y023138D01*
X014565Y022995D01*
X014511Y022864D01*
X014410Y022763D01*
X014278Y022708D01*
X014244Y022708D01*
X013979Y022443D01*
X013979Y022409D01*
X013924Y022277D01*
X013823Y022176D01*
X013691Y022121D01*
X013589Y022121D01*
X013589Y021411D01*
X015445Y019555D01*
X015578Y019422D01*
X015578Y022133D01*
X015716Y022271D01*
X017444Y023999D01*
X017444Y025788D01*
X016897Y026335D01*
X016897Y026530D01*
X016897Y026701D01*
X016897Y026691D02*
X016873Y026691D01*
X016773Y026650D02*
X016773Y025936D01*
X016835Y025899D02*
X017333Y025899D01*
X017407Y025825D02*
X017407Y023962D01*
X017441Y023996D02*
X014934Y023996D01*
X014934Y024155D02*
X017444Y024155D01*
X017444Y024313D02*
X014934Y024313D01*
X014934Y024472D02*
X017444Y024472D01*
X017444Y024630D02*
X014876Y024630D01*
X014871Y024775D02*
X014871Y024840D01*
X014856Y024789D02*
X014989Y024789D01*
X015029Y024764D02*
X015029Y019971D01*
X014968Y020033D02*
X015578Y020033D01*
X015578Y020191D02*
X014809Y020191D01*
X014871Y020130D02*
X014871Y023811D01*
X014897Y023838D02*
X017283Y023838D01*
X017249Y023804D02*
X017249Y025983D01*
X017175Y026057D02*
X016370Y026057D01*
X016456Y025938D02*
X016456Y026432D01*
X016398Y026374D02*
X016897Y026374D01*
X016932Y026300D02*
X016932Y025780D01*
X016948Y025740D02*
X017444Y025740D01*
X017444Y025582D02*
X016971Y025582D01*
X016932Y025448D02*
X016932Y023487D01*
X016965Y023521D02*
X014149Y023521D01*
X014236Y023433D02*
X014236Y024401D01*
X014186Y024313D02*
X014298Y024313D01*
X014298Y024155D02*
X014186Y024155D01*
X014186Y023996D02*
X014298Y023996D01*
X014336Y023838D02*
X014149Y023838D01*
X014148Y023679D02*
X017124Y023679D01*
X017090Y023645D02*
X017090Y026142D01*
X017016Y026216D02*
X016368Y026216D01*
X016297Y025910D02*
X016297Y025849D01*
X016286Y025899D02*
X016390Y025899D01*
X016615Y025973D02*
X016615Y026590D01*
X016557Y026533D02*
X016897Y026533D01*
X016921Y025423D02*
X017444Y025423D01*
X017444Y025265D02*
X016706Y025265D01*
X016773Y025292D02*
X016773Y023328D01*
X016807Y023362D02*
X014419Y023362D01*
X014395Y023377D02*
X014395Y023778D01*
X014553Y023758D02*
X014553Y023167D01*
X014538Y023204D02*
X016648Y023204D01*
X016615Y023170D02*
X016615Y025255D01*
X016518Y025265D02*
X015887Y025265D01*
X015980Y025379D02*
X015980Y022535D01*
X016014Y022569D02*
X014105Y022569D01*
X014078Y022542D02*
X014078Y020922D01*
X014016Y020984D02*
X015578Y020984D01*
X015578Y021142D02*
X013858Y021142D01*
X013919Y021081D02*
X013919Y022272D01*
X013900Y022252D02*
X015697Y022252D01*
X015663Y022218D02*
X015663Y024764D01*
X015794Y024789D02*
X017444Y024789D01*
X017444Y024947D02*
X015887Y024947D01*
X015822Y024816D02*
X015822Y022377D01*
X015856Y022411D02*
X013979Y022411D01*
X013761Y022150D02*
X013761Y021239D01*
X013699Y021301D02*
X015578Y021301D01*
X015578Y021460D02*
X013589Y021460D01*
X013602Y021398D02*
X013602Y022121D01*
X013589Y022094D02*
X015578Y022094D01*
X015578Y021935D02*
X013589Y021935D01*
X013589Y021777D02*
X015578Y021777D01*
X015578Y021618D02*
X013589Y021618D01*
X013620Y022480D02*
X014207Y023067D01*
X013868Y023405D01*
X013868Y024194D01*
X014712Y023758D02*
X014712Y020288D01*
X014650Y020350D02*
X015578Y020350D01*
X015578Y020508D02*
X014492Y020508D01*
X014553Y020447D02*
X014553Y022966D01*
X014565Y023045D02*
X016490Y023045D01*
X016456Y023011D02*
X016456Y025290D01*
X016297Y025379D02*
X016297Y022853D01*
X016331Y022886D02*
X014520Y022886D01*
X014395Y022756D02*
X014395Y020605D01*
X014333Y020667D02*
X015578Y020667D01*
X015578Y020825D02*
X014175Y020825D01*
X014236Y020764D02*
X014236Y022700D01*
X014326Y022728D02*
X016173Y022728D01*
X016139Y022694D02*
X016139Y025379D01*
X015887Y025106D02*
X017444Y025106D01*
X018415Y023838D02*
X019009Y023838D01*
X019009Y023679D02*
X018415Y023679D01*
X018415Y023521D02*
X019009Y023521D01*
X019009Y023362D02*
X018415Y023362D01*
X018415Y023204D02*
X019009Y023204D01*
X019468Y022149D02*
X019468Y017152D01*
X019310Y017152D02*
X019310Y021990D01*
X019255Y021935D02*
X019530Y021935D01*
X019530Y022094D02*
X019413Y022094D01*
X019569Y022297D02*
X019645Y022479D01*
X019857Y022692D01*
X020135Y022807D01*
X020436Y022807D01*
X020707Y022694D01*
X020707Y024674D01*
X020593Y024560D01*
X019789Y024560D01*
X019789Y024055D01*
X019671Y023938D01*
X019569Y023938D01*
X019569Y022297D01*
X019569Y022411D02*
X019617Y022411D01*
X019627Y022435D02*
X019627Y023938D01*
X019569Y023838D02*
X020707Y023838D01*
X020707Y023996D02*
X019730Y023996D01*
X019785Y024052D02*
X019785Y022619D01*
X019735Y022569D02*
X019569Y022569D01*
X019569Y022728D02*
X019945Y022728D01*
X019944Y022727D02*
X019944Y024560D01*
X020102Y024560D02*
X020102Y022793D01*
X020261Y022807D02*
X020261Y024560D01*
X020420Y024560D02*
X020420Y022807D01*
X020578Y022748D02*
X020578Y024560D01*
X020663Y024630D02*
X020707Y024630D01*
X020707Y024472D02*
X019789Y024472D01*
X019789Y024313D02*
X020707Y024313D01*
X020707Y024155D02*
X019789Y024155D01*
X019569Y023679D02*
X020707Y023679D01*
X020707Y023521D02*
X019569Y023521D01*
X019569Y023362D02*
X020707Y023362D01*
X020707Y023204D02*
X019569Y023204D01*
X019569Y023045D02*
X020707Y023045D01*
X020707Y022886D02*
X019569Y022886D01*
X019581Y021777D02*
X019096Y021777D01*
X019151Y021832D02*
X019151Y017152D01*
X018993Y017152D02*
X018993Y021673D01*
X018937Y021618D02*
X019650Y021618D01*
X019627Y021667D02*
X019627Y017152D01*
X019899Y017337D02*
X018499Y017337D01*
X017391Y017337D02*
X017222Y017337D01*
X015505Y019495D02*
X015505Y024764D01*
X015346Y024764D02*
X015346Y019654D01*
X015285Y019716D02*
X015578Y019716D01*
X015578Y019874D02*
X015126Y019874D01*
X015188Y019812D02*
X015188Y024764D01*
X012968Y028197D02*
X012968Y033944D01*
X013009Y033984D02*
X017618Y033984D01*
X017883Y033719D02*
X017883Y032685D01*
X017870Y032716D02*
X017952Y032716D01*
X017952Y032558D02*
X017884Y032558D01*
X017883Y032535D02*
X017883Y030792D01*
X017724Y030784D02*
X017724Y032304D01*
X017822Y032399D02*
X017952Y032399D01*
X017566Y032251D02*
X017566Y030693D01*
X017407Y030668D02*
X017407Y032271D01*
X017090Y031892D02*
X017090Y030567D01*
X016773Y030384D02*
X016773Y031759D01*
X016724Y031765D02*
X010565Y031765D01*
X010565Y031923D02*
X016501Y031923D01*
X016615Y031810D02*
X016615Y030364D01*
X016625Y030338D02*
X016754Y030338D01*
X016730Y030179D02*
X016664Y030179D01*
X016139Y030492D02*
X016139Y036161D01*
X016615Y036161D02*
X016615Y032426D01*
X016583Y032399D02*
X010565Y032399D01*
X010565Y033192D02*
X017952Y033192D01*
X017952Y033350D02*
X012374Y033350D01*
X012334Y033310D02*
X012334Y028583D01*
X012492Y028583D02*
X012492Y033468D01*
X012533Y033509D02*
X017952Y033509D01*
X017935Y033667D02*
X012691Y033667D01*
X012651Y033627D02*
X012651Y028514D01*
X012582Y028583D02*
X012734Y028430D01*
X012729Y028435D02*
X013033Y028435D01*
X013033Y028277D02*
X012888Y028277D01*
X013033Y028594D02*
X009796Y028594D01*
X009797Y028595D02*
X009797Y028583D01*
X009785Y028583D02*
X009885Y028682D01*
X009939Y028814D01*
X009939Y028891D01*
X010846Y029797D01*
X010992Y029944D01*
X010992Y030341D01*
X011046Y030395D01*
X011101Y030527D01*
X011101Y030670D01*
X011046Y030801D01*
X010945Y030902D01*
X010814Y030957D01*
X010671Y030957D01*
X010565Y030913D01*
X010565Y033204D01*
X011110Y033204D01*
X011996Y033204D01*
X012228Y033204D01*
X015185Y036161D01*
X018359Y036161D01*
X018200Y036161D02*
X018200Y035830D01*
X017407Y035804D02*
X017407Y036161D01*
X017249Y036161D02*
X017249Y035831D01*
X017034Y035094D02*
X014118Y035094D01*
X014078Y035054D02*
X014078Y031731D01*
X014236Y031731D02*
X014236Y035212D01*
X014277Y035253D02*
X016982Y035253D01*
X017034Y034936D02*
X013960Y034936D01*
X013919Y034895D02*
X013919Y031731D01*
X013761Y031731D02*
X013761Y034737D01*
X013801Y034777D02*
X017034Y034777D01*
X017034Y034619D02*
X013643Y034619D01*
X013602Y034578D02*
X013602Y031614D01*
X013602Y031054D02*
X013602Y029342D01*
X013646Y029387D02*
X010435Y029387D01*
X010431Y029383D02*
X010431Y028583D01*
X010273Y028583D02*
X010273Y029224D01*
X010277Y029228D02*
X013488Y029228D01*
X013444Y029184D02*
X013444Y030982D01*
X013641Y030972D02*
X010565Y030972D01*
X010590Y030923D02*
X010590Y033204D01*
X010748Y033204D02*
X010748Y030957D01*
X010907Y030918D02*
X010907Y033204D01*
X011066Y033204D02*
X011066Y030755D01*
X011034Y030814D02*
X013613Y030814D01*
X013613Y030655D02*
X011101Y030655D01*
X011088Y030496D02*
X013613Y030496D01*
X013661Y030338D02*
X010992Y030338D01*
X011066Y030441D02*
X011066Y028583D01*
X011224Y028583D02*
X011224Y033204D01*
X011383Y033204D02*
X011383Y028583D01*
X011541Y028583D02*
X011541Y033204D01*
X011700Y033204D02*
X011700Y028583D01*
X011858Y028583D02*
X011858Y033204D01*
X012017Y033204D02*
X012017Y028583D01*
X012175Y028583D02*
X012175Y033204D01*
X012112Y033484D02*
X015069Y036441D01*
X014753Y036521D02*
X011518Y036521D01*
X011518Y036363D02*
X014595Y036363D01*
X014553Y036321D02*
X014553Y038736D01*
X014395Y038736D02*
X014395Y037380D01*
X014461Y037314D02*
X014678Y037314D01*
X014712Y037348D02*
X014712Y038736D01*
X014871Y038736D02*
X014871Y037506D01*
X014837Y037472D02*
X014329Y037472D01*
X014329Y037631D02*
X017689Y037631D01*
X017676Y037789D02*
X014190Y037789D01*
X014236Y037743D02*
X014236Y038736D01*
X014078Y038736D02*
X014078Y037902D01*
X014032Y037948D02*
X017676Y037948D01*
X017407Y038736D02*
X017407Y036721D01*
X017249Y036721D02*
X017249Y038736D01*
X017090Y038736D02*
X017090Y036721D01*
X016932Y036721D02*
X016932Y038736D01*
X016773Y038736D02*
X016773Y036721D01*
X016615Y036721D02*
X016615Y038736D01*
X016456Y038736D02*
X016456Y036721D01*
X016297Y036721D02*
X016297Y038736D01*
X016139Y038736D02*
X016139Y036721D01*
X015980Y036721D02*
X015980Y038736D01*
X015822Y038736D02*
X015822Y036721D01*
X015029Y037515D02*
X015029Y038736D01*
X014610Y037155D02*
X014530Y037155D01*
X014530Y036997D02*
X014610Y036997D01*
X014636Y036838D02*
X014504Y036838D01*
X014395Y036730D02*
X014395Y036163D01*
X014436Y036204D02*
X011518Y036204D01*
X011518Y036046D02*
X014278Y036046D01*
X014236Y036004D02*
X014236Y036595D01*
X014345Y036680D02*
X014789Y036680D01*
X014712Y036762D02*
X014712Y036480D01*
X014078Y036595D02*
X014078Y035846D01*
X014119Y035887D02*
X011518Y035887D01*
X011518Y035728D02*
X013961Y035728D01*
X013919Y035687D02*
X013919Y036595D01*
X013795Y036680D02*
X012400Y036680D01*
X012334Y036586D02*
X012334Y034102D01*
X012375Y034143D02*
X010781Y034143D01*
X010748Y034111D02*
X010748Y033764D01*
X010590Y033764D02*
X010590Y033952D01*
X010622Y033984D02*
X012217Y033984D01*
X012175Y033943D02*
X012175Y036535D01*
X012017Y036535D02*
X012017Y033785D01*
X012058Y033826D02*
X010463Y033826D01*
X010286Y033484D02*
X011226Y033484D01*
X012112Y033484D01*
X011858Y033764D02*
X011858Y036535D01*
X011700Y036559D02*
X011700Y033764D01*
X011541Y033764D02*
X011541Y037131D01*
X011565Y037155D02*
X011606Y037155D01*
X011606Y036997D02*
X011518Y036997D01*
X011518Y036838D02*
X011606Y036838D01*
X011606Y036680D02*
X011518Y036680D01*
X010998Y036680D02*
X010545Y036680D01*
X010545Y036838D02*
X010998Y036838D01*
X010998Y036997D02*
X010545Y036997D01*
X010545Y037155D02*
X010948Y037155D01*
X010977Y037127D02*
X010998Y037127D01*
X010998Y035096D01*
X010615Y034713D01*
X010644Y034783D01*
X010644Y034926D01*
X010590Y035057D01*
X010590Y038736D01*
X010748Y038736D02*
X010748Y034846D01*
X010679Y034777D02*
X010642Y034777D01*
X010640Y034936D02*
X010838Y034936D01*
X010907Y035005D02*
X010907Y037197D01*
X010860Y037244D02*
X010977Y037127D01*
X010860Y037244D02*
X010860Y037961D01*
X010977Y038078D01*
X011266Y038078D01*
X011234Y038110D01*
X011234Y038736D01*
X009574Y038736D01*
X009656Y038655D01*
X009656Y038408D01*
X009729Y038408D01*
X009739Y038398D01*
X009835Y038398D01*
X010051Y038398D01*
X010393Y038055D01*
X010545Y037903D01*
X010545Y035101D01*
X010590Y035057D01*
X010553Y035094D02*
X010997Y035094D01*
X010998Y035253D02*
X010545Y035253D01*
X010545Y035411D02*
X010998Y035411D01*
X010998Y035570D02*
X010545Y035570D01*
X010545Y035728D02*
X010998Y035728D01*
X010998Y035887D02*
X010545Y035887D01*
X010545Y036046D02*
X010998Y036046D01*
X010998Y036204D02*
X010545Y036204D01*
X010545Y036363D02*
X010998Y036363D01*
X010998Y036521D02*
X010545Y036521D01*
X010026Y036137D02*
X010026Y035101D01*
X009981Y035057D01*
X009927Y034926D01*
X009927Y034863D01*
X009214Y034151D01*
X009214Y033935D01*
X009214Y032974D01*
X008226Y031985D01*
X008226Y032039D01*
X008109Y032156D01*
X007234Y032156D01*
X007117Y032039D01*
X007117Y031959D01*
X006999Y032008D01*
X006856Y032008D01*
X006724Y031954D01*
X006623Y031853D01*
X006569Y031721D01*
X006569Y031578D01*
X006623Y031446D01*
X006724Y031345D01*
X006856Y031291D01*
X006999Y031291D01*
X007117Y031340D01*
X007117Y031263D01*
X007231Y031149D01*
X007214Y031132D01*
X007159Y031000D01*
X007159Y030858D01*
X007214Y030726D01*
X007258Y030682D01*
X007258Y030619D01*
X005513Y028874D01*
X005500Y028874D01*
X005944Y029319D01*
X006097Y029471D01*
X006097Y032662D01*
X006141Y032706D01*
X006195Y032838D01*
X006195Y032981D01*
X006141Y033112D01*
X006114Y033140D01*
X006141Y033167D01*
X006195Y033299D01*
X006195Y033441D01*
X006161Y033523D01*
X006651Y033523D01*
X006651Y033468D01*
X006706Y033336D01*
X006807Y033235D01*
X006939Y033180D01*
X007081Y033180D01*
X007213Y033235D01*
X007314Y033336D01*
X007369Y033468D01*
X007369Y033611D01*
X007314Y033742D01*
X007270Y033787D01*
X007270Y033891D01*
X007118Y034043D01*
X006902Y034043D01*
X005075Y034043D01*
X004923Y033891D01*
X004923Y033676D01*
X004923Y029867D01*
X004546Y029490D01*
X004546Y029555D01*
X004491Y029687D01*
X004467Y029711D01*
X004467Y035371D01*
X004491Y035395D01*
X004546Y035527D01*
X004546Y035670D01*
X004491Y035801D01*
X004390Y035902D01*
X004258Y035957D01*
X004116Y035957D01*
X003984Y035902D01*
X003883Y035801D01*
X003828Y035670D01*
X003828Y035527D01*
X003883Y035395D01*
X003907Y035371D01*
X003907Y029711D01*
X003883Y029687D01*
X003828Y029555D01*
X003828Y029413D01*
X003883Y029281D01*
X003984Y029180D01*
X004116Y029125D01*
X004181Y029125D01*
X004159Y029104D01*
X004159Y027424D01*
X004312Y027271D01*
X005391Y026192D01*
X005391Y026166D01*
X005301Y026166D01*
X005169Y026111D01*
X005145Y026087D01*
X004796Y026087D01*
X004796Y026190D01*
X004679Y026307D01*
X004214Y026307D01*
X004097Y026190D01*
X004097Y025496D01*
X004048Y025496D01*
X004048Y026190D01*
X003931Y026307D01*
X003931Y029233D01*
X003936Y029228D02*
X002667Y029228D01*
X002667Y029070D02*
X002745Y029070D01*
X002716Y029058D02*
X002667Y029009D01*
X002667Y038736D01*
X004000Y038736D01*
X003928Y038707D01*
X003799Y038578D01*
X003730Y038410D01*
X003730Y038228D01*
X003799Y038060D01*
X003928Y037931D01*
X004096Y037861D01*
X004278Y037861D01*
X004446Y037931D01*
X004575Y038060D01*
X004645Y038228D01*
X004645Y038410D01*
X004575Y038578D01*
X004446Y038707D01*
X004374Y038736D01*
X004984Y038736D01*
X004912Y038707D01*
X004784Y038578D01*
X004714Y038410D01*
X004714Y038228D01*
X004784Y038060D01*
X004912Y037931D01*
X005080Y037861D01*
X005262Y037861D01*
X005430Y037931D01*
X005558Y038059D01*
X005835Y038059D01*
X005868Y038026D01*
X006020Y037874D01*
X006369Y037874D01*
X006369Y037858D01*
X006424Y037803D01*
X006369Y037748D01*
X006369Y037189D01*
X006486Y037071D01*
X007085Y037071D01*
X007202Y037189D01*
X007202Y037208D01*
X007350Y037208D01*
X007496Y037355D01*
X008047Y037355D01*
X008165Y037472D01*
X008165Y037780D01*
X008165Y037878D01*
X008292Y037878D01*
X008400Y037770D01*
X008400Y037021D01*
X008400Y036806D01*
X008552Y036653D01*
X009390Y036653D01*
X009569Y036475D01*
X009569Y036413D01*
X009623Y036281D01*
X009724Y036180D01*
X009856Y036125D01*
X009999Y036125D01*
X010026Y036137D01*
X009956Y036125D02*
X009956Y034995D01*
X009931Y034936D02*
X004467Y034936D01*
X004467Y035094D02*
X010018Y035094D01*
X010026Y035253D02*
X004467Y035253D01*
X004498Y035411D02*
X010026Y035411D01*
X010026Y035570D02*
X004546Y035570D01*
X004521Y035728D02*
X010026Y035728D01*
X010026Y035887D02*
X004406Y035887D01*
X004407Y035886D02*
X004407Y037915D01*
X004463Y037948D02*
X004895Y037948D01*
X004882Y037961D02*
X004882Y029827D01*
X004918Y029862D02*
X004467Y029862D01*
X004475Y029704D02*
X004760Y029704D01*
X004724Y029668D02*
X004724Y038204D01*
X004714Y038265D02*
X004645Y038265D01*
X004639Y038424D02*
X004720Y038424D01*
X004724Y038434D02*
X004724Y038736D01*
X004882Y038736D02*
X004882Y038677D01*
X004788Y038582D02*
X004571Y038582D01*
X004565Y038588D02*
X004565Y038736D01*
X004407Y038723D02*
X004407Y038736D01*
X003931Y038708D02*
X003931Y038736D01*
X003773Y038736D02*
X003773Y038513D01*
X003804Y038582D02*
X002667Y038582D01*
X002667Y038424D02*
X003735Y038424D01*
X003730Y038265D02*
X002667Y038265D01*
X002667Y038107D02*
X003780Y038107D01*
X003773Y038124D02*
X003773Y028857D01*
X003784Y028845D02*
X003572Y029058D01*
X003294Y029173D01*
X002993Y029173D01*
X002716Y029058D01*
X002821Y029101D02*
X002821Y038736D01*
X002980Y038736D02*
X002980Y029167D01*
X003138Y029173D02*
X003138Y038736D01*
X003297Y038736D02*
X003297Y029172D01*
X003455Y029106D02*
X003455Y038736D01*
X003614Y038736D02*
X003614Y029015D01*
X003543Y029070D02*
X004159Y029070D01*
X004090Y029136D02*
X004090Y025496D01*
X004097Y025582D02*
X004048Y025582D01*
X004048Y025740D02*
X004097Y025740D01*
X004097Y025899D02*
X004048Y025899D01*
X004048Y026057D02*
X004097Y026057D01*
X004124Y026216D02*
X004022Y026216D01*
X003931Y026307D02*
X003466Y026307D01*
X003349Y026190D01*
X003349Y025425D01*
X003407Y025368D01*
X003407Y025332D01*
X003407Y025100D01*
X003434Y025074D01*
X003271Y025074D01*
X003107Y024910D01*
X003107Y024523D01*
X003053Y024523D01*
X002936Y024405D01*
X002936Y024296D01*
X002771Y024296D01*
X002667Y024192D01*
X002667Y027825D01*
X002716Y027777D01*
X002993Y027662D01*
X003294Y027662D01*
X003572Y027777D01*
X003784Y027989D01*
X003899Y028267D01*
X003899Y028567D01*
X003784Y028845D01*
X003718Y028911D02*
X004159Y028911D01*
X004159Y028753D02*
X003823Y028753D01*
X003888Y028594D02*
X004159Y028594D01*
X004159Y028435D02*
X003899Y028435D01*
X003899Y028277D02*
X004159Y028277D01*
X004159Y028118D02*
X003838Y028118D01*
X003773Y027977D02*
X003773Y026307D01*
X003614Y026307D02*
X003614Y027819D01*
X003596Y027801D02*
X004159Y027801D01*
X004159Y027643D02*
X002667Y027643D01*
X002667Y027801D02*
X002691Y027801D01*
X002821Y027733D02*
X002821Y024296D01*
X002936Y024313D02*
X002667Y024313D01*
X002667Y024472D02*
X003003Y024472D01*
X002980Y024449D02*
X002980Y027667D01*
X003138Y027662D02*
X003138Y024941D01*
X003145Y024947D02*
X002667Y024947D01*
X002667Y024789D02*
X003107Y024789D01*
X003107Y024630D02*
X002667Y024630D01*
X002667Y025106D02*
X003407Y025106D01*
X003297Y025074D02*
X003297Y027663D01*
X003455Y027728D02*
X003455Y026296D01*
X003376Y026216D02*
X002667Y026216D01*
X002667Y026374D02*
X005209Y026374D01*
X005199Y026384D02*
X005199Y026124D01*
X005041Y026087D02*
X005041Y026542D01*
X005050Y026533D02*
X002667Y026533D01*
X002667Y026691D02*
X004892Y026691D01*
X004882Y026701D02*
X004882Y026087D01*
X004770Y026216D02*
X005367Y026216D01*
X005358Y026225D02*
X005358Y026166D01*
X005372Y025807D02*
X007982Y025807D01*
X008541Y025807D01*
X008541Y025807D01*
X008538Y025807D01*
X008529Y026165D02*
X008529Y027658D01*
X008544Y027643D02*
X005888Y027643D01*
X005834Y027697D02*
X005834Y028176D01*
X005675Y028191D02*
X005675Y027856D01*
X005730Y027801D02*
X008383Y027801D01*
X008370Y027813D02*
X008370Y026125D01*
X008212Y026087D02*
X008212Y027969D01*
X008221Y027960D02*
X005571Y027960D01*
X005516Y028014D02*
X005516Y028157D01*
X005413Y028118D02*
X006342Y028118D01*
X006309Y028132D02*
X006309Y027222D01*
X006364Y027167D02*
X010662Y027167D01*
X010748Y027205D02*
X010748Y027449D01*
X010590Y027449D02*
X010590Y027095D01*
X010539Y027009D02*
X006661Y027009D01*
X006626Y027044D02*
X006626Y028180D01*
X006489Y028118D02*
X006822Y028118D01*
X006785Y028134D02*
X006785Y026087D01*
X006943Y026087D02*
X006943Y028117D01*
X006969Y028118D02*
X007255Y028118D01*
X007260Y028117D02*
X007260Y026087D01*
X007102Y026087D02*
X007102Y028175D01*
X007402Y028118D02*
X008059Y028118D01*
X008053Y028124D02*
X008053Y026087D01*
X007895Y026087D02*
X007895Y028177D01*
X007757Y028277D02*
X007635Y028277D01*
X007578Y028218D02*
X007578Y026087D01*
X007736Y026087D02*
X007736Y028298D01*
X007419Y028125D02*
X007419Y026087D01*
X007982Y025807D02*
X007982Y024993D01*
X007136Y024993D01*
X007578Y024493D02*
X007578Y023839D01*
X007580Y023838D02*
X007917Y023838D01*
X007895Y023815D02*
X007895Y024713D01*
X007736Y024713D02*
X007736Y023702D01*
X007419Y023839D02*
X007419Y024439D01*
X007556Y024472D02*
X008551Y024472D01*
X008529Y024449D02*
X008529Y025448D01*
X008687Y025480D02*
X008687Y024608D01*
X008710Y024630D02*
X007641Y024630D01*
X008262Y025106D02*
X009185Y025106D01*
X009163Y025084D02*
X009163Y027449D01*
X009322Y027449D02*
X009322Y025242D01*
X009344Y025265D02*
X008262Y025265D01*
X008262Y025423D02*
X009503Y025423D01*
X009480Y025401D02*
X009480Y027449D01*
X009639Y027449D02*
X009639Y025559D01*
X009661Y025582D02*
X008820Y025582D01*
X008370Y025488D02*
X008370Y024291D01*
X008393Y024313D02*
X006336Y024313D01*
X006073Y024181D02*
X006073Y023740D01*
X006160Y023740D01*
X006161Y023741D01*
X006181Y023375D02*
X007283Y023375D01*
X007283Y023442D01*
X007279Y023442D01*
X006943Y023802D02*
X006943Y024439D01*
X006073Y024181D02*
X005959Y024295D01*
X005629Y024155D02*
X005367Y024155D01*
X005367Y024313D02*
X005600Y024313D01*
X005644Y024472D02*
X005367Y024472D01*
X005367Y024630D02*
X005831Y024630D01*
X005834Y024632D02*
X005834Y025527D01*
X005992Y025527D02*
X005992Y024654D01*
X005675Y024519D02*
X005675Y025527D01*
X005388Y025807D02*
X005388Y025807D01*
X005372Y025807D01*
X005388Y025807D02*
X004447Y025807D01*
X004407Y026307D02*
X004407Y027176D01*
X004416Y027167D02*
X002667Y027167D01*
X002667Y027009D02*
X004574Y027009D01*
X004565Y027018D02*
X004565Y026307D01*
X004724Y026262D02*
X004724Y026859D01*
X004733Y026850D02*
X002667Y026850D01*
X002667Y027326D02*
X004257Y027326D01*
X004248Y027335D02*
X004248Y026307D01*
X003699Y025807D02*
X003687Y025807D01*
X003687Y025216D01*
X005087Y025216D01*
X005087Y023741D01*
X005047Y023741D01*
X005000Y023741D01*
X004287Y023741D01*
X004287Y023770D01*
X004279Y023770D01*
X004287Y023770D02*
X004287Y023816D01*
X004248Y023391D02*
X004248Y023262D01*
X004090Y023262D02*
X004090Y023391D01*
X003956Y023391D02*
X004602Y023391D01*
X004672Y023461D01*
X004682Y023461D01*
X004724Y023419D01*
X004724Y023315D02*
X004670Y023262D01*
X003939Y023262D01*
X003775Y023098D01*
X003775Y023024D01*
X003764Y023024D01*
X003669Y022930D01*
X003575Y023024D01*
X003167Y023024D01*
X003167Y023611D01*
X003810Y023611D01*
X003839Y023640D01*
X003839Y023508D01*
X003956Y023391D01*
X003931Y023416D02*
X003931Y023254D01*
X003881Y023204D02*
X003167Y023204D01*
X003167Y023362D02*
X005721Y023362D01*
X005721Y023204D02*
X005482Y023204D01*
X005487Y023045D02*
X005721Y023045D01*
X005721Y022886D02*
X005487Y022886D01*
X005358Y023315D02*
X005358Y023419D01*
X005471Y023521D02*
X005721Y023521D01*
X005721Y023679D02*
X005487Y023679D01*
X005487Y023838D02*
X005721Y023838D01*
X005750Y023996D02*
X005437Y023996D01*
X005675Y024071D02*
X005675Y021464D01*
X005679Y021460D02*
X006019Y021460D01*
X006299Y021545D02*
X006996Y021545D01*
X007008Y021545D01*
X007008Y022127D01*
X007020Y022127D01*
X006943Y021128D02*
X006943Y020215D01*
X006936Y020191D02*
X006882Y020191D01*
X006882Y020033D02*
X006936Y020033D01*
X006936Y019874D02*
X006882Y019874D01*
X007102Y020325D02*
X007102Y021128D01*
X007260Y021128D02*
X007260Y020325D01*
X007419Y020325D02*
X007419Y021128D01*
X007371Y021142D02*
X007290Y021142D01*
X007578Y021128D02*
X007578Y020325D01*
X007736Y020325D02*
X007736Y021128D01*
X007895Y021961D02*
X007895Y022416D01*
X008098Y022728D02*
X009071Y022728D01*
X009004Y022661D02*
X009004Y024190D01*
X008969Y024155D02*
X010297Y024155D01*
X010297Y024313D02*
X009128Y024313D01*
X009163Y024348D02*
X009163Y022820D01*
X009230Y022886D02*
X008098Y022886D01*
X008098Y023045D02*
X009388Y023045D01*
X009322Y022978D02*
X009322Y024507D01*
X009287Y024472D02*
X010297Y024472D01*
X010297Y024630D02*
X009445Y024630D01*
X009480Y024665D02*
X009480Y023137D01*
X009547Y023204D02*
X008018Y023204D01*
X008053Y023238D02*
X008053Y023136D01*
X008227Y020191D02*
X008254Y020191D01*
X008249Y020033D02*
X008254Y020033D01*
X008249Y019874D02*
X008254Y019874D01*
X008249Y019716D02*
X008254Y019716D01*
X008534Y019275D02*
X008534Y019271D01*
X008846Y019025D02*
X008846Y017689D01*
X008814Y017813D02*
X015049Y017813D01*
X015049Y017654D02*
X014354Y017654D01*
X014395Y017613D02*
X014395Y019813D01*
X014334Y019874D02*
X011387Y019874D01*
X011383Y019869D02*
X011383Y017689D01*
X011541Y017689D02*
X011541Y020028D01*
X011546Y020033D02*
X014176Y020033D01*
X014236Y019972D02*
X014236Y017689D01*
X014078Y017689D02*
X014078Y020130D01*
X014017Y020191D02*
X011704Y020191D01*
X011700Y020186D02*
X011700Y017689D01*
X011858Y017689D02*
X011858Y020345D01*
X011863Y020350D02*
X013129Y020350D01*
X013127Y020352D02*
X013127Y017689D01*
X013285Y017689D02*
X013285Y020253D01*
X013444Y020240D02*
X013444Y017689D01*
X013602Y017689D02*
X013602Y020305D01*
X013647Y020350D02*
X013859Y020350D01*
X013919Y020289D02*
X013919Y017689D01*
X013761Y017689D02*
X013761Y020448D01*
X013037Y020508D02*
X012021Y020508D01*
X012017Y020504D02*
X012017Y017689D01*
X012175Y017689D02*
X012175Y020662D01*
X012180Y020667D02*
X012952Y020667D01*
X012968Y020650D02*
X012968Y017689D01*
X012809Y017689D02*
X012809Y020809D01*
X012793Y020825D02*
X012339Y020825D01*
X012334Y020821D02*
X012334Y017689D01*
X012492Y017689D02*
X012492Y020979D01*
X012497Y020984D02*
X012635Y020984D01*
X012651Y020967D02*
X012651Y017689D01*
X013737Y016862D02*
X013923Y016862D01*
X013923Y016703D02*
X013737Y016703D01*
X013737Y016545D02*
X013923Y016545D01*
X014483Y016545D02*
X015049Y016545D01*
X015049Y016703D02*
X014483Y016703D01*
X014483Y016862D02*
X015049Y016862D01*
X015049Y017020D02*
X014483Y017020D01*
X014483Y017179D02*
X015049Y017179D01*
X015049Y017337D02*
X014483Y017337D01*
X014483Y017496D02*
X015049Y017496D01*
X015049Y017972D02*
X008814Y017972D01*
X008814Y018130D02*
X015049Y018130D01*
X015049Y018289D02*
X008814Y018289D01*
X008814Y018447D02*
X015049Y018447D01*
X015049Y018606D02*
X008814Y018606D01*
X008814Y018764D02*
X015049Y018764D01*
X015049Y018923D02*
X008814Y018923D01*
X009004Y019025D02*
X009004Y017689D01*
X009163Y017689D02*
X009163Y019016D01*
X009322Y019016D02*
X009322Y017689D01*
X009480Y017689D02*
X009480Y019016D01*
X009639Y019016D02*
X009639Y017689D01*
X009797Y017689D02*
X009797Y019016D01*
X009936Y019081D02*
X010173Y019081D01*
X010114Y019088D02*
X010114Y017689D01*
X009956Y017689D02*
X009956Y019102D01*
X010273Y019012D02*
X010273Y017689D01*
X010431Y017689D02*
X010431Y018980D01*
X010590Y019019D02*
X010590Y017689D01*
X010748Y017689D02*
X010748Y019186D01*
X010771Y019240D02*
X014968Y019240D01*
X015029Y019179D02*
X015029Y013168D01*
X015049Y013215D02*
X013308Y013215D01*
X013308Y013057D02*
X014980Y013057D01*
X014970Y012898D02*
X013308Y012898D01*
X013308Y012740D02*
X015042Y012740D01*
X015029Y012753D02*
X015029Y012597D01*
X014871Y012597D02*
X014871Y019338D01*
X014810Y019398D02*
X010782Y019398D01*
X010907Y019474D02*
X010907Y017689D01*
X011066Y017689D02*
X011066Y019552D01*
X011070Y019557D02*
X014651Y019557D01*
X014712Y019496D02*
X014712Y012595D01*
X014698Y012581D02*
X013637Y012581D01*
X013602Y012597D02*
X013602Y014440D01*
X013444Y014440D02*
X013444Y012597D01*
X013308Y013374D02*
X015049Y013374D01*
X015049Y013532D02*
X014467Y013532D01*
X014395Y013467D02*
X014395Y012479D01*
X014553Y012479D02*
X014553Y013685D01*
X014556Y013691D02*
X015049Y013691D01*
X015049Y013849D02*
X014560Y013849D01*
X014553Y013866D02*
X014553Y019655D01*
X014493Y019716D02*
X011229Y019716D01*
X011224Y019711D02*
X011224Y017689D01*
X010408Y017409D02*
X010396Y017409D01*
X010674Y019081D02*
X015049Y019081D01*
X015443Y019557D02*
X015578Y019557D01*
X015049Y016386D02*
X014483Y016386D01*
X014483Y016228D02*
X015049Y016228D01*
X015049Y016069D02*
X014483Y016069D01*
X014483Y015911D02*
X015049Y015911D01*
X015049Y015752D02*
X014483Y015752D01*
X014483Y015593D02*
X015049Y015593D01*
X015049Y015435D02*
X014483Y015435D01*
X014483Y015276D02*
X015049Y015276D01*
X015049Y015118D02*
X014483Y015118D01*
X014483Y014959D02*
X015049Y014959D01*
X015049Y014801D02*
X014483Y014801D01*
X014483Y014642D02*
X015049Y014642D01*
X015049Y014484D02*
X014483Y014484D01*
X014483Y014325D02*
X015049Y014325D01*
X015049Y014167D02*
X014483Y014167D01*
X014483Y014008D02*
X015049Y014008D01*
X014236Y013417D02*
X014236Y012479D01*
X014078Y012479D02*
X014078Y013439D01*
X013759Y010679D02*
X013728Y010679D01*
X013737Y010520D02*
X013759Y010520D01*
X013759Y010361D02*
X013737Y010361D01*
X013737Y010203D02*
X013759Y010203D01*
X013759Y010044D02*
X013737Y010044D01*
X013759Y009886D02*
X013671Y009886D01*
X013602Y009835D02*
X013602Y009617D01*
X013554Y009569D02*
X010687Y009569D01*
X010687Y009727D02*
X013712Y009727D01*
X013444Y009835D02*
X013444Y009459D01*
X013395Y009410D02*
X010666Y009410D01*
X010590Y009334D02*
X010590Y007847D01*
X010748Y007847D02*
X010748Y009835D01*
X010907Y009835D02*
X010907Y007847D01*
X011066Y007847D02*
X011066Y009835D01*
X011191Y009886D02*
X012144Y009886D01*
X012175Y009855D02*
X012175Y007828D01*
X012172Y007825D02*
X011163Y007825D01*
X011224Y007763D02*
X011224Y009919D01*
X011383Y009953D02*
X011383Y007729D01*
X011541Y007729D02*
X011541Y009953D01*
X011700Y009953D02*
X011700Y007729D01*
X011858Y007729D02*
X011858Y009953D01*
X012017Y009953D02*
X012017Y007729D01*
X012334Y007847D02*
X012334Y009835D01*
X012492Y009835D02*
X012492Y007847D01*
X012550Y007983D02*
X009562Y007983D01*
X009545Y007825D02*
X009692Y007825D01*
X009639Y007772D02*
X009639Y009279D01*
X009797Y009279D02*
X009797Y007847D01*
X009956Y007847D02*
X009956Y009279D01*
X010114Y009279D02*
X010114Y007847D01*
X010273Y007847D02*
X010273Y009279D01*
X010431Y009279D02*
X010431Y007847D01*
X010431Y006896D02*
X010431Y006036D01*
X010273Y006036D02*
X010273Y006896D01*
X010114Y006896D02*
X010114Y006036D01*
X009956Y006036D02*
X009956Y006896D01*
X009797Y006896D02*
X009797Y006036D01*
X009480Y005821D02*
X009480Y006590D01*
X009447Y006556D02*
X015049Y006556D01*
X015049Y006398D02*
X007461Y006398D01*
X007578Y006429D02*
X007578Y005821D01*
X007736Y005821D02*
X007736Y006429D01*
X007895Y006429D02*
X007895Y005821D01*
X008053Y005821D02*
X008053Y006429D01*
X008212Y006429D02*
X008212Y005821D01*
X008370Y005821D02*
X008370Y006429D01*
X008529Y006429D02*
X008529Y005821D01*
X008687Y005821D02*
X008687Y006429D01*
X008846Y006429D02*
X008846Y005821D01*
X009004Y005821D02*
X009004Y006429D01*
X009163Y006429D02*
X009163Y005821D01*
X009322Y005821D02*
X009322Y006431D01*
X009203Y006709D02*
X009203Y007937D01*
X009483Y007666D02*
X009597Y007666D01*
X009597Y007508D02*
X009483Y007508D01*
X009483Y007349D02*
X009597Y007349D01*
X009597Y007191D02*
X009483Y007191D01*
X009483Y006715D02*
X015049Y006715D01*
X015609Y006556D02*
X018120Y006556D01*
X018120Y006398D02*
X015609Y006398D01*
X015609Y006239D02*
X018120Y006239D01*
X018120Y006081D02*
X015609Y006081D01*
X015049Y005922D02*
X013734Y005922D01*
X013737Y005764D02*
X015049Y005764D01*
X015049Y005605D02*
X013737Y005605D01*
X013737Y005447D02*
X015049Y005447D01*
X015329Y004984D02*
X015329Y008649D01*
X015188Y008979D02*
X015188Y009835D01*
X015346Y009835D02*
X015346Y009008D01*
X015107Y008935D02*
X013930Y008935D01*
X013919Y008923D02*
X013919Y005260D01*
X014078Y005260D02*
X014078Y009082D01*
X014089Y009093D02*
X018706Y009093D01*
X018706Y009252D02*
X014248Y009252D01*
X014236Y009240D02*
X014236Y005260D01*
X014712Y004700D02*
X014712Y004096D01*
X014744Y004020D02*
X015897Y004020D01*
X015822Y004095D02*
X015822Y001696D01*
X015980Y001696D02*
X015980Y003937D01*
X016056Y003861D02*
X014747Y003861D01*
X014553Y003616D02*
X014553Y003035D01*
X014395Y002969D02*
X014395Y003578D01*
X014236Y003612D02*
X014236Y002863D01*
X014283Y002910D02*
X010799Y002910D01*
X010748Y002960D02*
X010748Y004320D01*
X010708Y004337D02*
X008408Y004337D01*
X008529Y004233D02*
X008529Y005301D01*
X008687Y005301D02*
X008687Y004233D01*
X008846Y004233D02*
X008846Y005301D01*
X009004Y005301D02*
X009004Y004233D01*
X009163Y004233D02*
X009163Y005301D01*
X009322Y005301D02*
X009322Y004233D01*
X009480Y004229D02*
X009480Y005301D01*
X009597Y005288D02*
X002667Y005288D01*
X002667Y005130D02*
X009632Y005130D01*
X009639Y005145D02*
X009639Y005161D01*
X009600Y004971D02*
X002667Y004971D01*
X002667Y005447D02*
X007184Y005447D01*
X007260Y005370D02*
X007260Y004611D01*
X007102Y004611D02*
X007102Y005528D01*
X007025Y005605D02*
X002667Y005605D01*
X002667Y006081D02*
X004754Y006081D01*
X004781Y006239D02*
X002667Y006239D01*
X002951Y003512D02*
X002951Y002409D01*
X002980Y001914D02*
X002980Y001696D01*
X003138Y001696D02*
X003138Y001914D01*
X002821Y001914D02*
X002821Y001696D01*
X003620Y002405D02*
X003620Y002409D01*
X003616Y002413D01*
X004774Y003528D02*
X005723Y003528D01*
X005443Y003227D02*
X005214Y003227D01*
X005358Y003248D02*
X005358Y002964D01*
X005443Y003069D02*
X005214Y003069D01*
X005199Y002990D02*
X005199Y002949D01*
X005161Y002910D02*
X005119Y002910D01*
X005834Y001855D02*
X005834Y001696D01*
X005992Y001696D02*
X005992Y001855D01*
X006151Y001855D02*
X006151Y001696D01*
X006344Y002593D02*
X006533Y002593D01*
X007400Y002196D02*
X007990Y002196D01*
X007990Y002197D01*
X007990Y002196D02*
X007987Y002196D01*
X008053Y001800D02*
X008053Y001696D01*
X007895Y001696D02*
X007895Y001800D01*
X008212Y001800D02*
X008212Y001696D01*
X008287Y001800D02*
X008326Y001800D01*
X008370Y001711D02*
X008370Y001696D01*
X007987Y002866D02*
X007987Y002873D01*
X007986Y002874D01*
X007986Y003331D01*
X009510Y003331D01*
X010888Y001953D01*
X010637Y001696D02*
X009776Y001696D01*
X009805Y001725D01*
X009935Y002039D01*
X009935Y002378D01*
X009842Y002603D01*
X010529Y001915D01*
X010529Y001881D01*
X010584Y001749D01*
X010637Y001696D01*
X010590Y001696D02*
X010590Y001743D01*
X010563Y001800D02*
X009836Y001800D01*
X009797Y001717D02*
X009797Y001696D01*
X009956Y001696D02*
X009956Y002489D01*
X009912Y002434D02*
X010010Y002434D01*
X010114Y002330D02*
X010114Y001696D01*
X010273Y001696D02*
X010273Y002172D01*
X010327Y002117D02*
X009935Y002117D01*
X009935Y002276D02*
X010169Y002276D01*
X010431Y002013D02*
X010431Y001696D01*
X010486Y001959D02*
X009902Y001959D01*
X009852Y002593D02*
X009846Y002593D01*
X010323Y003386D02*
X016531Y003386D01*
X016456Y003461D02*
X016456Y001696D01*
X015643Y002117D02*
X018408Y002117D01*
X018359Y002232D02*
X018359Y001696D01*
X018517Y001696D02*
X018517Y001895D01*
X018453Y001959D02*
X015610Y001959D01*
X015505Y001716D02*
X015505Y001696D01*
X015643Y002276D02*
X017641Y002276D01*
X017724Y002232D02*
X017724Y001696D01*
X017566Y001696D02*
X017566Y002351D01*
X017483Y002434D02*
X015620Y002434D01*
X015555Y002593D02*
X017324Y002593D01*
X017249Y002668D02*
X017249Y001696D01*
X017407Y001696D02*
X017407Y002510D01*
X017640Y003069D02*
X018457Y003069D01*
X018517Y003128D02*
X018517Y003363D01*
X018495Y003386D02*
X017323Y003386D01*
X017249Y003460D02*
X017249Y009835D01*
X017144Y009886D02*
X016191Y009886D01*
X016139Y009835D02*
X016139Y004570D01*
X016213Y004495D02*
X017864Y004495D01*
X017864Y004654D02*
X016055Y004654D01*
X015980Y004728D02*
X015980Y009835D01*
X015822Y009835D02*
X015822Y004887D01*
X015896Y004812D02*
X017864Y004812D01*
X017885Y005130D02*
X015609Y005130D01*
X015609Y005288D02*
X018030Y005288D01*
X018359Y005726D02*
X018359Y005849D01*
X018517Y005849D02*
X018517Y005750D01*
X018993Y005849D02*
X018993Y005068D01*
X018452Y004020D02*
X016689Y004020D01*
X016615Y004094D02*
X016615Y009953D01*
X016773Y009953D02*
X016773Y003936D01*
X016848Y003861D02*
X018452Y003861D01*
X018452Y003703D02*
X017006Y003703D01*
X016932Y003777D02*
X016932Y009953D01*
X017090Y009940D02*
X017090Y003619D01*
X017165Y003544D02*
X018452Y003544D01*
X018550Y003227D02*
X017482Y003227D01*
X017407Y003302D02*
X017407Y009835D01*
X017566Y009835D02*
X017566Y003143D01*
X017801Y002512D02*
X018908Y002512D01*
X018931Y002512D01*
X019265Y003227D02*
X020707Y003227D01*
X018517Y006749D02*
X018517Y006789D01*
X018359Y006749D02*
X018359Y006828D01*
X018359Y010786D02*
X018359Y011646D01*
X018517Y011646D02*
X018517Y010786D01*
X018200Y010786D02*
X018200Y011646D01*
X018041Y011646D02*
X018041Y010786D01*
X017883Y010786D02*
X017883Y011646D01*
X017724Y011646D02*
X017724Y010786D01*
X017566Y010786D02*
X017566Y011646D01*
X017407Y011646D02*
X017407Y010786D01*
X017249Y010786D02*
X017249Y011646D01*
X017566Y012597D02*
X017566Y013493D01*
X017724Y013495D02*
X017724Y012597D01*
X017883Y012597D02*
X017883Y013495D01*
X018041Y013495D02*
X018041Y012597D01*
X018986Y013012D02*
X018223Y013775D01*
X019944Y017377D02*
X019944Y021375D01*
X020102Y021309D02*
X020102Y017377D01*
X020376Y017736D02*
X020376Y017797D01*
X020376Y017736D02*
X019636Y017736D01*
X020626Y022728D02*
X020707Y022728D01*
X018570Y030179D02*
X018546Y030179D01*
X016773Y032477D02*
X016773Y036161D01*
X018834Y038564D02*
X018834Y038736D01*
X014553Y030938D02*
X014553Y029370D01*
X014514Y029387D02*
X015399Y029387D01*
X014030Y030665D02*
X014030Y030673D01*
X013750Y030179D02*
X010992Y030179D01*
X010992Y030021D02*
X013750Y030021D01*
X013750Y029862D02*
X010911Y029862D01*
X010907Y029858D02*
X010907Y028583D01*
X010748Y028583D02*
X010748Y029700D01*
X010752Y029704D02*
X013750Y029704D01*
X013750Y029545D02*
X010594Y029545D01*
X010590Y029541D02*
X010590Y028583D01*
X009914Y028753D02*
X013033Y028753D01*
X012582Y028583D02*
X009785Y028583D01*
X009104Y029075D02*
X010286Y030256D01*
X010286Y033484D01*
X009682Y034619D02*
X004467Y034619D01*
X004467Y034777D02*
X009841Y034777D01*
X009797Y034734D02*
X009797Y036150D01*
X009700Y036204D02*
X002667Y036204D01*
X002667Y036046D02*
X010026Y036046D01*
X009639Y036265D02*
X009639Y034575D01*
X009524Y034460D02*
X004467Y034460D01*
X004467Y034302D02*
X009365Y034302D01*
X009322Y034258D02*
X009322Y036653D01*
X009163Y036653D02*
X009163Y032922D01*
X009116Y032875D02*
X006195Y032875D01*
X006151Y032730D02*
X006151Y029512D01*
X006184Y029545D02*
X006097Y029545D01*
X006097Y029704D02*
X006342Y029704D01*
X006309Y029671D02*
X006309Y033523D01*
X006167Y033509D02*
X006651Y033509D01*
X006626Y033523D02*
X006626Y031856D01*
X006694Y031923D02*
X006097Y031923D01*
X006097Y031765D02*
X006587Y031765D01*
X006569Y031606D02*
X006097Y031606D01*
X006097Y031448D02*
X006622Y031448D01*
X006626Y031443D02*
X006626Y029988D01*
X006659Y030021D02*
X006097Y030021D01*
X006097Y030179D02*
X006818Y030179D01*
X006785Y030146D02*
X006785Y031320D01*
X006943Y031291D02*
X006943Y030305D01*
X006976Y030338D02*
X006097Y030338D01*
X006097Y030496D02*
X007135Y030496D01*
X007102Y030463D02*
X007102Y031334D01*
X007117Y031289D02*
X006097Y031289D01*
X006097Y031131D02*
X007213Y031131D01*
X007159Y030972D02*
X006097Y030972D01*
X006097Y030814D02*
X007177Y030814D01*
X007258Y030655D02*
X006097Y030655D01*
X006097Y029862D02*
X006501Y029862D01*
X006468Y029829D02*
X006468Y033523D01*
X006700Y033350D02*
X006195Y033350D01*
X006151Y033192D02*
X006911Y033192D01*
X006943Y033180D02*
X006943Y032008D01*
X006785Y031979D02*
X006785Y033257D01*
X007102Y033189D02*
X007102Y031965D01*
X007160Y032082D02*
X006097Y032082D01*
X006097Y032240D02*
X008481Y032240D01*
X008529Y032288D02*
X008529Y036676D01*
X008525Y036680D02*
X002667Y036680D01*
X002667Y036838D02*
X008400Y036838D01*
X008400Y036997D02*
X002667Y036997D01*
X002667Y037155D02*
X006402Y037155D01*
X006468Y037090D02*
X006468Y034043D01*
X006626Y034043D02*
X006626Y037071D01*
X006785Y037071D02*
X006785Y034043D01*
X006943Y034043D02*
X006943Y037071D01*
X007102Y037089D02*
X007102Y034043D01*
X007176Y033984D02*
X009214Y033984D01*
X009214Y033826D02*
X007270Y033826D01*
X007260Y033900D02*
X007260Y037208D01*
X007169Y037155D02*
X008400Y037155D01*
X008400Y037314D02*
X007455Y037314D01*
X007419Y037277D02*
X007419Y032156D01*
X007578Y032156D02*
X007578Y037355D01*
X007736Y037355D02*
X007736Y032156D01*
X007895Y032156D02*
X007895Y037355D01*
X008053Y037361D02*
X008053Y032156D01*
X008183Y032082D02*
X008323Y032082D01*
X008370Y032129D02*
X008370Y037799D01*
X008380Y037789D02*
X008165Y037789D01*
X008212Y037878D02*
X008212Y032053D01*
X008640Y032399D02*
X006097Y032399D01*
X006097Y032558D02*
X008798Y032558D01*
X008846Y032605D02*
X008846Y036653D01*
X009004Y036653D02*
X009004Y032764D01*
X008957Y032716D02*
X006145Y032716D01*
X006174Y033033D02*
X009214Y033033D01*
X009214Y033192D02*
X007108Y033192D01*
X007260Y033282D02*
X007260Y032156D01*
X006939Y032579D02*
X007671Y032579D01*
X007671Y032576D01*
X007672Y032576D01*
X007320Y033350D02*
X009214Y033350D01*
X009214Y033509D02*
X007369Y033509D01*
X007345Y033667D02*
X009214Y033667D01*
X009214Y034143D02*
X004467Y034143D01*
X004467Y033984D02*
X005017Y033984D01*
X005041Y034009D02*
X005041Y037878D01*
X005199Y037861D02*
X005199Y034043D01*
X005358Y034043D02*
X005358Y037901D01*
X005448Y037948D02*
X005946Y037948D01*
X005992Y037902D02*
X005992Y034043D01*
X005834Y034043D02*
X005834Y038059D01*
X005675Y038059D02*
X005675Y034043D01*
X005516Y034043D02*
X005516Y038017D01*
X006151Y037874D02*
X006151Y034043D01*
X006309Y034043D02*
X006309Y037874D01*
X006410Y037789D02*
X002667Y037789D01*
X002667Y037631D02*
X006369Y037631D01*
X006369Y037472D02*
X002667Y037472D01*
X002667Y037314D02*
X006369Y037314D01*
X004764Y038107D02*
X004594Y038107D01*
X004565Y038050D02*
X004565Y029509D01*
X004546Y029545D02*
X004601Y029545D01*
X004467Y030021D02*
X004923Y030021D01*
X004923Y030179D02*
X004467Y030179D01*
X004467Y030338D02*
X004923Y030338D01*
X004923Y030496D02*
X004467Y030496D01*
X004467Y030655D02*
X004923Y030655D01*
X004923Y030814D02*
X004467Y030814D01*
X004467Y030972D02*
X004923Y030972D01*
X004923Y031131D02*
X004467Y031131D01*
X004467Y031289D02*
X004923Y031289D01*
X004923Y031448D02*
X004467Y031448D01*
X004467Y031606D02*
X004923Y031606D01*
X004923Y031765D02*
X004467Y031765D01*
X004467Y031923D02*
X004923Y031923D01*
X004923Y032082D02*
X004467Y032082D01*
X004467Y032240D02*
X004923Y032240D01*
X004923Y032399D02*
X004467Y032399D01*
X004467Y032558D02*
X004923Y032558D01*
X004923Y032716D02*
X004467Y032716D01*
X004467Y032875D02*
X004923Y032875D01*
X004923Y033033D02*
X004467Y033033D01*
X004467Y033192D02*
X004923Y033192D01*
X004923Y033350D02*
X004467Y033350D01*
X004467Y033509D02*
X004923Y033509D01*
X004923Y033667D02*
X004467Y033667D01*
X004467Y033826D02*
X004923Y033826D01*
X004187Y035598D02*
X004187Y029484D01*
X003839Y029387D02*
X002667Y029387D01*
X002667Y029545D02*
X003828Y029545D01*
X003899Y029704D02*
X002667Y029704D01*
X002667Y029862D02*
X003907Y029862D01*
X003907Y030021D02*
X002667Y030021D01*
X002667Y030179D02*
X003907Y030179D01*
X003907Y030338D02*
X002667Y030338D01*
X002667Y030496D02*
X003907Y030496D01*
X003907Y030655D02*
X002667Y030655D01*
X002667Y030814D02*
X003907Y030814D01*
X003907Y030972D02*
X002667Y030972D01*
X002667Y031131D02*
X003907Y031131D01*
X003907Y031289D02*
X002667Y031289D01*
X002667Y031448D02*
X003907Y031448D01*
X003907Y031606D02*
X002667Y031606D01*
X002667Y031765D02*
X003907Y031765D01*
X003907Y031923D02*
X002667Y031923D01*
X002667Y032082D02*
X003907Y032082D01*
X003907Y032240D02*
X002667Y032240D01*
X002667Y032399D02*
X003907Y032399D01*
X003907Y032558D02*
X002667Y032558D01*
X002667Y032716D02*
X003907Y032716D01*
X003907Y032875D02*
X002667Y032875D01*
X002667Y033033D02*
X003907Y033033D01*
X003907Y033192D02*
X002667Y033192D01*
X002667Y033350D02*
X003907Y033350D01*
X003907Y033509D02*
X002667Y033509D01*
X002667Y033667D02*
X003907Y033667D01*
X003907Y033826D02*
X002667Y033826D01*
X002667Y033984D02*
X003907Y033984D01*
X003907Y034143D02*
X002667Y034143D01*
X002667Y034302D02*
X003907Y034302D01*
X003907Y034460D02*
X002667Y034460D01*
X002667Y034619D02*
X003907Y034619D01*
X003907Y034777D02*
X002667Y034777D01*
X002667Y034936D02*
X003907Y034936D01*
X003907Y035094D02*
X002667Y035094D01*
X002667Y035253D02*
X003907Y035253D01*
X003876Y035411D02*
X002667Y035411D01*
X002667Y035570D02*
X003828Y035570D01*
X003853Y035728D02*
X002667Y035728D01*
X002667Y035887D02*
X003968Y035887D01*
X003931Y035850D02*
X003931Y037930D01*
X003911Y037948D02*
X002667Y037948D01*
X002667Y036521D02*
X009522Y036521D01*
X009480Y036564D02*
X009480Y034416D01*
X009589Y036363D02*
X002667Y036363D01*
X004090Y035946D02*
X004090Y037864D01*
X004248Y037861D02*
X004248Y035957D01*
X006151Y033191D02*
X006151Y033089D01*
X006927Y031649D02*
X007679Y031649D01*
X007679Y031651D01*
X007672Y031651D01*
X008687Y032447D02*
X008687Y036653D01*
X008400Y037472D02*
X008165Y037472D01*
X008165Y037631D02*
X008400Y037631D01*
X009656Y038424D02*
X011234Y038424D01*
X011234Y038582D02*
X009656Y038582D01*
X009639Y038672D02*
X009639Y038736D01*
X009797Y038736D02*
X009797Y038398D01*
X009956Y038398D02*
X009956Y038736D01*
X010114Y038736D02*
X010114Y038334D01*
X010183Y038265D02*
X011234Y038265D01*
X011237Y038107D02*
X010342Y038107D01*
X010273Y038175D02*
X010273Y038736D01*
X010431Y038736D02*
X010431Y038017D01*
X010500Y037948D02*
X010860Y037948D01*
X010907Y038008D02*
X010907Y038736D01*
X011066Y038736D02*
X011066Y038078D01*
X011224Y038078D02*
X011224Y038736D01*
X010860Y037789D02*
X010545Y037789D01*
X010545Y037631D02*
X010860Y037631D01*
X010860Y037472D02*
X010545Y037472D01*
X010545Y037314D02*
X010860Y037314D01*
X011518Y035570D02*
X013802Y035570D01*
X013761Y035529D02*
X013761Y036714D01*
X013636Y036838D02*
X012400Y036838D01*
X012400Y036997D02*
X013610Y036997D01*
X013610Y037155D02*
X012400Y037155D01*
X012402Y037314D02*
X013678Y037314D01*
X013761Y037396D02*
X013761Y037484D01*
X013772Y037472D02*
X012402Y037472D01*
X012402Y037631D02*
X013613Y037631D01*
X013602Y037642D02*
X013602Y035370D01*
X013644Y035411D02*
X011518Y035411D01*
X011518Y035253D02*
X013485Y035253D01*
X013444Y035211D02*
X013444Y037801D01*
X013455Y037789D02*
X012402Y037789D01*
X012402Y037948D02*
X013296Y037948D01*
X013285Y037959D02*
X013285Y035053D01*
X013326Y035094D02*
X011518Y035094D01*
X011518Y034936D02*
X013168Y034936D01*
X013127Y034894D02*
X013127Y038118D01*
X013138Y038107D02*
X012024Y038107D01*
X012017Y038099D02*
X012017Y038078D01*
X012175Y038078D02*
X012175Y038208D01*
X012334Y038208D02*
X012334Y038028D01*
X012492Y038208D02*
X012492Y034260D01*
X012534Y034302D02*
X010939Y034302D01*
X010907Y034269D02*
X010907Y033764D01*
X011066Y033764D02*
X011066Y034428D01*
X011098Y034460D02*
X012692Y034460D01*
X012651Y034419D02*
X012651Y038208D01*
X012809Y038208D02*
X012809Y034577D01*
X012851Y034619D02*
X011256Y034619D01*
X011224Y034586D02*
X011224Y033764D01*
X011383Y033764D02*
X011383Y034745D01*
X011415Y034777D02*
X013009Y034777D01*
X012968Y034736D02*
X012968Y038208D01*
X013285Y038695D02*
X013285Y038736D01*
X013127Y038728D02*
X013127Y038736D01*
X012968Y038728D02*
X012968Y038736D01*
X012809Y038728D02*
X012809Y038736D01*
X012651Y038728D02*
X012651Y038736D01*
X012492Y038728D02*
X012492Y038736D01*
X012334Y038728D02*
X012334Y038736D01*
X012175Y038728D02*
X012175Y038736D01*
X011234Y033484D02*
X011226Y033484D01*
X010907Y027449D02*
X010907Y027225D01*
X010590Y026637D02*
X010590Y026510D01*
X010608Y026533D02*
X006590Y026533D01*
X006626Y026570D02*
X006626Y026087D01*
X006468Y026087D02*
X006468Y026465D01*
X006374Y026374D02*
X010454Y026374D01*
X010431Y026352D02*
X010431Y027449D01*
X010273Y027449D02*
X010273Y026193D01*
X010295Y026216D02*
X006257Y026216D01*
X006309Y026268D02*
X006309Y026087D01*
X006151Y026087D02*
X006151Y026165D01*
X006468Y027149D02*
X006468Y028117D01*
X005834Y029195D02*
X005834Y029208D01*
X005854Y029228D02*
X005867Y029228D01*
X005992Y029354D02*
X005992Y029366D01*
X006012Y029387D02*
X006025Y029387D01*
X005708Y029070D02*
X005695Y029070D01*
X005675Y029049D02*
X005675Y029037D01*
X005550Y028911D02*
X005537Y028911D01*
X005516Y028891D02*
X005516Y028878D01*
X005358Y028195D02*
X005358Y028173D01*
X004159Y027960D02*
X003755Y027960D01*
X004159Y027484D02*
X002667Y027484D01*
X002667Y026057D02*
X003349Y026057D01*
X003349Y025899D02*
X002667Y025899D01*
X002667Y025740D02*
X003349Y025740D01*
X003349Y025582D02*
X002667Y025582D01*
X002667Y025423D02*
X003351Y025423D01*
X003407Y025265D02*
X002667Y025265D01*
X003387Y024794D02*
X003387Y024067D01*
X003431Y024067D01*
X003387Y024067D02*
X003387Y024016D01*
X002887Y024016D01*
X002887Y021716D01*
X003687Y021716D01*
X003687Y021682D01*
X003669Y021682D01*
X004043Y022549D02*
X004055Y022549D01*
X004055Y022982D01*
X005000Y022982D01*
X005000Y022993D01*
X005047Y022993D01*
X005041Y023315D02*
X005041Y023419D01*
X005047Y023367D02*
X003387Y023367D01*
X003387Y023397D01*
X003431Y023397D01*
X003387Y023397D02*
X003387Y023416D01*
X003455Y023611D02*
X003455Y023024D01*
X003297Y023024D02*
X003297Y023611D01*
X003167Y023521D02*
X003839Y023521D01*
X003773Y023611D02*
X003773Y023024D01*
X003775Y023045D02*
X003167Y023045D01*
X003614Y022985D02*
X003614Y023611D01*
X003387Y024794D02*
X004275Y024794D01*
X005000Y023741D02*
X005000Y023730D01*
X005087Y023741D02*
X005087Y023716D01*
X005199Y023419D02*
X005199Y023315D01*
X005079Y023367D02*
X005047Y023367D01*
X005079Y023375D02*
X005079Y023367D01*
X005079Y023375D02*
X005551Y023375D01*
X005551Y023415D01*
X006161Y023367D02*
X006181Y023367D01*
X006181Y023375D01*
X006161Y022993D02*
X006142Y022993D01*
X006142Y022745D01*
X005776Y021935D02*
X005237Y021935D01*
X004882Y023315D02*
X004882Y023419D01*
X004565Y023391D02*
X004565Y023262D01*
X004407Y023262D02*
X004407Y023391D01*
X006697Y026691D02*
X010552Y026691D01*
X010509Y026850D02*
X006715Y026850D01*
X009797Y027449D02*
X009797Y025718D01*
X008534Y017409D02*
X006341Y017409D01*
X005041Y013854D02*
X005041Y013853D01*
X005037Y013849D02*
X003963Y013849D01*
X003963Y013691D02*
X004940Y013691D01*
X004940Y013532D02*
X003963Y013532D01*
X003963Y013374D02*
X004940Y013374D01*
X004940Y013215D02*
X003963Y013215D01*
X003963Y013057D02*
X005036Y013057D01*
X005041Y013052D02*
X005041Y012597D01*
X005077Y012740D02*
X003963Y012740D01*
X003963Y012898D02*
X005077Y012898D01*
X004882Y012597D02*
X004882Y013854D01*
X004724Y013854D02*
X004724Y012597D01*
X004698Y012581D02*
X003963Y012581D01*
X003963Y012423D02*
X004597Y012423D01*
X004597Y012264D02*
X003963Y012264D01*
X003963Y012105D02*
X004597Y012105D01*
X004597Y011947D02*
X003963Y011947D01*
X003963Y011788D02*
X004597Y011788D01*
X004724Y011646D02*
X004724Y010786D01*
X004882Y010786D02*
X004882Y011646D01*
X005041Y011646D02*
X005041Y010786D01*
X005199Y010786D02*
X005199Y011646D01*
X005358Y011646D02*
X005358Y010786D01*
X005516Y010786D02*
X005516Y011646D01*
X005675Y011646D02*
X005675Y010786D01*
X005834Y010786D02*
X005834Y011646D01*
X005992Y011646D02*
X005992Y010786D01*
X006151Y010776D02*
X006151Y011657D01*
X006309Y011764D02*
X006309Y010668D01*
X006248Y010679D02*
X007087Y010679D01*
X007102Y010694D02*
X007102Y011739D01*
X006943Y011764D02*
X006943Y010668D01*
X006785Y010668D02*
X006785Y011764D01*
X006626Y011764D02*
X006626Y010668D01*
X006468Y010668D02*
X006468Y011764D01*
X007260Y011646D02*
X007260Y010786D01*
X007419Y010786D02*
X007419Y011646D01*
X007578Y011646D02*
X007578Y010786D01*
X007736Y010786D02*
X007736Y011646D01*
X007895Y011646D02*
X007895Y010786D01*
X008053Y010786D02*
X008053Y011646D01*
X008212Y011646D02*
X008212Y010786D01*
X008370Y010786D02*
X008370Y011646D01*
X008529Y011646D02*
X008529Y010786D01*
X008687Y010719D02*
X008687Y011713D01*
X008846Y011764D02*
X008846Y009799D01*
X009004Y009799D02*
X009004Y011764D01*
X009163Y011764D02*
X009163Y009799D01*
X009322Y009799D02*
X009322Y011764D01*
X009480Y011764D02*
X009480Y009799D01*
X009639Y009799D02*
X009639Y009911D01*
X009664Y009886D02*
X008671Y009886D01*
X008687Y009902D02*
X008687Y009799D01*
X008529Y009799D02*
X008529Y009835D01*
X008370Y009835D02*
X008370Y009799D01*
X008212Y009799D02*
X008212Y009835D01*
X008053Y009835D02*
X008053Y009799D01*
X007895Y009799D02*
X007895Y009835D01*
X007736Y009835D02*
X007736Y009799D01*
X007578Y009799D02*
X007578Y009835D01*
X007419Y009835D02*
X007419Y009799D01*
X007260Y009799D02*
X007260Y009835D01*
X007144Y009886D02*
X006191Y009886D01*
X006151Y009846D02*
X006151Y009799D01*
X006309Y009799D02*
X006309Y009953D01*
X006468Y009953D02*
X006468Y009799D01*
X006626Y009799D02*
X006626Y009953D01*
X006785Y009953D02*
X006785Y009799D01*
X006943Y009799D02*
X006943Y009953D01*
X007102Y009928D02*
X007102Y009799D01*
X007102Y009279D02*
X007102Y007026D01*
X007118Y007032D02*
X006778Y007032D01*
X006778Y006874D02*
X006954Y006874D01*
X006943Y006849D02*
X006943Y009279D01*
X007260Y009279D02*
X007260Y007067D01*
X007274Y006709D02*
X009203Y006709D01*
X008923Y007191D02*
X006778Y007191D01*
X006778Y007349D02*
X008923Y007349D01*
X008923Y007508D02*
X006778Y007508D01*
X006778Y007666D02*
X008923Y007666D01*
X007736Y005301D02*
X007736Y004611D01*
X007578Y004611D02*
X007578Y005301D01*
X007419Y005301D02*
X007419Y004611D01*
X006915Y006715D02*
X006778Y006715D01*
X005834Y005842D02*
X005834Y004470D01*
X005808Y004495D02*
X006048Y004495D01*
X005675Y004587D02*
X005675Y005842D01*
X005516Y005842D02*
X005516Y004587D01*
X005358Y004587D02*
X005358Y005841D01*
X005516Y006362D02*
X005516Y008937D01*
X005675Y008937D02*
X005675Y006362D01*
X005675Y009799D02*
X005675Y009835D01*
X005516Y009835D02*
X005516Y009799D01*
X005358Y009799D02*
X005358Y009835D01*
X005199Y009835D02*
X005199Y009799D01*
X005041Y009799D02*
X005041Y009835D01*
X004882Y009835D02*
X004882Y009799D01*
X004724Y009799D02*
X004724Y009835D01*
X004664Y009886D02*
X004035Y009886D01*
X004090Y009831D02*
X004090Y010051D01*
X004248Y010051D02*
X004248Y009799D01*
X004407Y009799D02*
X004407Y010051D01*
X004565Y010051D02*
X004565Y009799D01*
X004597Y010044D02*
X003876Y010044D01*
X003931Y010051D02*
X003931Y009990D01*
X005427Y010311D02*
X005435Y010311D01*
X005435Y010315D01*
X005834Y009835D02*
X005834Y009799D01*
X005992Y009799D02*
X005992Y009835D01*
X005427Y012122D02*
X005427Y012134D01*
X005337Y012224D01*
X007419Y012597D02*
X007419Y013240D01*
X007578Y013240D02*
X007578Y012597D01*
X007736Y012597D02*
X007736Y013240D01*
X007895Y013240D02*
X007895Y012597D01*
X008053Y012597D02*
X008053Y013240D01*
X008212Y013240D02*
X008212Y012597D01*
X008370Y012597D02*
X008370Y013240D01*
X008529Y013240D02*
X008529Y012597D01*
X008637Y012581D02*
X009698Y012581D01*
X009639Y012522D02*
X009639Y013240D01*
X009797Y013240D02*
X009797Y012597D01*
X009956Y012597D02*
X009956Y013240D01*
X010114Y013240D02*
X010114Y012597D01*
X010273Y012597D02*
X010273Y013240D01*
X010431Y013240D02*
X010431Y012597D01*
X010590Y012597D02*
X010590Y013240D01*
X010748Y013240D02*
X010748Y012597D01*
X010907Y012597D02*
X010907Y013240D01*
X011383Y013760D02*
X011383Y014558D01*
X011541Y014558D02*
X011541Y013760D01*
X012017Y013167D02*
X012017Y012479D01*
X012175Y012578D02*
X012175Y013141D01*
X012488Y013374D02*
X012593Y013374D01*
X012492Y013385D02*
X012492Y012597D01*
X012510Y013532D02*
X012593Y013532D01*
X011066Y011646D02*
X011066Y010786D01*
X010907Y010786D02*
X010907Y011646D01*
X010748Y011646D02*
X010748Y010786D01*
X010590Y010786D02*
X010590Y011646D01*
X010431Y011646D02*
X010431Y010786D01*
X010273Y010786D02*
X010273Y011646D01*
X010114Y011646D02*
X010114Y010786D01*
X009956Y010786D02*
X009956Y011646D01*
X009797Y011646D02*
X009797Y010786D01*
X009639Y010711D02*
X009639Y011722D01*
X009480Y012479D02*
X009480Y013240D01*
X009322Y013240D02*
X009322Y012479D01*
X009163Y012479D02*
X009163Y013240D01*
X009004Y013240D02*
X009004Y012479D01*
X008846Y012479D02*
X008846Y013240D01*
X008687Y013240D02*
X008687Y012530D01*
X008728Y010679D02*
X009607Y010679D01*
X009597Y010520D02*
X008737Y010520D01*
X008737Y010361D02*
X009597Y010361D01*
X009597Y010203D02*
X008737Y010203D01*
X008737Y010044D02*
X009597Y010044D01*
X009797Y009835D02*
X009797Y009799D01*
X009956Y009799D02*
X009956Y009835D01*
X010114Y009835D02*
X010114Y009799D01*
X011224Y006980D02*
X011224Y005952D01*
X011254Y005922D02*
X012081Y005922D01*
X012017Y005918D02*
X012017Y007014D01*
X011858Y007014D02*
X011858Y005918D01*
X011700Y005918D02*
X011700Y007014D01*
X011541Y007014D02*
X011541Y005918D01*
X011383Y005918D02*
X011383Y007014D01*
X011066Y006896D02*
X011066Y006036D01*
X010907Y006036D02*
X010907Y006896D01*
X010748Y006896D02*
X010748Y006036D01*
X010590Y006036D02*
X010590Y006896D01*
X010273Y004700D02*
X010273Y003436D01*
X010907Y002811D02*
X010907Y004269D01*
X010998Y004178D02*
X009531Y004178D01*
X011066Y004110D02*
X011066Y002755D01*
X011069Y002751D02*
X014125Y002751D01*
X013959Y002434D02*
X011219Y002434D01*
X011175Y002276D02*
X013935Y002276D01*
X013935Y002117D02*
X011208Y002117D01*
X012175Y006017D02*
X012175Y006916D01*
X012334Y006896D02*
X012334Y006036D01*
X012492Y006036D02*
X012492Y006896D01*
X012651Y006896D02*
X012651Y006036D01*
X012809Y006036D02*
X012809Y006896D01*
X012968Y006896D02*
X012968Y006036D01*
X013127Y006036D02*
X013127Y006896D01*
X013285Y006896D02*
X013285Y006036D01*
X013444Y006036D02*
X013444Y006896D01*
X013602Y006896D02*
X013602Y006036D01*
X013602Y007847D02*
X013602Y008606D01*
X013613Y008618D02*
X014970Y008618D01*
X015019Y008459D02*
X013455Y008459D01*
X013444Y008448D02*
X013444Y007847D01*
X013265Y008142D02*
X015049Y008142D01*
X014264Y009268D02*
X014264Y009268D01*
X012968Y008983D02*
X012968Y009835D01*
X014078Y001712D02*
X014078Y001696D01*
X017883Y001696D02*
X017883Y002232D01*
X018041Y002232D02*
X018041Y001696D01*
X018200Y001696D02*
X018200Y002232D01*
X007908Y010311D02*
X007908Y010315D01*
D35*
X010872Y004657D02*
X011593Y003937D01*
X014390Y003937D01*
X018135Y004618D02*
X018135Y005039D01*
X018487Y005391D01*
X018902Y004618D02*
X018902Y003801D01*
X018908Y003796D01*
X018908Y003807D01*
X018908Y003796D02*
X018912Y003791D01*
X018902Y006299D02*
X018647Y006299D01*
X018902Y006299D02*
X018912Y006299D01*
X018912Y007344D01*
X018904Y007344D01*
X018912Y006316D02*
X018912Y006299D01*
X017750Y015453D02*
X017750Y017307D01*
X012573Y021413D02*
X010884Y019724D01*
X010250Y019724D01*
X010195Y019669D01*
X009472Y019669D01*
X009472Y019866D02*
X008935Y019866D01*
X008935Y020386D01*
X009203Y020386D01*
X009199Y020386D01*
X009203Y020386D02*
X011140Y020386D01*
X012230Y021476D01*
X012230Y022106D01*
X010786Y020063D02*
X009463Y020063D01*
X009463Y020062D01*
X009472Y020062D01*
X009486Y019472D02*
X010053Y019472D01*
X010187Y019338D01*
X010423Y019338D01*
X009486Y019472D02*
X009486Y019472D01*
X009472Y019472D01*
X009472Y019275D02*
X008534Y019275D01*
X008541Y019275D01*
X008541Y019275D01*
X008191Y019275D01*
X007999Y019467D01*
X007999Y020066D01*
X007451Y020066D01*
X007451Y019672D02*
X006927Y019672D01*
X006927Y020779D01*
X007927Y020779D01*
X007927Y020775D01*
X007451Y019672D02*
X006952Y019672D01*
X006951Y019673D01*
X006632Y019476D02*
X007451Y019476D01*
X007451Y019475D01*
X007448Y019475D01*
X007447Y019476D01*
X007451Y019476D02*
X007463Y019476D01*
X007451Y019279D02*
X006360Y019279D01*
X006360Y020075D01*
X004753Y021682D01*
X003687Y021682D01*
X003669Y021682D02*
X003669Y021699D01*
X003687Y021716D01*
X004987Y021798D02*
X006632Y020153D01*
X006632Y019476D01*
X007447Y019279D02*
X007451Y019275D01*
X007451Y019276D01*
X007451Y019278D01*
X007451Y019279D01*
X008534Y019275D02*
X008534Y019275D01*
X007279Y024112D02*
X007278Y024112D01*
X007278Y024114D01*
X005551Y022155D02*
X005563Y022143D01*
X005563Y022127D01*
X004987Y021798D02*
X004987Y023016D01*
X005010Y022993D01*
X005047Y022993D01*
X009581Y028886D02*
X010742Y030047D01*
X010742Y030598D01*
D36*
X010419Y016726D02*
X010427Y016726D01*
X010419Y016726D02*
X010419Y016720D01*
X010419Y016726D02*
X012908Y016726D01*
X012967Y014917D02*
X012967Y014915D01*
X012908Y014915D01*
X012951Y014915D01*
X012951Y012122D01*
X012908Y012122D01*
X014116Y012122D01*
X014116Y009626D01*
X012908Y008417D01*
X012908Y007372D01*
X012911Y007372D01*
X012911Y007370D01*
X012908Y007372D02*
X010427Y007372D01*
X010427Y005561D02*
X012904Y005561D01*
X012904Y005559D01*
X012904Y005561D02*
X012908Y005561D01*
X012919Y010311D02*
X010427Y010311D01*
X010427Y012122D02*
X012908Y012122D01*
X012919Y010315D02*
X012919Y010311D01*
X012908Y010311D01*
X014116Y012122D02*
X015427Y012122D01*
X015372Y012122D01*
X015372Y012110D01*
X015427Y012122D02*
X017911Y012122D01*
X017911Y012126D01*
X017911Y012122D02*
X017908Y012122D01*
X017908Y010311D02*
X015380Y010311D01*
X015380Y010315D01*
X015380Y010311D02*
X015427Y010311D01*
X012908Y014915D02*
X010427Y014915D01*
X010427Y012122D02*
X007908Y012122D01*
X005427Y012122D01*
X005419Y010315D02*
X005419Y010311D01*
X005427Y010311D01*
X007908Y010311D01*
X005427Y010311D02*
X005404Y010311D01*
X005404Y010315D01*
X018908Y003807D02*
X018908Y002512D01*
X018908Y002508D01*
X019908Y003476D02*
X019577Y003807D01*
X019908Y003476D02*
X019908Y002512D01*
D37*
X016986Y012976D02*
X016986Y019275D01*
X016990Y019279D01*
X016990Y021988D01*
X018179Y023177D01*
X018179Y025945D01*
X017963Y026161D01*
X017963Y027008D01*
X018152Y027271D02*
X019116Y026307D01*
X018289Y027905D02*
X018486Y028102D01*
X018289Y027905D02*
X016699Y027905D01*
X015415Y027905D01*
X015219Y028102D01*
X014908Y027504D02*
X015136Y027275D01*
X018152Y027275D01*
X018152Y027271D01*
X017553Y027008D02*
X017553Y026299D01*
X017935Y025917D01*
X017935Y023520D01*
X016392Y021976D01*
X016392Y012976D01*
X015817Y012976D02*
X015817Y019260D01*
X015813Y019260D01*
X015813Y022035D01*
X017679Y023901D01*
X017679Y025886D01*
X017132Y026433D01*
X017132Y027008D01*
X016699Y027008D02*
X016014Y026323D01*
X016014Y026134D01*
X015577Y025819D02*
X015577Y027110D01*
X015041Y027110D01*
X014415Y027736D01*
X014415Y029039D01*
X014908Y028976D02*
X014908Y027504D01*
X015577Y025819D02*
X015782Y025614D01*
X016612Y025614D01*
X016612Y028838D02*
X017884Y028838D01*
X018187Y030149D02*
X018187Y033748D01*
X017270Y034665D01*
X017270Y035472D01*
X017301Y032610D02*
X017526Y032610D01*
X017301Y032610D02*
X016809Y032118D01*
X017313Y030433D02*
X017089Y030209D01*
X017313Y030433D02*
X017813Y030433D01*
X019026Y030366D02*
X019026Y029866D01*
X016612Y029866D01*
X016305Y030173D01*
X016045Y029771D02*
X016270Y029547D01*
X019746Y029547D01*
X020341Y028953D01*
X020341Y027512D01*
X019982Y028606D02*
X019986Y028610D01*
X019986Y028960D01*
X019608Y029338D01*
X015758Y029338D01*
X015762Y029771D02*
X016045Y029771D01*
X019183Y028701D02*
X019569Y028701D01*
X019660Y028610D01*
X019982Y028610D01*
X019982Y028606D01*
X015817Y019271D02*
X015817Y019260D01*
M02*
