G75*
G70*
%OFA0B0*%
%FSLAX24Y24*%
%IPPOS*%
%LPD*%
%AMOC8*
5,1,8,0,0,1.08239X$1,22.5*
%
%ADD10R,0.0470X0.0220*%
%ADD11R,0.0220X0.0470*%
%ADD12R,0.0709X0.0472*%
%ADD13R,0.0591X0.0512*%
%ADD14R,0.0394X0.0079*%
%ADD15R,0.0079X0.0394*%
%ADD16R,0.0433X0.0394*%
%ADD17R,0.1102X0.1102*%
%ADD18R,0.1102X0.0866*%
%ADD19R,0.0394X0.0433*%
%ADD20R,0.0748X0.1016*%
%ADD21R,0.0512X0.0591*%
%ADD22R,0.0748X0.0433*%
%ADD23R,0.0118X0.0630*%
%ADD24R,0.0748X0.0551*%
%ADD25R,0.0551X0.0709*%
%ADD26R,0.0591X0.0315*%
%ADD27C,0.0515*%
%ADD28OC8,0.0520*%
%ADD29R,0.0260X0.0800*%
%ADD30R,0.0768X0.0591*%
%ADD31O,0.0600X0.1200*%
%ADD32R,0.0433X0.0906*%
%ADD33C,0.0160*%
%ADD34C,0.0120*%
%ADD35C,0.0100*%
%ADD36C,0.0317*%
%ADD37C,0.0071*%
%ADD38C,0.0118*%
%ADD39C,0.0315*%
D10*
X006381Y030389D03*
X006381Y030704D03*
X006381Y031019D03*
X006381Y031334D03*
X006381Y031649D03*
X006381Y031964D03*
X006381Y032279D03*
X006381Y032594D03*
X006381Y032909D03*
X006381Y033224D03*
X006381Y033539D03*
X006381Y033854D03*
X006381Y034169D03*
X006381Y034483D03*
X006381Y034798D03*
X006381Y035113D03*
X012523Y035113D03*
X012523Y034798D03*
X012523Y034483D03*
X012523Y034169D03*
X012523Y033854D03*
X012523Y033539D03*
X012523Y033224D03*
X012523Y032909D03*
X012523Y032594D03*
X012523Y032279D03*
X012523Y031964D03*
X012523Y031649D03*
X012523Y031334D03*
X012523Y031019D03*
X012523Y030704D03*
X012523Y030389D03*
D11*
X011814Y029680D03*
X011499Y029680D03*
X011184Y029680D03*
X010869Y029680D03*
X010554Y029680D03*
X010239Y029680D03*
X009924Y029680D03*
X009609Y029680D03*
X009294Y029680D03*
X008979Y029680D03*
X008664Y029680D03*
X008349Y029680D03*
X008034Y029680D03*
X007720Y029680D03*
X007405Y029680D03*
X007090Y029680D03*
X007090Y035822D03*
X007405Y035822D03*
X007720Y035822D03*
X008034Y035822D03*
X008349Y035822D03*
X008664Y035822D03*
X008979Y035822D03*
X009294Y035822D03*
X009609Y035822D03*
X009924Y035822D03*
X010239Y035822D03*
X010554Y035822D03*
X010869Y035822D03*
X011184Y035822D03*
X011499Y035822D03*
X011814Y035822D03*
D12*
X016715Y025106D03*
X016715Y024161D03*
X018289Y024161D03*
X018289Y025106D03*
D13*
X018289Y022358D03*
X018289Y021689D03*
X016813Y021697D03*
X016813Y022366D03*
X013805Y024523D03*
X013805Y025193D03*
X013805Y025838D03*
X013805Y026508D03*
X012935Y026508D03*
X012935Y025838D03*
X012935Y025193D03*
X012935Y024523D03*
X012525Y028831D03*
X012525Y029500D03*
X016195Y033909D03*
X016195Y034579D03*
X017274Y031516D03*
X017274Y030846D03*
X018443Y030846D03*
X018443Y031516D03*
X019797Y031520D03*
X019797Y030850D03*
X002935Y031287D03*
X002935Y031956D03*
D14*
X015825Y028890D03*
X015825Y028693D03*
X015825Y028496D03*
X015825Y028299D03*
X015825Y028102D03*
X015825Y027905D03*
X015825Y027709D03*
X015825Y027512D03*
X015825Y027315D03*
X015825Y027118D03*
X015825Y026921D03*
X015825Y026724D03*
X019171Y026724D03*
X019171Y026921D03*
X019171Y027118D03*
X019171Y027315D03*
X019171Y027512D03*
X019171Y027709D03*
X019171Y027905D03*
X019171Y028102D03*
X019171Y028299D03*
X019171Y028496D03*
X019171Y028693D03*
X019171Y028890D03*
D15*
X018581Y029480D03*
X018384Y029480D03*
X018187Y029480D03*
X017990Y029480D03*
X017793Y029480D03*
X017597Y029480D03*
X017400Y029480D03*
X017203Y029480D03*
X017006Y029480D03*
X016809Y029480D03*
X016612Y029480D03*
X016415Y029480D03*
X016415Y026134D03*
X016612Y026134D03*
X016809Y026134D03*
X017006Y026134D03*
X017203Y026134D03*
X017400Y026134D03*
X017597Y026134D03*
X017793Y026134D03*
X017990Y026134D03*
X018187Y026134D03*
X018384Y026134D03*
X018581Y026134D03*
D16*
X019809Y026252D03*
X019809Y026921D03*
X016195Y035460D03*
X016195Y036130D03*
X006368Y005520D03*
X006368Y004850D03*
D17*
X019947Y034557D03*
D18*
X019947Y038258D03*
X017034Y037470D03*
D19*
X018061Y032610D03*
X018730Y032610D03*
X019471Y032622D03*
X020140Y032622D03*
X017868Y023323D03*
X017199Y023323D03*
X006309Y007937D03*
X006309Y007098D03*
X005640Y007098D03*
X005640Y007937D03*
X009864Y004181D03*
X010533Y004181D03*
D20*
X005179Y031287D03*
X004077Y031287D03*
X004077Y033425D03*
X005176Y033425D03*
D21*
X005175Y034610D03*
X004506Y034610D03*
X019478Y025059D03*
X019478Y024264D03*
X019478Y023476D03*
X020148Y023476D03*
X020148Y024264D03*
X020148Y025059D03*
D22*
X005219Y030028D03*
X003920Y030028D03*
D23*
X010223Y003232D03*
X010419Y003232D03*
X010616Y003232D03*
X010813Y003232D03*
X011010Y003232D03*
X011207Y003232D03*
X011404Y003232D03*
X011600Y003232D03*
X011797Y003232D03*
X011994Y003232D03*
X012191Y003232D03*
X012388Y003232D03*
X012585Y003232D03*
X012782Y003232D03*
X012978Y003232D03*
X013175Y003232D03*
X013372Y003232D03*
X013569Y003232D03*
D24*
X020472Y013638D03*
X020079Y018914D03*
D25*
X014901Y018284D03*
X014901Y016040D03*
D26*
X018799Y016004D03*
X018957Y015571D03*
X018957Y016437D03*
X019035Y016871D03*
X018957Y017304D03*
X019035Y017737D03*
X018957Y018170D03*
X018957Y018603D03*
D27*
X005171Y038319D03*
X004187Y038319D03*
X003203Y038319D03*
D28*
X014070Y037055D03*
X015070Y037055D03*
D29*
X008539Y007938D03*
X008039Y007938D03*
X007539Y007938D03*
X007039Y007938D03*
X007039Y005518D03*
X007539Y005518D03*
X008039Y005518D03*
X008539Y005518D03*
D30*
X008044Y009003D03*
X009126Y009003D03*
D31*
X018908Y002512D03*
X019908Y002512D03*
D32*
X019817Y003937D03*
X019817Y006220D03*
X018360Y006220D03*
X017408Y006220D03*
X015951Y006220D03*
X015951Y003937D03*
X017408Y003937D03*
X018360Y003937D03*
D33*
X002667Y001696D02*
X002667Y007865D01*
X002716Y007816D01*
X002993Y007701D01*
X003294Y007701D01*
X003572Y007816D01*
X003784Y008029D01*
X003899Y008306D01*
X003899Y008607D01*
X003784Y008885D01*
X003572Y009097D01*
X003294Y009212D01*
X002993Y009212D01*
X002716Y009097D01*
X002667Y009048D01*
X002667Y020757D01*
X002685Y020739D01*
X002816Y020684D01*
X002959Y020684D01*
X003088Y020738D01*
X003090Y020735D01*
X003222Y020680D01*
X003365Y020680D01*
X003497Y020735D01*
X003498Y020737D01*
X003500Y020735D01*
X003631Y020680D01*
X003774Y020680D01*
X003906Y020735D01*
X003917Y020746D01*
X003925Y020739D01*
X004057Y020684D01*
X004199Y020684D01*
X004327Y020737D01*
X004454Y020684D01*
X004597Y020684D01*
X004729Y020739D01*
X004830Y020840D01*
X004884Y020972D01*
X004884Y021114D01*
X004830Y021246D01*
X004786Y021290D01*
X004786Y025569D01*
X005013Y025797D01*
X005013Y025736D01*
X005068Y025604D01*
X005092Y025580D01*
X005092Y024998D01*
X005092Y024766D01*
X005600Y024258D01*
X005600Y024224D01*
X005655Y024092D01*
X005756Y023991D01*
X005887Y023936D01*
X006030Y023936D01*
X006162Y023991D01*
X006263Y024092D01*
X006317Y024224D01*
X006317Y024366D01*
X006263Y024498D01*
X006162Y024599D01*
X006030Y024654D01*
X005996Y024654D01*
X005652Y024998D01*
X005652Y025580D01*
X005676Y025604D01*
X005731Y025736D01*
X005731Y025842D01*
X005741Y025842D01*
X006470Y025113D01*
X006470Y017744D01*
X006412Y017768D01*
X006269Y017768D01*
X006137Y017713D01*
X006036Y017612D01*
X005982Y017481D01*
X005982Y017338D01*
X006036Y017206D01*
X006061Y017182D01*
X006061Y015458D01*
X004108Y013506D01*
X004108Y013274D01*
X004108Y006092D01*
X004108Y005860D01*
X005754Y004215D01*
X005918Y004051D01*
X006141Y004051D01*
X006165Y004026D01*
X006297Y003972D01*
X006440Y003972D01*
X006571Y004026D01*
X006672Y004127D01*
X006727Y004259D01*
X006727Y004402D01*
X006694Y004481D01*
X006759Y004546D01*
X006759Y003217D01*
X006742Y003217D01*
X006610Y003162D01*
X006509Y003061D01*
X006454Y002929D01*
X006454Y002787D01*
X006509Y002655D01*
X006610Y002554D01*
X006742Y002499D01*
X006884Y002499D01*
X007016Y002554D01*
X007117Y002655D01*
X007172Y002787D01*
X007172Y002821D01*
X007319Y002968D01*
X007319Y003200D01*
X007319Y003234D01*
X007330Y003223D01*
X007462Y003169D01*
X007605Y003169D01*
X007737Y003223D01*
X007838Y003324D01*
X007892Y003456D01*
X007892Y003599D01*
X007838Y003731D01*
X007814Y003755D01*
X007814Y004059D01*
X007846Y004026D01*
X007978Y003972D01*
X008121Y003972D01*
X008252Y004026D01*
X008307Y004081D01*
X008930Y004081D01*
X009425Y003585D01*
X009572Y003439D01*
X009963Y003439D01*
X009963Y002834D01*
X010081Y002717D01*
X010364Y002717D01*
X010366Y002719D01*
X010366Y002593D01*
X010502Y002458D01*
X010502Y002381D01*
X010556Y002249D01*
X010617Y002189D01*
X010584Y002156D01*
X010529Y002024D01*
X010529Y001881D01*
X010584Y001749D01*
X010637Y001696D01*
X009776Y001696D01*
X009805Y001725D01*
X009935Y002039D01*
X009935Y002378D01*
X009805Y002692D01*
X009565Y002932D01*
X009251Y003062D01*
X008911Y003062D01*
X008597Y002932D01*
X008357Y002692D01*
X008227Y002378D01*
X008227Y002039D01*
X008357Y001725D01*
X008385Y001696D01*
X002667Y001696D01*
X002667Y001800D02*
X008326Y001800D01*
X008260Y001959D02*
X002667Y001959D01*
X002667Y002117D02*
X008227Y002117D01*
X008227Y002276D02*
X002667Y002276D01*
X002667Y002434D02*
X008250Y002434D01*
X008316Y002593D02*
X007055Y002593D01*
X007157Y002751D02*
X008416Y002751D01*
X008574Y002910D02*
X007261Y002910D01*
X007319Y003069D02*
X009963Y003069D01*
X009963Y003227D02*
X007741Y003227D01*
X007863Y003386D02*
X009963Y003386D01*
X009963Y002910D02*
X009587Y002910D01*
X009746Y002751D02*
X010046Y002751D01*
X009846Y002593D02*
X010366Y002593D01*
X010502Y002434D02*
X009912Y002434D01*
X009935Y002276D02*
X010545Y002276D01*
X010568Y002117D02*
X009935Y002117D01*
X009902Y001959D02*
X010529Y001959D01*
X010563Y001800D02*
X009836Y001800D01*
X009466Y003544D02*
X007892Y003544D01*
X007849Y003703D02*
X009308Y003703D01*
X009149Y003861D02*
X007814Y003861D01*
X007814Y004020D02*
X007862Y004020D01*
X008236Y004020D02*
X008991Y004020D01*
X009381Y004337D02*
X009467Y004337D01*
X009467Y004250D02*
X009137Y004581D01*
X008930Y004581D01*
X008307Y004581D01*
X008252Y004635D01*
X008121Y004689D01*
X007978Y004689D01*
X007846Y004635D01*
X007814Y004602D01*
X007814Y004979D01*
X007869Y005035D01*
X007869Y006001D01*
X007819Y006051D01*
X007819Y006327D01*
X007819Y006559D01*
X007632Y006746D01*
X007632Y006780D01*
X007578Y006912D01*
X007577Y006912D01*
X007645Y006980D01*
X007797Y007132D01*
X007797Y007383D01*
X007869Y007455D01*
X007869Y008421D01*
X007797Y008492D01*
X007797Y008525D01*
X007612Y008710D01*
X007612Y025703D01*
X007612Y025919D01*
X006715Y026816D01*
X006715Y026878D01*
X006660Y027010D01*
X006560Y027111D01*
X006428Y027166D01*
X006384Y027166D01*
X007337Y028117D01*
X007400Y028117D01*
X007532Y028172D01*
X007633Y028273D01*
X007688Y028405D01*
X007688Y028406D01*
X007729Y028304D01*
X007830Y028204D01*
X007962Y028149D01*
X008105Y028149D01*
X008237Y028204D01*
X008338Y028304D01*
X008391Y028432D01*
X008420Y028432D01*
X008509Y028469D01*
X008254Y028215D01*
X008254Y028147D01*
X008254Y028098D01*
X008254Y027983D01*
X008254Y027982D01*
X008258Y026034D01*
X008234Y026010D01*
X008179Y025878D01*
X008179Y025735D01*
X008234Y025603D01*
X008335Y025502D01*
X008466Y025448D01*
X008501Y025448D01*
X008915Y025033D01*
X008915Y021309D01*
X008254Y020648D01*
X008254Y020416D01*
X008254Y019502D01*
X008230Y019478D01*
X008175Y019346D01*
X008175Y019204D01*
X008230Y019072D01*
X008331Y018971D01*
X008463Y018916D01*
X008605Y018916D01*
X008737Y018971D01*
X008838Y019072D01*
X008893Y019204D01*
X008893Y019346D01*
X008838Y019478D01*
X008814Y019502D01*
X008814Y020416D01*
X009311Y020913D01*
X009331Y020933D01*
X009331Y020558D01*
X009477Y020411D01*
X009870Y020018D01*
X009870Y018849D01*
X010017Y018703D01*
X010283Y018436D01*
X010283Y005134D01*
X010263Y005183D01*
X010162Y005284D01*
X010030Y005339D01*
X009887Y005339D01*
X009756Y005284D01*
X009731Y005260D01*
X008869Y005260D01*
X008869Y006001D01*
X008752Y006118D01*
X008326Y006118D01*
X008209Y006001D01*
X008209Y005035D01*
X008259Y004985D01*
X008259Y004864D01*
X008423Y004700D01*
X009731Y004700D01*
X009756Y004676D01*
X009887Y004621D01*
X010030Y004621D01*
X010162Y004676D01*
X010263Y004777D01*
X010283Y004827D01*
X010283Y004761D01*
X010283Y004597D01*
X010254Y004597D01*
X010199Y004542D01*
X010144Y004597D01*
X009584Y004597D01*
X009467Y004480D01*
X009467Y004250D01*
X009483Y004495D02*
X009222Y004495D01*
X009809Y004654D02*
X008206Y004654D01*
X008311Y004812D02*
X007814Y004812D01*
X007814Y004654D02*
X007893Y004654D01*
X007814Y004971D02*
X008259Y004971D01*
X008209Y005130D02*
X007869Y005130D01*
X007869Y005288D02*
X008209Y005288D01*
X008209Y005447D02*
X007869Y005447D01*
X007869Y005605D02*
X008209Y005605D01*
X008209Y005764D02*
X007869Y005764D01*
X007869Y005922D02*
X008209Y005922D01*
X008289Y006081D02*
X007819Y006081D01*
X007819Y006239D02*
X010283Y006239D01*
X010283Y006081D02*
X008789Y006081D01*
X008869Y005922D02*
X010283Y005922D01*
X010283Y005764D02*
X008869Y005764D01*
X008869Y005605D02*
X010283Y005605D01*
X010283Y005447D02*
X008869Y005447D01*
X008869Y005288D02*
X009765Y005288D01*
X009959Y004980D02*
X008539Y004980D01*
X008539Y005518D01*
X008041Y005523D02*
X008041Y007937D01*
X008041Y009008D01*
X008044Y009006D01*
X008044Y009003D01*
X007612Y008935D02*
X008542Y008935D01*
X008542Y009093D02*
X007612Y009093D01*
X007612Y009252D02*
X008542Y009252D01*
X008542Y009381D02*
X008542Y008624D01*
X008629Y008538D01*
X008326Y008538D01*
X008209Y008421D01*
X008209Y007455D01*
X008326Y007338D01*
X008752Y007338D01*
X008869Y007455D01*
X008869Y007657D01*
X008975Y007657D01*
X009000Y007633D01*
X009131Y007578D01*
X009274Y007578D01*
X009406Y007633D01*
X009507Y007734D01*
X009562Y007865D01*
X009562Y008008D01*
X009507Y008140D01*
X009479Y008168D01*
X009479Y008507D01*
X009593Y008507D01*
X009710Y008624D01*
X009710Y009381D01*
X009593Y009498D01*
X008660Y009498D01*
X008542Y009381D01*
X008572Y009410D02*
X007612Y009410D01*
X007612Y009569D02*
X010283Y009569D01*
X010283Y009727D02*
X007612Y009727D01*
X007612Y009886D02*
X010283Y009886D01*
X010283Y010044D02*
X007612Y010044D01*
X007612Y010203D02*
X010283Y010203D01*
X010283Y010361D02*
X007612Y010361D01*
X007612Y010520D02*
X010283Y010520D01*
X010283Y010679D02*
X007612Y010679D01*
X007612Y010837D02*
X010283Y010837D01*
X010283Y010996D02*
X007612Y010996D01*
X007612Y011154D02*
X010283Y011154D01*
X010283Y011313D02*
X007612Y011313D01*
X007612Y011471D02*
X010283Y011471D01*
X010283Y011630D02*
X007612Y011630D01*
X007612Y011788D02*
X010283Y011788D01*
X010283Y011947D02*
X007612Y011947D01*
X007612Y012105D02*
X010283Y012105D01*
X010283Y012264D02*
X007612Y012264D01*
X007612Y012423D02*
X010283Y012423D01*
X010283Y012581D02*
X007612Y012581D01*
X007612Y012740D02*
X010283Y012740D01*
X010283Y012898D02*
X007612Y012898D01*
X007612Y013057D02*
X010283Y013057D01*
X010283Y013215D02*
X007612Y013215D01*
X007612Y013374D02*
X010283Y013374D01*
X010283Y013532D02*
X007612Y013532D01*
X007612Y013691D02*
X010283Y013691D01*
X010283Y013849D02*
X007612Y013849D01*
X007612Y014008D02*
X010283Y014008D01*
X010283Y014167D02*
X007612Y014167D01*
X007612Y014325D02*
X010283Y014325D01*
X010283Y014484D02*
X007612Y014484D01*
X007612Y014642D02*
X010283Y014642D01*
X010283Y014801D02*
X007612Y014801D01*
X007612Y014959D02*
X010283Y014959D01*
X010283Y015118D02*
X007612Y015118D01*
X007612Y015276D02*
X010283Y015276D01*
X010283Y015435D02*
X007612Y015435D01*
X007612Y015593D02*
X010283Y015593D01*
X010283Y015752D02*
X007612Y015752D01*
X007612Y015911D02*
X010283Y015911D01*
X010283Y016069D02*
X007612Y016069D01*
X007612Y016228D02*
X010283Y016228D01*
X010283Y016386D02*
X007612Y016386D01*
X007612Y016545D02*
X010283Y016545D01*
X010283Y016703D02*
X007612Y016703D01*
X007612Y016862D02*
X010283Y016862D01*
X010283Y017020D02*
X007612Y017020D01*
X007612Y017179D02*
X010283Y017179D01*
X010283Y017337D02*
X007612Y017337D01*
X007612Y017496D02*
X010283Y017496D01*
X010283Y017654D02*
X007612Y017654D01*
X007612Y017813D02*
X010283Y017813D01*
X010283Y017972D02*
X007612Y017972D01*
X007612Y018130D02*
X010283Y018130D01*
X010283Y018289D02*
X007612Y018289D01*
X007612Y018447D02*
X010272Y018447D01*
X010113Y018606D02*
X007612Y018606D01*
X007612Y018764D02*
X009955Y018764D01*
X009870Y018923D02*
X008621Y018923D01*
X008447Y018923D02*
X007612Y018923D01*
X007612Y019081D02*
X008226Y019081D01*
X008175Y019240D02*
X007612Y019240D01*
X007612Y019398D02*
X008197Y019398D01*
X008254Y019557D02*
X007612Y019557D01*
X007612Y019716D02*
X008254Y019716D01*
X008254Y019874D02*
X007612Y019874D01*
X007612Y020033D02*
X008254Y020033D01*
X008254Y020191D02*
X007612Y020191D01*
X007612Y020350D02*
X008254Y020350D01*
X008254Y020508D02*
X007612Y020508D01*
X007612Y020667D02*
X008273Y020667D01*
X008432Y020825D02*
X007612Y020825D01*
X007612Y020984D02*
X008590Y020984D01*
X008749Y021142D02*
X007612Y021142D01*
X007612Y021301D02*
X008907Y021301D01*
X008915Y021460D02*
X007612Y021460D01*
X007612Y021618D02*
X008915Y021618D01*
X008915Y021777D02*
X007612Y021777D01*
X007612Y021935D02*
X008915Y021935D01*
X008915Y022094D02*
X007612Y022094D01*
X007612Y022252D02*
X008915Y022252D01*
X008915Y022411D02*
X007612Y022411D01*
X007612Y022569D02*
X008915Y022569D01*
X008915Y022728D02*
X007612Y022728D01*
X007612Y022886D02*
X008915Y022886D01*
X008915Y023045D02*
X007612Y023045D01*
X007612Y023204D02*
X008915Y023204D01*
X008915Y023362D02*
X007612Y023362D01*
X007612Y023521D02*
X008915Y023521D01*
X008915Y023679D02*
X007612Y023679D01*
X007612Y023838D02*
X008915Y023838D01*
X008915Y023996D02*
X007612Y023996D01*
X007612Y024155D02*
X008915Y024155D01*
X008915Y024313D02*
X007612Y024313D01*
X007612Y024472D02*
X008915Y024472D01*
X008915Y024630D02*
X007612Y024630D01*
X007612Y024789D02*
X008915Y024789D01*
X008915Y024947D02*
X007612Y024947D01*
X007612Y025106D02*
X008842Y025106D01*
X008684Y025265D02*
X007612Y025265D01*
X007612Y025423D02*
X008525Y025423D01*
X008538Y025807D02*
X009195Y025149D01*
X009195Y021193D01*
X008534Y020532D01*
X008534Y019275D01*
X008871Y019398D02*
X009870Y019398D01*
X009870Y019240D02*
X008893Y019240D01*
X008842Y019081D02*
X009870Y019081D01*
X009870Y019557D02*
X008814Y019557D01*
X008814Y019716D02*
X009870Y019716D01*
X009870Y019874D02*
X008814Y019874D01*
X008814Y020033D02*
X009856Y020033D01*
X009697Y020191D02*
X008814Y020191D01*
X008814Y020350D02*
X009539Y020350D01*
X009380Y020508D02*
X008906Y020508D01*
X009065Y020667D02*
X009331Y020667D01*
X009331Y020825D02*
X009224Y020825D01*
X008656Y023512D02*
X008656Y024665D01*
X008494Y024827D01*
X008255Y025582D02*
X007612Y025582D01*
X007612Y025740D02*
X008179Y025740D01*
X008188Y025899D02*
X007612Y025899D01*
X007474Y026057D02*
X008257Y026057D01*
X008257Y026216D02*
X007315Y026216D01*
X007157Y026374D02*
X008257Y026374D01*
X008257Y026533D02*
X006998Y026533D01*
X006839Y026691D02*
X008256Y026691D01*
X008256Y026850D02*
X006715Y026850D01*
X006661Y027009D02*
X008256Y027009D01*
X008256Y027167D02*
X006386Y027167D01*
X006544Y027326D02*
X008255Y027326D01*
X008255Y027484D02*
X006703Y027484D01*
X006862Y027643D02*
X008255Y027643D01*
X008254Y027801D02*
X007021Y027801D01*
X007180Y027960D02*
X008254Y027960D01*
X008254Y028098D02*
X008254Y028098D01*
X008254Y028118D02*
X007402Y028118D01*
X007635Y028277D02*
X007757Y028277D01*
X008310Y028277D02*
X008316Y028277D01*
X008427Y028435D02*
X008475Y028435D01*
X008534Y028099D02*
X009104Y028669D01*
X009104Y029075D01*
X008534Y028099D02*
X008538Y025807D01*
X008537Y025807D01*
X006470Y025106D02*
X005652Y025106D01*
X005652Y025265D02*
X006318Y025265D01*
X006160Y025423D02*
X005652Y025423D01*
X005654Y025582D02*
X006001Y025582D01*
X005843Y025740D02*
X005731Y025740D01*
X005372Y025807D02*
X005372Y024882D01*
X005959Y024295D01*
X006087Y024630D02*
X006470Y024630D01*
X006470Y024472D02*
X006274Y024472D01*
X006317Y024313D02*
X006470Y024313D01*
X006470Y024155D02*
X006289Y024155D01*
X006167Y023996D02*
X006470Y023996D01*
X006470Y023838D02*
X004786Y023838D01*
X004786Y023996D02*
X005750Y023996D01*
X005629Y024155D02*
X004786Y024155D01*
X004786Y024313D02*
X005545Y024313D01*
X005386Y024472D02*
X004786Y024472D01*
X004786Y024630D02*
X005227Y024630D01*
X005092Y024789D02*
X004786Y024789D01*
X004786Y024947D02*
X005092Y024947D01*
X005092Y025106D02*
X004786Y025106D01*
X004786Y025265D02*
X005092Y025265D01*
X005092Y025423D02*
X004786Y025423D01*
X004798Y025582D02*
X005090Y025582D01*
X005013Y025740D02*
X004957Y025740D01*
X005702Y024947D02*
X006470Y024947D01*
X006470Y024789D02*
X005861Y024789D01*
X006470Y023679D02*
X004786Y023679D01*
X004786Y023521D02*
X006470Y023521D01*
X006470Y023362D02*
X004786Y023362D01*
X004786Y023204D02*
X006470Y023204D01*
X006470Y023045D02*
X004786Y023045D01*
X004786Y022886D02*
X006470Y022886D01*
X006470Y022728D02*
X004786Y022728D01*
X004786Y022569D02*
X006470Y022569D01*
X006470Y022411D02*
X004786Y022411D01*
X004786Y022252D02*
X006470Y022252D01*
X006470Y022094D02*
X004786Y022094D01*
X004786Y021935D02*
X006470Y021935D01*
X006470Y021777D02*
X004786Y021777D01*
X004786Y021618D02*
X006470Y021618D01*
X006470Y021460D02*
X004786Y021460D01*
X004786Y021301D02*
X006470Y021301D01*
X006470Y021142D02*
X004873Y021142D01*
X004884Y020984D02*
X006470Y020984D01*
X006470Y020825D02*
X004815Y020825D01*
X006470Y020667D02*
X002667Y020667D01*
X002667Y020508D02*
X006470Y020508D01*
X006470Y020350D02*
X002667Y020350D01*
X002667Y020191D02*
X006470Y020191D01*
X006470Y020033D02*
X002667Y020033D01*
X002667Y019874D02*
X006470Y019874D01*
X006470Y019716D02*
X002667Y019716D01*
X002667Y019557D02*
X006470Y019557D01*
X006470Y019398D02*
X002667Y019398D01*
X002667Y019240D02*
X006470Y019240D01*
X006470Y019081D02*
X002667Y019081D01*
X002667Y018923D02*
X006470Y018923D01*
X006470Y018764D02*
X002667Y018764D01*
X002667Y018606D02*
X006470Y018606D01*
X006470Y018447D02*
X002667Y018447D01*
X002667Y018289D02*
X006470Y018289D01*
X006470Y018130D02*
X002667Y018130D01*
X002667Y017972D02*
X006470Y017972D01*
X006470Y017813D02*
X002667Y017813D01*
X002667Y017654D02*
X006079Y017654D01*
X005988Y017496D02*
X002667Y017496D01*
X002667Y017337D02*
X005982Y017337D01*
X006061Y017179D02*
X002667Y017179D01*
X002667Y017020D02*
X006061Y017020D01*
X006061Y016862D02*
X002667Y016862D01*
X002667Y016703D02*
X006061Y016703D01*
X006061Y016545D02*
X002667Y016545D01*
X002667Y016386D02*
X006061Y016386D01*
X006061Y016228D02*
X002667Y016228D01*
X002667Y016069D02*
X006061Y016069D01*
X006061Y015911D02*
X002667Y015911D01*
X002667Y015752D02*
X006061Y015752D01*
X006061Y015593D02*
X002667Y015593D01*
X002667Y015435D02*
X006037Y015435D01*
X005879Y015276D02*
X002667Y015276D01*
X002667Y015118D02*
X005720Y015118D01*
X005562Y014959D02*
X002667Y014959D01*
X002667Y014801D02*
X005403Y014801D01*
X005244Y014642D02*
X002667Y014642D01*
X002667Y014484D02*
X005086Y014484D01*
X004927Y014325D02*
X002667Y014325D01*
X002667Y014167D02*
X004769Y014167D01*
X004610Y014008D02*
X002667Y014008D01*
X002667Y013849D02*
X004452Y013849D01*
X004293Y013691D02*
X002667Y013691D01*
X002667Y013532D02*
X004135Y013532D01*
X004108Y013374D02*
X002667Y013374D01*
X002667Y013215D02*
X004108Y013215D01*
X004108Y013057D02*
X002667Y013057D01*
X002667Y012898D02*
X004108Y012898D01*
X004108Y012740D02*
X002667Y012740D01*
X002667Y012581D02*
X004108Y012581D01*
X004108Y012423D02*
X002667Y012423D01*
X002667Y012264D02*
X004108Y012264D01*
X004108Y012105D02*
X002667Y012105D01*
X002667Y011947D02*
X004108Y011947D01*
X004108Y011788D02*
X002667Y011788D01*
X002667Y011630D02*
X004108Y011630D01*
X004108Y011471D02*
X002667Y011471D01*
X002667Y011313D02*
X004108Y011313D01*
X004108Y011154D02*
X002667Y011154D01*
X002667Y010996D02*
X004108Y010996D01*
X004108Y010837D02*
X002667Y010837D01*
X002667Y010679D02*
X004108Y010679D01*
X004108Y010520D02*
X002667Y010520D01*
X002667Y010361D02*
X004108Y010361D01*
X004108Y010203D02*
X002667Y010203D01*
X002667Y010044D02*
X004108Y010044D01*
X004108Y009886D02*
X002667Y009886D01*
X002667Y009727D02*
X004108Y009727D01*
X004108Y009569D02*
X002667Y009569D01*
X002667Y009410D02*
X004108Y009410D01*
X004108Y009252D02*
X002667Y009252D01*
X002667Y009093D02*
X002712Y009093D01*
X002667Y007825D02*
X002707Y007825D01*
X002667Y007666D02*
X004108Y007666D01*
X004108Y007508D02*
X002667Y007508D01*
X002667Y007349D02*
X004108Y007349D01*
X004108Y007191D02*
X002667Y007191D01*
X002667Y007032D02*
X004108Y007032D01*
X004108Y006874D02*
X002667Y006874D01*
X002667Y006715D02*
X004108Y006715D01*
X004108Y006556D02*
X002667Y006556D01*
X002667Y006398D02*
X004108Y006398D01*
X004108Y006239D02*
X002667Y006239D01*
X002667Y006081D02*
X004108Y006081D01*
X004108Y005922D02*
X002667Y005922D01*
X002667Y005764D02*
X004204Y005764D01*
X004363Y005605D02*
X002667Y005605D01*
X002667Y005447D02*
X004521Y005447D01*
X004680Y005288D02*
X002667Y005288D01*
X002667Y005130D02*
X004839Y005130D01*
X004997Y004971D02*
X002667Y004971D01*
X002667Y004812D02*
X005156Y004812D01*
X005314Y004654D02*
X002667Y004654D01*
X002667Y004495D02*
X005473Y004495D01*
X005631Y004337D02*
X002667Y004337D01*
X002667Y004178D02*
X005790Y004178D01*
X006034Y004331D02*
X006368Y004331D01*
X006034Y004331D02*
X004388Y005976D01*
X004388Y013390D01*
X006341Y015342D01*
X006341Y017409D01*
X009681Y009410D02*
X010283Y009410D01*
X010283Y009252D02*
X009710Y009252D01*
X009710Y009093D02*
X010283Y009093D01*
X010283Y008935D02*
X009710Y008935D01*
X009710Y008776D02*
X010283Y008776D01*
X010283Y008618D02*
X009703Y008618D01*
X009479Y008459D02*
X010283Y008459D01*
X010283Y008300D02*
X009479Y008300D01*
X009505Y008142D02*
X010283Y008142D01*
X010283Y007983D02*
X009562Y007983D01*
X009545Y007825D02*
X010283Y007825D01*
X010283Y007666D02*
X009440Y007666D01*
X009199Y007933D02*
X009199Y007937D01*
X009199Y009003D01*
X009126Y009003D01*
X008542Y008776D02*
X007612Y008776D01*
X007705Y008618D02*
X008549Y008618D01*
X008248Y008459D02*
X007831Y008459D01*
X007869Y008300D02*
X008209Y008300D01*
X008209Y008142D02*
X007869Y008142D01*
X007869Y007983D02*
X008209Y007983D01*
X008209Y007825D02*
X007869Y007825D01*
X007869Y007666D02*
X008209Y007666D01*
X008209Y007508D02*
X007869Y007508D01*
X007797Y007349D02*
X008315Y007349D01*
X008541Y007937D02*
X009203Y007937D01*
X009199Y007937D01*
X008869Y007508D02*
X010283Y007508D01*
X010283Y007349D02*
X008763Y007349D01*
X008541Y007937D02*
X008541Y007938D01*
X008539Y007938D01*
X008041Y007937D02*
X008040Y007937D01*
X008039Y007938D01*
X007797Y007191D02*
X010283Y007191D01*
X010283Y007032D02*
X007697Y007032D01*
X007594Y006874D02*
X010283Y006874D01*
X010283Y006715D02*
X007663Y006715D01*
X007819Y006556D02*
X010283Y006556D01*
X010283Y006398D02*
X007819Y006398D01*
X007539Y006443D02*
X007539Y005518D01*
X007539Y005517D01*
X007534Y005512D01*
X007534Y003527D01*
X007327Y003227D02*
X007319Y003227D01*
X007039Y003084D02*
X006813Y002858D01*
X007039Y003084D02*
X007039Y005518D01*
X006370Y005518D01*
X006368Y005520D01*
X006368Y005520D01*
X006368Y004854D02*
X006368Y004850D01*
X006368Y004846D01*
X006368Y004850D02*
X006368Y004854D01*
X006368Y004854D01*
X006709Y004495D02*
X006759Y004495D01*
X006759Y004337D02*
X006727Y004337D01*
X006693Y004178D02*
X006759Y004178D01*
X006759Y004020D02*
X006555Y004020D01*
X006759Y003861D02*
X002667Y003861D01*
X002667Y003703D02*
X006759Y003703D01*
X006759Y003544D02*
X002667Y003544D01*
X002667Y003386D02*
X006759Y003386D01*
X006759Y003227D02*
X002667Y003227D01*
X002667Y003069D02*
X006516Y003069D01*
X006454Y002910D02*
X002667Y002910D01*
X002667Y002751D02*
X006469Y002751D01*
X006571Y002593D02*
X002667Y002593D01*
X002667Y004020D02*
X006181Y004020D01*
X007539Y006443D02*
X007274Y006709D01*
X008041Y005523D02*
X008039Y005521D01*
X008039Y005518D01*
X010109Y004654D02*
X010283Y004654D01*
X010278Y004812D02*
X010283Y004812D01*
X010283Y005288D02*
X010153Y005288D01*
X011654Y002717D02*
X011742Y002717D01*
X011939Y002717D01*
X012136Y002717D01*
X012246Y002717D01*
X012530Y002717D01*
X012727Y002717D01*
X012923Y002717D01*
X013120Y002717D01*
X013317Y002717D01*
X013514Y002717D01*
X013711Y002717D01*
X013828Y002834D01*
X013828Y003630D01*
X013711Y003747D01*
X013514Y003747D01*
X013317Y003747D01*
X013120Y003747D01*
X012923Y003747D01*
X012727Y003747D01*
X012638Y003747D01*
X012638Y003873D01*
X018000Y009235D01*
X018000Y009442D01*
X018000Y015195D01*
X018054Y015249D01*
X018109Y015381D01*
X018109Y015524D01*
X018054Y015656D01*
X017956Y015754D01*
X018314Y015754D01*
X018421Y015647D01*
X018461Y015647D01*
X018461Y015331D01*
X018578Y015214D01*
X019335Y015214D01*
X019452Y015331D01*
X019452Y015812D01*
X019335Y015929D01*
X019294Y015929D01*
X019294Y016080D01*
X019335Y016080D01*
X019452Y016197D01*
X019452Y016551D01*
X019531Y016630D01*
X019531Y017111D01*
X019452Y017190D01*
X019452Y017544D01*
X019335Y017661D01*
X018578Y017661D01*
X018484Y017567D01*
X018396Y017567D01*
X018422Y017578D01*
X018523Y017679D01*
X018577Y017810D01*
X018577Y017813D01*
X018578Y017813D01*
X018578Y017812D02*
X019335Y017812D01*
X019452Y017929D01*
X019452Y018410D01*
X019452Y018843D01*
X019335Y018960D01*
X018578Y018960D01*
X018461Y018843D01*
X018461Y018503D01*
X014256Y022708D01*
X014278Y022708D01*
X014410Y022763D01*
X014454Y022807D01*
X014783Y022807D01*
X014935Y022959D01*
X015490Y023514D01*
X015490Y023730D01*
X015490Y025560D01*
X015534Y025604D01*
X015589Y025736D01*
X015589Y025878D01*
X015581Y025898D01*
X015742Y025898D01*
X015811Y025830D01*
X015942Y025775D01*
X016085Y025775D01*
X016205Y025825D01*
X016280Y025750D01*
X016254Y025685D01*
X016254Y025543D01*
X016261Y025526D01*
X016160Y025425D01*
X016160Y025386D01*
X016146Y025386D01*
X015914Y025386D01*
X015750Y025222D01*
X015750Y023439D01*
X015750Y023207D01*
X015914Y023043D01*
X016533Y023043D01*
X016533Y022822D01*
X016435Y022822D01*
X016318Y022705D01*
X016318Y022027D01*
X016435Y021910D01*
X017191Y021910D01*
X017308Y022027D01*
X017308Y022705D01*
X017191Y022822D01*
X017093Y022822D01*
X017093Y022906D01*
X017479Y022906D01*
X017534Y022961D01*
X017588Y022906D01*
X018009Y022906D01*
X018009Y022814D01*
X017911Y022814D01*
X017794Y022697D01*
X017794Y022019D01*
X017911Y021902D01*
X018668Y021902D01*
X018785Y022019D01*
X018785Y022697D01*
X018668Y022814D01*
X018569Y022814D01*
X018569Y023439D01*
X018569Y023725D01*
X018727Y023725D01*
X018844Y023842D01*
X018844Y024480D01*
X018727Y024597D01*
X018029Y024597D01*
X018029Y024670D01*
X018727Y024670D01*
X018844Y024787D01*
X018844Y025425D01*
X018780Y025489D01*
X019744Y025489D01*
X019692Y025437D01*
X019692Y024681D01*
X019711Y024661D01*
X019692Y024642D01*
X019692Y023885D01*
X019707Y023870D01*
X019692Y023854D01*
X019692Y023098D01*
X019809Y022981D01*
X020486Y022981D01*
X020604Y023098D01*
X020604Y023854D01*
X020588Y023870D01*
X020604Y023885D01*
X020604Y024642D01*
X020584Y024661D01*
X020604Y024681D01*
X020604Y025437D01*
X020552Y025489D01*
X020615Y025489D01*
X020707Y025581D01*
X020707Y022694D01*
X020436Y022807D01*
X020135Y022807D01*
X019857Y022692D01*
X019645Y022479D01*
X019530Y022201D01*
X019530Y021901D01*
X019645Y021623D01*
X019857Y021410D01*
X020135Y021295D01*
X020436Y021295D01*
X020707Y021408D01*
X020707Y014114D01*
X020015Y014114D01*
X019898Y013997D01*
X019898Y013280D01*
X020015Y013163D01*
X020707Y013163D01*
X020707Y009100D01*
X020436Y009212D01*
X020135Y009212D01*
X019857Y009097D01*
X019645Y008885D01*
X019530Y008607D01*
X019530Y008306D01*
X019645Y008029D01*
X019857Y007816D01*
X020135Y007701D01*
X020436Y007701D01*
X020707Y007813D01*
X020707Y001696D01*
X015485Y001696D01*
X015513Y001725D01*
X015643Y002039D01*
X015643Y002378D01*
X015513Y002692D01*
X015273Y002932D01*
X014959Y003062D01*
X014620Y003062D01*
X014306Y002932D01*
X014065Y002692D01*
X013935Y002378D01*
X013935Y002039D01*
X014065Y001725D01*
X014094Y001696D01*
X011139Y001696D01*
X011145Y001703D01*
X011507Y001703D01*
X011654Y001849D01*
X011654Y002056D01*
X011654Y002717D01*
X011654Y002593D02*
X014024Y002593D01*
X013959Y002434D02*
X011654Y002434D01*
X011654Y002276D02*
X013935Y002276D01*
X013935Y002117D02*
X011654Y002117D01*
X011654Y001959D02*
X013969Y001959D01*
X014034Y001800D02*
X011605Y001800D01*
X012638Y003861D02*
X014033Y003861D01*
X014031Y003865D02*
X014086Y003734D01*
X014186Y003633D01*
X014318Y003578D01*
X014461Y003578D01*
X014593Y003633D01*
X014647Y003687D01*
X015534Y003687D01*
X015534Y003401D01*
X015651Y003284D01*
X016250Y003284D01*
X016367Y003401D01*
X016367Y004472D01*
X016308Y004531D01*
X016308Y005626D01*
X016367Y005685D01*
X016367Y006756D01*
X016250Y006873D01*
X015651Y006873D01*
X015534Y006756D01*
X015534Y005685D01*
X015593Y005626D01*
X015593Y004531D01*
X015534Y004472D01*
X015534Y004187D01*
X014647Y004187D01*
X014593Y004241D01*
X014461Y004296D01*
X014318Y004296D01*
X014186Y004241D01*
X014086Y004140D01*
X014031Y004008D01*
X014031Y003865D01*
X014036Y004020D02*
X012785Y004020D01*
X012943Y004178D02*
X014124Y004178D01*
X014116Y003703D02*
X013755Y003703D01*
X013828Y003544D02*
X015534Y003544D01*
X015550Y003386D02*
X013828Y003386D01*
X013828Y003227D02*
X018616Y003227D01*
X018700Y003312D02*
X018408Y003019D01*
X018408Y002005D01*
X018700Y001712D01*
X019115Y001712D01*
X019408Y002005D01*
X019408Y003019D01*
X019115Y003312D01*
X018700Y003312D01*
X018457Y003069D02*
X013828Y003069D01*
X013828Y002910D02*
X014283Y002910D01*
X014125Y002751D02*
X013745Y002751D01*
X013102Y004337D02*
X015534Y004337D01*
X015557Y004495D02*
X013261Y004495D01*
X013419Y004654D02*
X015593Y004654D01*
X015593Y004812D02*
X013578Y004812D01*
X013736Y004971D02*
X015593Y004971D01*
X015593Y005130D02*
X013895Y005130D01*
X014053Y005288D02*
X015593Y005288D01*
X015593Y005447D02*
X014212Y005447D01*
X014370Y005605D02*
X015593Y005605D01*
X015534Y005764D02*
X014529Y005764D01*
X014687Y005922D02*
X015534Y005922D01*
X015534Y006081D02*
X014846Y006081D01*
X015005Y006239D02*
X015534Y006239D01*
X015534Y006398D02*
X015163Y006398D01*
X015322Y006556D02*
X015534Y006556D01*
X015534Y006715D02*
X015480Y006715D01*
X015639Y006874D02*
X020707Y006874D01*
X020707Y007032D02*
X015797Y007032D01*
X015956Y007191D02*
X020707Y007191D01*
X020707Y007349D02*
X016114Y007349D01*
X016273Y007508D02*
X020707Y007508D01*
X020707Y007666D02*
X016431Y007666D01*
X016590Y007825D02*
X019849Y007825D01*
X019690Y007983D02*
X016749Y007983D01*
X016907Y008142D02*
X019598Y008142D01*
X019532Y008300D02*
X017066Y008300D01*
X017224Y008459D02*
X019530Y008459D01*
X019534Y008618D02*
X017383Y008618D01*
X017541Y008776D02*
X019600Y008776D01*
X019695Y008935D02*
X017700Y008935D01*
X017858Y009093D02*
X019854Y009093D01*
X020707Y009252D02*
X018000Y009252D01*
X018000Y009410D02*
X020707Y009410D01*
X020707Y009569D02*
X018000Y009569D01*
X018000Y009727D02*
X020707Y009727D01*
X020707Y009886D02*
X018000Y009886D01*
X018000Y010044D02*
X020707Y010044D01*
X020707Y010203D02*
X018000Y010203D01*
X018000Y010361D02*
X020707Y010361D01*
X020707Y010520D02*
X018000Y010520D01*
X018000Y010679D02*
X020707Y010679D01*
X020707Y010837D02*
X018000Y010837D01*
X018000Y010996D02*
X020707Y010996D01*
X020707Y011154D02*
X018000Y011154D01*
X018000Y011313D02*
X020707Y011313D01*
X020707Y011471D02*
X018000Y011471D01*
X018000Y011630D02*
X020707Y011630D01*
X020707Y011788D02*
X018000Y011788D01*
X018000Y011947D02*
X020707Y011947D01*
X020707Y012105D02*
X018000Y012105D01*
X018000Y012264D02*
X020707Y012264D01*
X020707Y012423D02*
X018000Y012423D01*
X018000Y012581D02*
X020707Y012581D01*
X020707Y012740D02*
X018000Y012740D01*
X018000Y012898D02*
X020707Y012898D01*
X020707Y013057D02*
X018000Y013057D01*
X018000Y013215D02*
X019963Y013215D01*
X019898Y013374D02*
X018000Y013374D01*
X018000Y013532D02*
X019898Y013532D01*
X019898Y013691D02*
X018000Y013691D01*
X018000Y013849D02*
X019898Y013849D01*
X019910Y014008D02*
X018000Y014008D01*
X018000Y014167D02*
X020707Y014167D01*
X020707Y014325D02*
X018000Y014325D01*
X018000Y014484D02*
X020707Y014484D01*
X020707Y014642D02*
X018000Y014642D01*
X018000Y014801D02*
X020707Y014801D01*
X020707Y014959D02*
X018000Y014959D01*
X018000Y015118D02*
X020707Y015118D01*
X020707Y015276D02*
X019397Y015276D01*
X019452Y015435D02*
X020707Y015435D01*
X020707Y015593D02*
X019452Y015593D01*
X019452Y015752D02*
X020707Y015752D01*
X020707Y015911D02*
X019353Y015911D01*
X019294Y016069D02*
X020707Y016069D01*
X020707Y016228D02*
X019452Y016228D01*
X019452Y016386D02*
X020707Y016386D01*
X020707Y016545D02*
X019452Y016545D01*
X019531Y016703D02*
X020707Y016703D01*
X020707Y016862D02*
X019531Y016862D01*
X019531Y017020D02*
X020707Y017020D01*
X020707Y017179D02*
X019463Y017179D01*
X019452Y017337D02*
X020707Y017337D01*
X020707Y017496D02*
X019452Y017496D01*
X019341Y017654D02*
X020707Y017654D01*
X020707Y017813D02*
X019335Y017813D01*
X019452Y017972D02*
X020707Y017972D01*
X020707Y018130D02*
X019452Y018130D01*
X019452Y018289D02*
X020707Y018289D01*
X020707Y018447D02*
X020544Y018447D01*
X020535Y018438D02*
X020653Y018555D01*
X020653Y019272D01*
X020535Y019389D01*
X019622Y019389D01*
X019505Y019272D01*
X019505Y018555D01*
X019622Y018438D01*
X020535Y018438D01*
X020653Y018606D02*
X020707Y018606D01*
X020707Y018764D02*
X020653Y018764D01*
X020653Y018923D02*
X020707Y018923D01*
X020707Y019081D02*
X020653Y019081D01*
X020653Y019240D02*
X020707Y019240D01*
X020707Y019398D02*
X017566Y019398D01*
X017724Y019240D02*
X019505Y019240D01*
X019505Y019081D02*
X017883Y019081D01*
X018041Y018923D02*
X018541Y018923D01*
X018461Y018764D02*
X018200Y018764D01*
X018358Y018606D02*
X018461Y018606D01*
X018219Y017882D02*
X013620Y022480D01*
X012545Y022480D01*
X012211Y022815D01*
X012968Y023996D02*
X014970Y023996D01*
X014970Y023838D02*
X013126Y023838D01*
X013285Y023679D02*
X014920Y023679D01*
X014970Y023730D02*
X014568Y023327D01*
X014454Y023327D01*
X014410Y023371D01*
X014278Y023425D01*
X014135Y023425D01*
X014004Y023371D01*
X013903Y023270D01*
X013848Y023138D01*
X013848Y023116D01*
X012486Y024478D01*
X012486Y024807D01*
X012557Y024737D01*
X013313Y024737D01*
X013370Y024794D01*
X013427Y024737D01*
X014183Y024737D01*
X014300Y024854D01*
X014300Y024933D01*
X014330Y024933D01*
X014913Y025515D01*
X014964Y025566D01*
X014970Y025560D01*
X014970Y023730D01*
X014761Y023521D02*
X013443Y023521D01*
X013602Y023362D02*
X013995Y023362D01*
X013875Y023204D02*
X013761Y023204D01*
X014419Y023362D02*
X014603Y023362D01*
X014863Y022886D02*
X016533Y022886D01*
X016341Y022728D02*
X014326Y022728D01*
X014395Y022569D02*
X016318Y022569D01*
X016318Y022411D02*
X014553Y022411D01*
X014712Y022252D02*
X016318Y022252D01*
X016318Y022094D02*
X014870Y022094D01*
X015029Y021935D02*
X016410Y021935D01*
X016813Y022366D02*
X016813Y023323D01*
X017199Y023323D01*
X017223Y023323D01*
X016813Y023323D02*
X016030Y023323D01*
X016030Y025106D01*
X016715Y025106D01*
X016971Y025542D02*
X016971Y025543D01*
X016971Y025685D01*
X016916Y025817D01*
X016852Y025882D01*
X016852Y026413D01*
X016776Y026489D01*
X017164Y026489D01*
X017164Y026417D01*
X017160Y026413D01*
X017160Y025854D01*
X017277Y025737D01*
X017361Y025737D01*
X017361Y025495D01*
X017269Y025403D01*
X017269Y025425D01*
X017152Y025542D01*
X016971Y025542D01*
X016971Y025582D02*
X017361Y025582D01*
X017289Y025423D02*
X017269Y025423D01*
X017274Y025740D02*
X016948Y025740D01*
X016852Y025899D02*
X017160Y025899D01*
X017160Y026057D02*
X016852Y026057D01*
X016852Y026216D02*
X017160Y026216D01*
X017160Y026374D02*
X016852Y026374D01*
X016276Y025740D02*
X015589Y025740D01*
X015512Y025582D02*
X016254Y025582D01*
X016160Y025423D02*
X015490Y025423D01*
X015490Y025265D02*
X015792Y025265D01*
X015750Y025106D02*
X015490Y025106D01*
X015490Y024947D02*
X015750Y024947D01*
X015750Y024789D02*
X015490Y024789D01*
X015490Y024630D02*
X015750Y024630D01*
X015750Y024472D02*
X015490Y024472D01*
X015490Y024313D02*
X015750Y024313D01*
X015750Y024155D02*
X015490Y024155D01*
X015490Y023996D02*
X015750Y023996D01*
X015750Y023838D02*
X015490Y023838D01*
X015490Y023679D02*
X015750Y023679D01*
X015750Y023521D02*
X015490Y023521D01*
X015338Y023362D02*
X015750Y023362D01*
X015753Y023204D02*
X015180Y023204D01*
X015021Y023045D02*
X015911Y023045D01*
X015187Y021777D02*
X019581Y021777D01*
X019530Y021935D02*
X018701Y021935D01*
X018785Y022094D02*
X019530Y022094D01*
X019551Y022252D02*
X018785Y022252D01*
X018785Y022411D02*
X019617Y022411D01*
X019735Y022569D02*
X018785Y022569D01*
X018754Y022728D02*
X019945Y022728D01*
X019745Y023045D02*
X018569Y023045D01*
X018569Y023204D02*
X019692Y023204D01*
X019692Y023362D02*
X018569Y023362D01*
X018569Y023521D02*
X019692Y023521D01*
X019692Y023679D02*
X018569Y023679D01*
X018839Y023838D02*
X019692Y023838D01*
X019692Y023996D02*
X018844Y023996D01*
X018844Y024155D02*
X019692Y024155D01*
X019692Y024313D02*
X018844Y024313D01*
X018844Y024472D02*
X019692Y024472D01*
X019692Y024630D02*
X018029Y024630D01*
X018289Y024161D02*
X018289Y023323D01*
X018289Y022323D01*
X018286Y022319D01*
X018289Y022323D02*
X018289Y022358D01*
X017794Y022411D02*
X017308Y022411D01*
X017308Y022569D02*
X017794Y022569D01*
X017825Y022728D02*
X017285Y022728D01*
X017093Y022886D02*
X018009Y022886D01*
X017868Y023323D02*
X018289Y023323D01*
X018569Y022886D02*
X020707Y022886D01*
X020707Y022728D02*
X020626Y022728D01*
X020550Y023045D02*
X020707Y023045D01*
X020707Y023204D02*
X020604Y023204D01*
X020604Y023362D02*
X020707Y023362D01*
X020707Y023521D02*
X020604Y023521D01*
X020604Y023679D02*
X020707Y023679D01*
X020707Y023838D02*
X020604Y023838D01*
X020604Y023996D02*
X020707Y023996D01*
X020707Y024155D02*
X020604Y024155D01*
X020604Y024313D02*
X020707Y024313D01*
X020707Y024472D02*
X020604Y024472D01*
X020604Y024630D02*
X020707Y024630D01*
X020707Y024789D02*
X020604Y024789D01*
X020604Y024947D02*
X020707Y024947D01*
X020707Y025106D02*
X020604Y025106D01*
X020604Y025265D02*
X020707Y025265D01*
X020707Y025423D02*
X020604Y025423D01*
X020426Y025965D02*
X020363Y026028D01*
X020231Y026083D01*
X020088Y026083D01*
X019956Y026028D01*
X019888Y025960D01*
X019215Y025960D01*
X019319Y026003D01*
X019420Y026104D01*
X019475Y026236D01*
X019475Y026378D01*
X019431Y026485D01*
X019451Y026485D01*
X019500Y026534D01*
X019510Y026524D01*
X020109Y026524D01*
X020226Y026641D01*
X020226Y027171D01*
X020269Y027153D01*
X020412Y027153D01*
X020452Y027169D01*
X020452Y026751D01*
X020452Y026540D01*
X020452Y025991D01*
X020426Y025965D01*
X020452Y026057D02*
X020293Y026057D01*
X020452Y026216D02*
X019467Y026216D01*
X019475Y026374D02*
X020452Y026374D01*
X020452Y026533D02*
X020117Y026533D01*
X020226Y026691D02*
X020452Y026691D01*
X020452Y026850D02*
X020226Y026850D01*
X020226Y027009D02*
X020452Y027009D01*
X020446Y027167D02*
X020452Y027167D01*
X020235Y027167D02*
X020226Y027167D01*
X020707Y027958D02*
X020525Y028141D01*
X020330Y028141D01*
X019568Y028141D01*
X019568Y028224D01*
X019528Y028264D01*
X019659Y028264D01*
X019740Y028345D01*
X019779Y028306D01*
X019911Y028251D01*
X020054Y028251D01*
X020186Y028306D01*
X020286Y028407D01*
X020341Y028539D01*
X020341Y028681D01*
X020286Y028813D01*
X020186Y028914D01*
X020054Y028969D01*
X019911Y028969D01*
X019779Y028914D01*
X019710Y028845D01*
X019574Y028845D01*
X019568Y028840D01*
X019568Y029012D01*
X019451Y029129D01*
X018892Y029129D01*
X018774Y029012D01*
X018774Y028815D01*
X018774Y028618D01*
X018774Y028374D01*
X018811Y028338D01*
X018758Y028338D01*
X018689Y028406D01*
X018558Y028461D01*
X018422Y028461D01*
X018422Y028530D01*
X018422Y029119D01*
X018459Y029083D01*
X018703Y029083D01*
X018820Y029200D01*
X018820Y029760D01*
X018703Y029877D01*
X018459Y029877D01*
X018422Y029841D01*
X018422Y029878D01*
X018491Y029946D01*
X018546Y030078D01*
X018546Y030197D01*
X020560Y030197D01*
X020698Y030335D01*
X020698Y030530D01*
X020698Y032011D01*
X020560Y032149D01*
X020461Y032247D01*
X020537Y032322D01*
X020537Y032346D01*
X020707Y032346D01*
X020707Y027958D01*
X020706Y027960D02*
X020707Y027960D01*
X020707Y028118D02*
X020547Y028118D01*
X020707Y028277D02*
X020115Y028277D01*
X020298Y028435D02*
X020707Y028435D01*
X020707Y028594D02*
X020341Y028594D01*
X020312Y028753D02*
X020707Y028753D01*
X020707Y028911D02*
X020189Y028911D01*
X019849Y028277D02*
X019671Y028277D01*
X019568Y028911D02*
X019776Y028911D01*
X019510Y029070D02*
X020707Y029070D01*
X020707Y029228D02*
X018820Y029228D01*
X018820Y029387D02*
X020707Y029387D01*
X020707Y029545D02*
X018820Y029545D01*
X018820Y029704D02*
X020707Y029704D01*
X020707Y029862D02*
X018718Y029862D01*
X018522Y030021D02*
X020707Y030021D01*
X020707Y030179D02*
X018546Y030179D01*
X018444Y029862D02*
X018422Y029862D01*
X018422Y029070D02*
X018832Y029070D01*
X018774Y028911D02*
X018422Y028911D01*
X018422Y028753D02*
X018774Y028753D01*
X018774Y028594D02*
X018422Y028594D01*
X018619Y028435D02*
X018774Y028435D01*
X019499Y026533D02*
X019501Y026533D01*
X019374Y026057D02*
X020026Y026057D01*
X019692Y025423D02*
X018844Y025423D01*
X018844Y025265D02*
X019692Y025265D01*
X019692Y025106D02*
X018844Y025106D01*
X018844Y024947D02*
X019692Y024947D01*
X019692Y024789D02*
X018844Y024789D01*
X018379Y025542D02*
X018029Y025542D01*
X018029Y025773D01*
X018065Y025737D01*
X018184Y025737D01*
X018286Y025634D01*
X018294Y025627D01*
X018379Y025542D01*
X018339Y025582D02*
X018029Y025582D01*
X018029Y025740D02*
X018061Y025740D01*
X018286Y025634D02*
X018286Y025634D01*
X017318Y027319D02*
X017206Y027365D01*
X017206Y028896D01*
X017318Y028784D01*
X017318Y027319D01*
X017318Y027326D02*
X017302Y027326D01*
X017318Y027484D02*
X017206Y027484D01*
X017206Y027643D02*
X017318Y027643D01*
X017318Y027801D02*
X017206Y027801D01*
X017206Y027960D02*
X017318Y027960D01*
X017318Y028118D02*
X017206Y028118D01*
X017206Y028277D02*
X017318Y028277D01*
X017318Y028435D02*
X017206Y028435D01*
X017206Y028594D02*
X017318Y028594D01*
X017318Y028753D02*
X017206Y028753D01*
X016735Y028501D02*
X016735Y028264D01*
X016628Y028264D01*
X016623Y028262D01*
X016623Y028397D01*
X016539Y028480D01*
X016541Y028480D01*
X016684Y028480D01*
X016735Y028501D01*
X016735Y028435D02*
X016584Y028435D01*
X016623Y028277D02*
X016735Y028277D01*
X016409Y028534D02*
X016222Y028534D01*
X016222Y028618D01*
X016147Y028693D01*
X016222Y028767D01*
X016222Y029012D01*
X016105Y029129D01*
X016056Y029129D01*
X016062Y029135D01*
X016117Y029267D01*
X016117Y029410D01*
X016062Y029542D01*
X016051Y029553D01*
X016066Y029568D01*
X016121Y029700D01*
X016121Y029843D01*
X016111Y029865D01*
X016234Y029814D01*
X016377Y029814D01*
X016377Y029764D01*
X016373Y029760D01*
X016373Y029200D01*
X016377Y029196D01*
X016377Y029110D01*
X016308Y029042D01*
X016254Y028910D01*
X016254Y028767D01*
X016308Y028635D01*
X016409Y028534D01*
X016349Y028594D02*
X016222Y028594D01*
X016207Y028753D02*
X016260Y028753D01*
X016254Y028911D02*
X016222Y028911D01*
X016164Y029070D02*
X016336Y029070D01*
X016373Y029228D02*
X016101Y029228D01*
X016117Y029387D02*
X016373Y029387D01*
X016373Y029545D02*
X016058Y029545D01*
X016121Y029704D02*
X016373Y029704D01*
X016377Y029814D02*
X016377Y029814D01*
X016118Y029862D02*
X016113Y029862D01*
X015956Y030079D02*
X015833Y030130D01*
X015691Y030130D01*
X015559Y030076D01*
X015490Y030007D01*
X015021Y030007D01*
X014816Y030211D01*
X014816Y035676D01*
X014678Y035814D01*
X013897Y036595D01*
X014260Y036595D01*
X014530Y036864D01*
X014530Y037245D01*
X014260Y037515D01*
X013879Y037515D01*
X013610Y037245D01*
X013610Y036882D01*
X013229Y037263D01*
X013034Y037263D01*
X010457Y037263D01*
X010319Y037125D01*
X010319Y036930D01*
X010319Y036257D01*
X010207Y036257D01*
X010231Y036281D01*
X010286Y036413D01*
X010286Y036555D01*
X010231Y036687D01*
X010130Y036788D01*
X009999Y036843D01*
X009856Y036843D01*
X009724Y036788D01*
X009623Y036687D01*
X009569Y036555D01*
X009569Y036413D01*
X009623Y036281D01*
X009647Y036257D01*
X009416Y036257D01*
X009101Y036257D01*
X008786Y036257D01*
X008472Y036257D01*
X008157Y036257D01*
X007842Y036257D01*
X007527Y036257D01*
X007212Y036257D01*
X006897Y036257D01*
X006780Y036140D01*
X006780Y035504D01*
X006897Y035387D01*
X007212Y035387D01*
X007364Y035387D01*
X007258Y035281D01*
X007258Y035065D01*
X007258Y033799D01*
X007213Y033843D01*
X007081Y033898D01*
X006939Y033898D01*
X006816Y033847D01*
X006816Y033976D01*
X006816Y034291D01*
X006816Y034606D01*
X006816Y034921D01*
X006816Y035306D01*
X006699Y035423D01*
X006063Y035423D01*
X005946Y035306D01*
X005946Y034921D01*
X005946Y034606D01*
X005946Y034291D01*
X005946Y033976D01*
X005946Y033713D01*
X005908Y033729D01*
X005765Y033729D01*
X005749Y033722D01*
X005749Y034016D01*
X005632Y034133D01*
X005532Y034133D01*
X005631Y034232D01*
X005631Y034988D01*
X005514Y035106D01*
X004837Y035106D01*
X004720Y034988D01*
X004720Y034232D01*
X004819Y034133D01*
X004719Y034133D01*
X004626Y034040D01*
X004534Y034133D01*
X003620Y034133D01*
X003503Y034016D01*
X003503Y032834D01*
X003620Y032717D01*
X004534Y032717D01*
X004626Y032809D01*
X004719Y032717D01*
X004895Y032717D01*
X004895Y032640D01*
X004976Y032559D01*
X004503Y032559D01*
X004271Y032559D01*
X003957Y032244D01*
X003793Y032080D01*
X003793Y031995D01*
X003620Y031995D01*
X003503Y031878D01*
X003503Y031567D01*
X003431Y031567D01*
X003431Y031626D01*
X003313Y031743D01*
X002667Y031743D01*
X002667Y038736D01*
X004000Y038736D01*
X003928Y038707D01*
X003799Y038578D01*
X003730Y038410D01*
X003730Y038228D01*
X003799Y038060D01*
X003907Y037952D01*
X003907Y035826D01*
X003883Y035801D01*
X003828Y035670D01*
X003828Y035527D01*
X003883Y035395D01*
X003984Y035294D01*
X004116Y035240D01*
X004258Y035240D01*
X004390Y035294D01*
X004491Y035395D01*
X004546Y035527D01*
X004546Y035670D01*
X004491Y035801D01*
X004467Y035826D01*
X004467Y037952D01*
X004575Y038060D01*
X004645Y038228D01*
X004645Y038410D01*
X004575Y038578D01*
X004446Y038707D01*
X004374Y038736D01*
X004984Y038736D01*
X004912Y038707D01*
X004784Y038578D01*
X004714Y038410D01*
X004714Y038228D01*
X004784Y038060D01*
X004912Y037931D01*
X005080Y037861D01*
X005262Y037861D01*
X005430Y037931D01*
X005559Y038060D01*
X005629Y038228D01*
X005629Y038410D01*
X005559Y038578D01*
X005430Y038707D01*
X005358Y038736D01*
X019196Y038736D01*
X019196Y038250D01*
X019181Y038286D01*
X018952Y038515D01*
X018653Y038639D01*
X018328Y038639D01*
X018029Y038515D01*
X017800Y038286D01*
X017708Y038063D01*
X017668Y038103D01*
X016400Y038103D01*
X016283Y037986D01*
X016283Y037750D01*
X016079Y037750D01*
X015915Y037586D01*
X015915Y036527D01*
X015896Y036527D01*
X015778Y036409D01*
X015778Y035850D01*
X015833Y035795D01*
X015778Y035740D01*
X015778Y035181D01*
X015896Y035064D01*
X015915Y035064D01*
X015915Y035034D01*
X015817Y035034D01*
X015700Y034917D01*
X015700Y034240D01*
X015817Y034123D01*
X016573Y034123D01*
X016690Y034240D01*
X016690Y034917D01*
X016573Y035034D01*
X016475Y035034D01*
X016475Y035064D01*
X016494Y035064D01*
X016611Y035181D01*
X016611Y035740D01*
X016556Y035795D01*
X016611Y035850D01*
X016611Y035894D01*
X017034Y035894D01*
X017034Y035744D01*
X016966Y035675D01*
X016911Y035544D01*
X016911Y035401D01*
X016966Y035269D01*
X017067Y035168D01*
X017198Y035114D01*
X017341Y035114D01*
X017473Y035168D01*
X017574Y035269D01*
X017628Y035401D01*
X017628Y035544D01*
X017574Y035675D01*
X017505Y035744D01*
X017505Y036032D01*
X017505Y036227D01*
X017367Y036365D01*
X016611Y036365D01*
X016611Y036409D01*
X016494Y036527D01*
X016475Y036527D01*
X016475Y036837D01*
X017668Y036837D01*
X017785Y036954D01*
X017785Y037399D01*
X017800Y037363D01*
X018029Y037134D01*
X018328Y037010D01*
X018653Y037010D01*
X018952Y037134D01*
X019181Y037363D01*
X019296Y037641D01*
X019313Y037625D01*
X019667Y037625D01*
X019667Y037623D01*
X019667Y037391D01*
X020407Y036652D01*
X020407Y035308D01*
X019313Y035308D01*
X019285Y035280D01*
X019181Y035530D01*
X018952Y035759D01*
X018653Y035883D01*
X018328Y035883D01*
X018029Y035759D01*
X017800Y035530D01*
X017676Y035231D01*
X017676Y034907D01*
X017800Y034607D01*
X018029Y034378D01*
X018328Y034254D01*
X018653Y034254D01*
X018952Y034378D01*
X019181Y034607D01*
X019196Y034643D01*
X019196Y033923D01*
X019313Y033806D01*
X019495Y033806D01*
X019366Y033677D01*
X018161Y033677D01*
X017929Y033677D01*
X017765Y033513D01*
X017765Y033011D01*
X017687Y032932D01*
X017597Y032969D01*
X017454Y032969D01*
X017322Y032914D01*
X017222Y032813D01*
X017167Y032681D01*
X017167Y032539D01*
X017222Y032407D01*
X017322Y032306D01*
X017454Y032251D01*
X017597Y032251D01*
X017687Y032288D01*
X017781Y032194D01*
X018341Y032194D01*
X018396Y032249D01*
X018417Y032228D01*
X018163Y031974D01*
X018163Y031971D01*
X018065Y031971D01*
X017948Y031854D01*
X017948Y031177D01*
X018065Y031060D01*
X018821Y031060D01*
X018938Y031177D01*
X018938Y031854D01*
X018887Y031906D01*
X019010Y032030D01*
X019010Y032194D01*
X019106Y032290D01*
X019191Y032206D01*
X019191Y032156D01*
X019395Y031951D01*
X019302Y031858D01*
X019302Y031181D01*
X019419Y031064D01*
X020175Y031064D01*
X020227Y031115D01*
X020227Y030668D01*
X018085Y030668D01*
X018016Y030737D01*
X017884Y030792D01*
X017769Y030792D01*
X017769Y031185D01*
X017652Y031302D01*
X017045Y031302D01*
X017045Y031846D01*
X017113Y031915D01*
X017168Y032047D01*
X017168Y032189D01*
X017113Y032321D01*
X017012Y032422D01*
X016880Y032477D01*
X016738Y032477D01*
X016606Y032422D01*
X016505Y032321D01*
X016450Y032189D01*
X016450Y032047D01*
X016505Y031915D01*
X016574Y031846D01*
X016574Y030412D01*
X016508Y030477D01*
X016377Y030532D01*
X016234Y030532D01*
X016102Y030477D01*
X016001Y030376D01*
X015946Y030244D01*
X015946Y030102D01*
X015956Y030079D01*
X015946Y030179D02*
X014848Y030179D01*
X014816Y030338D02*
X015985Y030338D01*
X016149Y030496D02*
X014816Y030496D01*
X014816Y030655D02*
X016574Y030655D01*
X016574Y030496D02*
X016462Y030496D01*
X016574Y030814D02*
X014816Y030814D01*
X014816Y030972D02*
X016574Y030972D01*
X016574Y031131D02*
X014816Y031131D01*
X014816Y031289D02*
X016574Y031289D01*
X016574Y031448D02*
X014816Y031448D01*
X014816Y031606D02*
X016574Y031606D01*
X016574Y031765D02*
X014816Y031765D01*
X014816Y031923D02*
X016501Y031923D01*
X016450Y032082D02*
X014816Y032082D01*
X014816Y032240D02*
X016472Y032240D01*
X016583Y032399D02*
X014816Y032399D01*
X014816Y032558D02*
X017167Y032558D01*
X017181Y032716D02*
X014816Y032716D01*
X014816Y032875D02*
X017283Y032875D01*
X017229Y032399D02*
X017035Y032399D01*
X017147Y032240D02*
X017734Y032240D01*
X018017Y031923D02*
X017117Y031923D01*
X017168Y032082D02*
X018271Y032082D01*
X018388Y032240D02*
X018404Y032240D01*
X018730Y032146D02*
X018443Y031858D01*
X018443Y031516D01*
X018730Y032146D02*
X018730Y032610D01*
X019057Y032240D02*
X019156Y032240D01*
X019264Y032082D02*
X019010Y032082D01*
X018904Y031923D02*
X019367Y031923D01*
X019302Y031765D02*
X018938Y031765D01*
X018938Y031606D02*
X019302Y031606D01*
X019302Y031448D02*
X018938Y031448D01*
X018938Y031289D02*
X019302Y031289D01*
X019352Y031131D02*
X018892Y031131D01*
X018443Y030846D02*
X018400Y030846D01*
X018396Y030850D01*
X017833Y030850D01*
X017833Y031516D01*
X017274Y031516D01*
X017274Y032295D01*
X016195Y033374D01*
X016195Y033929D01*
X016203Y033937D01*
X016195Y033929D02*
X016195Y033909D01*
X016195Y034579D02*
X016195Y035460D01*
X016525Y035094D02*
X017676Y035094D01*
X017676Y034936D02*
X016672Y034936D01*
X016690Y034777D02*
X017729Y034777D01*
X017795Y034619D02*
X016690Y034619D01*
X016690Y034460D02*
X017947Y034460D01*
X018214Y034302D02*
X016690Y034302D01*
X016593Y034143D02*
X019196Y034143D01*
X019196Y033984D02*
X014816Y033984D01*
X014816Y033826D02*
X019293Y033826D01*
X019196Y034302D02*
X018767Y034302D01*
X019034Y034460D02*
X019196Y034460D01*
X019186Y034619D02*
X019196Y034619D01*
X019230Y035411D02*
X020407Y035411D01*
X020407Y035570D02*
X019141Y035570D01*
X018983Y035728D02*
X020407Y035728D01*
X020407Y035887D02*
X017505Y035887D01*
X017505Y036046D02*
X020407Y036046D01*
X020407Y036204D02*
X017505Y036204D01*
X017370Y036363D02*
X020407Y036363D01*
X020407Y036521D02*
X016500Y036521D01*
X016475Y036680D02*
X020379Y036680D01*
X020220Y036838D02*
X017669Y036838D01*
X017785Y036997D02*
X020062Y036997D01*
X019903Y037155D02*
X018973Y037155D01*
X019132Y037314D02*
X019745Y037314D01*
X019667Y037472D02*
X019226Y037472D01*
X019292Y037631D02*
X019307Y037631D01*
X019196Y038265D02*
X019190Y038265D01*
X019196Y038424D02*
X019044Y038424D01*
X019196Y038582D02*
X018790Y038582D01*
X018191Y038582D02*
X005555Y038582D01*
X005623Y038424D02*
X017938Y038424D01*
X017791Y038265D02*
X005629Y038265D01*
X005579Y038107D02*
X017726Y038107D01*
X017785Y037314D02*
X017849Y037314D01*
X017785Y037155D02*
X018008Y037155D01*
X017034Y037470D02*
X016195Y037470D01*
X016195Y036130D01*
X016179Y036130D01*
X015890Y036521D02*
X013971Y036521D01*
X014130Y036363D02*
X015778Y036363D01*
X015778Y036204D02*
X014288Y036204D01*
X014447Y036046D02*
X015778Y036046D01*
X015778Y035887D02*
X014605Y035887D01*
X014764Y035728D02*
X015778Y035728D01*
X015778Y035570D02*
X014816Y035570D01*
X014816Y035411D02*
X015778Y035411D01*
X015778Y035253D02*
X014816Y035253D01*
X014816Y035094D02*
X015865Y035094D01*
X015718Y034936D02*
X014816Y034936D01*
X014816Y034777D02*
X015700Y034777D01*
X015700Y034619D02*
X014816Y034619D01*
X014816Y034460D02*
X015700Y034460D01*
X015700Y034302D02*
X014816Y034302D01*
X014816Y034143D02*
X015796Y034143D01*
X014816Y033667D02*
X017919Y033667D01*
X017765Y033509D02*
X014816Y033509D01*
X014816Y033350D02*
X017765Y033350D01*
X017765Y033192D02*
X014816Y033192D01*
X014816Y033033D02*
X017765Y033033D01*
X018045Y033397D02*
X018045Y032610D01*
X018061Y032610D01*
X018045Y033397D02*
X019482Y033397D01*
X019943Y033858D01*
X019943Y034551D01*
X019947Y034555D01*
X019947Y034557D01*
X020163Y032626D02*
X020163Y032622D01*
X020140Y032622D01*
X020163Y032622D02*
X020163Y032618D01*
X020163Y032626D02*
X020687Y032626D01*
X020687Y036768D01*
X019947Y037507D01*
X019947Y038258D01*
X017998Y035728D02*
X017521Y035728D01*
X017618Y035570D02*
X017840Y035570D01*
X017751Y035411D02*
X017628Y035411D01*
X017685Y035253D02*
X017558Y035253D01*
X017019Y035728D02*
X016611Y035728D01*
X016611Y035570D02*
X016922Y035570D01*
X016911Y035411D02*
X016611Y035411D01*
X016611Y035253D02*
X016982Y035253D01*
X017034Y035887D02*
X016611Y035887D01*
X015915Y036680D02*
X015345Y036680D01*
X015260Y036595D02*
X015530Y036864D01*
X015530Y037245D01*
X015260Y037515D01*
X014879Y037515D01*
X014610Y037245D01*
X014610Y036864D01*
X014879Y036595D01*
X015260Y036595D01*
X015504Y036838D02*
X015915Y036838D01*
X015915Y036997D02*
X015530Y036997D01*
X015530Y037155D02*
X015915Y037155D01*
X015915Y037314D02*
X015461Y037314D01*
X015303Y037472D02*
X015915Y037472D01*
X015960Y037631D02*
X004467Y037631D01*
X004467Y037789D02*
X016283Y037789D01*
X016283Y037948D02*
X005448Y037948D01*
X004895Y037948D02*
X004467Y037948D01*
X004594Y038107D02*
X004764Y038107D01*
X004714Y038265D02*
X004645Y038265D01*
X004639Y038424D02*
X004720Y038424D01*
X004788Y038582D02*
X004571Y038582D01*
X004187Y038319D02*
X004187Y035598D01*
X004521Y035728D02*
X006780Y035728D01*
X006780Y035570D02*
X004546Y035570D01*
X004498Y035411D02*
X006051Y035411D01*
X005946Y035253D02*
X004290Y035253D01*
X004084Y035253D02*
X002667Y035253D01*
X002667Y035411D02*
X003876Y035411D01*
X003828Y035570D02*
X002667Y035570D01*
X002667Y035728D02*
X003853Y035728D01*
X003907Y035887D02*
X002667Y035887D01*
X002667Y036046D02*
X003907Y036046D01*
X003907Y036204D02*
X002667Y036204D01*
X002667Y036363D02*
X003907Y036363D01*
X003907Y036521D02*
X002667Y036521D01*
X002667Y036680D02*
X003907Y036680D01*
X003907Y036838D02*
X002667Y036838D01*
X002667Y036997D02*
X003907Y036997D01*
X003907Y037155D02*
X002667Y037155D01*
X002667Y037314D02*
X003907Y037314D01*
X003907Y037472D02*
X002667Y037472D01*
X002667Y037631D02*
X003907Y037631D01*
X003907Y037789D02*
X002667Y037789D01*
X002667Y037948D02*
X003907Y037948D01*
X003780Y038107D02*
X002667Y038107D01*
X002667Y038265D02*
X003730Y038265D01*
X003735Y038424D02*
X002667Y038424D01*
X002667Y038582D02*
X003804Y038582D01*
X004467Y037472D02*
X013837Y037472D01*
X013678Y037314D02*
X004467Y037314D01*
X004467Y037155D02*
X010349Y037155D01*
X010319Y036997D02*
X004467Y036997D01*
X004467Y036838D02*
X009845Y036838D01*
X010010Y036838D02*
X010319Y036838D01*
X010319Y036680D02*
X010234Y036680D01*
X010286Y036521D02*
X010319Y036521D01*
X010319Y036363D02*
X010265Y036363D01*
X009589Y036363D02*
X004467Y036363D01*
X004467Y036521D02*
X009569Y036521D01*
X009620Y036680D02*
X004467Y036680D01*
X004467Y036204D02*
X006844Y036204D01*
X006780Y036046D02*
X004467Y036046D01*
X004467Y035887D02*
X006780Y035887D01*
X006711Y035411D02*
X006872Y035411D01*
X006816Y035253D02*
X007258Y035253D01*
X007258Y035094D02*
X006816Y035094D01*
X006816Y034936D02*
X007258Y034936D01*
X007258Y034777D02*
X006816Y034777D01*
X006816Y034619D02*
X007258Y034619D01*
X007258Y034460D02*
X006816Y034460D01*
X006816Y034302D02*
X007258Y034302D01*
X007258Y034143D02*
X006816Y034143D01*
X006816Y033984D02*
X007258Y033984D01*
X007258Y033826D02*
X007231Y033826D01*
X007258Y033280D02*
X007258Y031789D01*
X007231Y031853D01*
X007130Y031954D01*
X006999Y032008D01*
X006856Y032008D01*
X006724Y031954D01*
X006714Y031944D01*
X006699Y031959D01*
X006063Y031959D01*
X005946Y031842D01*
X005946Y031456D01*
X005946Y031279D01*
X005917Y031279D01*
X005753Y031115D01*
X005753Y031878D01*
X005636Y031995D01*
X004723Y031995D01*
X004628Y031901D01*
X004534Y031995D01*
X004499Y031995D01*
X004503Y031999D01*
X006033Y031999D01*
X006063Y031969D01*
X006699Y031969D01*
X006816Y032086D01*
X006816Y032401D01*
X006816Y032716D01*
X007258Y032716D01*
X007258Y032558D02*
X006816Y032558D01*
X006939Y032579D02*
X006939Y031964D01*
X006381Y031964D01*
X006381Y031964D01*
X006380Y031964D01*
X006381Y031964D02*
X006381Y031968D01*
X006380Y031968D01*
X006381Y032279D02*
X004387Y032279D01*
X004073Y031964D01*
X004073Y031287D01*
X004077Y031287D02*
X004077Y031287D01*
X004077Y031287D01*
X004077Y031287D01*
X002935Y031287D01*
X002667Y031765D02*
X003503Y031765D01*
X003503Y031606D02*
X003431Y031606D01*
X003549Y031923D02*
X002667Y031923D01*
X002667Y032082D02*
X003794Y032082D01*
X003953Y032240D02*
X002667Y032240D01*
X002667Y032399D02*
X004112Y032399D01*
X004270Y032558D02*
X002667Y032558D01*
X002667Y032716D02*
X004895Y032716D01*
X005175Y032756D02*
X005175Y033421D01*
X005175Y033421D01*
X005176Y033421D01*
X005175Y033421D02*
X005175Y034610D01*
X004720Y034619D02*
X002667Y034619D01*
X002667Y034777D02*
X004720Y034777D01*
X004720Y034936D02*
X002667Y034936D01*
X002667Y035094D02*
X004825Y035094D01*
X004720Y034460D02*
X002667Y034460D01*
X002667Y034302D02*
X004720Y034302D01*
X004809Y034143D02*
X002667Y034143D01*
X002667Y033984D02*
X003503Y033984D01*
X003503Y033826D02*
X002667Y033826D01*
X002667Y033667D02*
X003503Y033667D01*
X003503Y033509D02*
X002667Y033509D01*
X002667Y033350D02*
X003503Y033350D01*
X003503Y033192D02*
X002667Y033192D01*
X002667Y033033D02*
X003503Y033033D01*
X003503Y032875D02*
X002667Y032875D01*
X004187Y029484D02*
X005986Y029484D01*
X006384Y029882D01*
X006384Y030390D01*
X006383Y030389D01*
X006381Y030389D01*
X005769Y031131D02*
X005753Y031131D01*
X005753Y031289D02*
X005946Y031289D01*
X005946Y031448D02*
X005753Y031448D01*
X005753Y031606D02*
X005946Y031606D01*
X005946Y031765D02*
X005753Y031765D01*
X005708Y031923D02*
X006028Y031923D01*
X006381Y031649D02*
X006383Y031649D01*
X006927Y031649D01*
X006927Y031649D01*
X007161Y031923D02*
X007258Y031923D01*
X007258Y032082D02*
X006812Y032082D01*
X006816Y032240D02*
X007258Y032240D01*
X007258Y032399D02*
X006816Y032399D01*
X006816Y032716D02*
X006816Y033031D01*
X006816Y033231D01*
X006939Y033180D01*
X007081Y033180D01*
X007213Y033235D01*
X007258Y033280D01*
X007258Y033192D02*
X007108Y033192D01*
X006911Y033192D02*
X006816Y033192D01*
X006816Y033033D02*
X007258Y033033D01*
X007258Y032875D02*
X006816Y032875D01*
X006381Y032594D02*
X005337Y032594D01*
X005175Y032756D01*
X005176Y033421D02*
X005176Y033425D01*
X005542Y034143D02*
X005946Y034143D01*
X005946Y033984D02*
X005749Y033984D01*
X005749Y033826D02*
X005946Y033826D01*
X005946Y034302D02*
X005631Y034302D01*
X005631Y034460D02*
X005946Y034460D01*
X005946Y034619D02*
X005631Y034619D01*
X005631Y034777D02*
X005946Y034777D01*
X005946Y034936D02*
X005631Y034936D01*
X005525Y035094D02*
X005946Y035094D01*
X004651Y031923D02*
X004605Y031923D01*
X006383Y031649D02*
X006384Y031649D01*
X009494Y035230D02*
X009337Y035387D01*
X009416Y035387D01*
X009731Y035387D01*
X010046Y035387D01*
X010361Y035387D01*
X010676Y035387D01*
X010991Y035387D01*
X011306Y035387D01*
X011621Y035387D01*
X012007Y035387D01*
X012124Y035504D01*
X012124Y036087D01*
X012653Y036087D01*
X013424Y035316D01*
X013432Y031691D01*
X013428Y031693D01*
X013285Y031693D01*
X013153Y031639D01*
X013129Y031614D01*
X012958Y031614D01*
X012958Y031771D01*
X012958Y032086D01*
X012958Y032401D01*
X012958Y032716D01*
X013430Y032716D01*
X013430Y032558D02*
X012958Y032558D01*
X012958Y032716D02*
X012958Y033031D01*
X012958Y033346D01*
X012958Y033731D01*
X012841Y033849D01*
X012205Y033849D01*
X012088Y033731D01*
X012088Y033346D01*
X012088Y033031D01*
X012088Y032716D01*
X011128Y032716D01*
X011128Y032805D02*
X011128Y033037D01*
X010644Y033521D01*
X010644Y033555D01*
X010590Y033687D01*
X010565Y033711D01*
X010565Y034594D01*
X011146Y034594D01*
X011683Y034058D01*
X011683Y034057D01*
X011835Y033905D01*
X012158Y033905D01*
X012205Y033859D01*
X012841Y033859D01*
X012958Y033976D01*
X012958Y034291D01*
X012958Y034606D01*
X012958Y034921D01*
X012958Y035306D01*
X012841Y035423D01*
X012205Y035423D01*
X012088Y035306D01*
X012088Y034921D01*
X012088Y034606D01*
X012088Y034425D01*
X012051Y034425D01*
X011362Y035114D01*
X011146Y035114D01*
X010533Y035114D01*
X010489Y035158D01*
X010357Y035213D01*
X010214Y035213D01*
X010082Y035158D01*
X009981Y035057D01*
X009927Y034926D01*
X009927Y034783D01*
X009981Y034651D01*
X010006Y034627D01*
X010006Y033711D01*
X009981Y033687D01*
X009927Y033555D01*
X009927Y033413D01*
X009981Y033281D01*
X010082Y033180D01*
X010214Y033125D01*
X010248Y033125D01*
X010569Y032805D01*
X010569Y031360D01*
X010733Y031196D01*
X011814Y030115D01*
X011621Y030115D01*
X011306Y030115D01*
X010991Y030115D01*
X010676Y030115D01*
X010361Y030115D01*
X010077Y030115D01*
X010117Y030212D01*
X010117Y030338D01*
X010495Y030338D01*
X010539Y030294D01*
X010671Y030240D01*
X010814Y030240D01*
X010945Y030294D01*
X011046Y030395D01*
X011101Y030527D01*
X011101Y030670D01*
X011046Y030801D01*
X010945Y030902D01*
X010814Y030957D01*
X010671Y030957D01*
X010539Y030902D01*
X010495Y030858D01*
X009593Y030858D01*
X009593Y030981D01*
X009538Y031112D01*
X009494Y031157D01*
X009494Y035014D01*
X009494Y035230D01*
X009471Y035253D02*
X012088Y035253D01*
X012088Y035094D02*
X011382Y035094D01*
X011540Y034936D02*
X012088Y034936D01*
X012088Y034777D02*
X011699Y034777D01*
X011857Y034619D02*
X012088Y034619D01*
X012088Y034460D02*
X012016Y034460D01*
X011756Y033984D02*
X010565Y033984D01*
X010565Y033826D02*
X012182Y033826D01*
X012069Y033850D02*
X012498Y033850D01*
X012501Y033854D01*
X012523Y033854D01*
X012863Y033826D02*
X013428Y033826D01*
X013427Y033984D02*
X012958Y033984D01*
X012958Y034143D02*
X013427Y034143D01*
X013426Y034302D02*
X012958Y034302D01*
X012958Y034460D02*
X013426Y034460D01*
X013426Y034619D02*
X012958Y034619D01*
X012958Y034777D02*
X013425Y034777D01*
X013425Y034936D02*
X012958Y034936D01*
X012958Y035094D02*
X013425Y035094D01*
X013424Y035253D02*
X012958Y035253D01*
X012853Y035411D02*
X013328Y035411D01*
X013170Y035570D02*
X012124Y035570D01*
X012124Y035728D02*
X013011Y035728D01*
X012853Y035887D02*
X012124Y035887D01*
X012124Y036046D02*
X012694Y036046D01*
X012193Y035411D02*
X012031Y035411D01*
X011280Y034460D02*
X010565Y034460D01*
X010565Y034302D02*
X011439Y034302D01*
X011597Y034143D02*
X010565Y034143D01*
X010598Y033667D02*
X012088Y033667D01*
X012088Y033509D02*
X010657Y033509D01*
X010815Y033350D02*
X012088Y033350D01*
X012088Y033192D02*
X010974Y033192D01*
X011128Y033033D02*
X012088Y033033D01*
X012088Y032875D02*
X011128Y032875D01*
X011128Y032805D02*
X011128Y031592D01*
X012052Y030669D01*
X012175Y030669D01*
X012205Y030699D01*
X012841Y030699D01*
X012872Y030668D01*
X012872Y030740D01*
X012871Y030740D01*
X012841Y030709D01*
X012205Y030709D01*
X012088Y030826D01*
X012088Y031141D01*
X012088Y031456D01*
X012088Y031771D01*
X012088Y032086D01*
X012088Y032401D01*
X012088Y032716D01*
X012088Y032558D02*
X011128Y032558D01*
X011128Y032399D02*
X012088Y032399D01*
X012088Y032240D02*
X011128Y032240D01*
X011128Y032082D02*
X012088Y032082D01*
X012088Y031923D02*
X011128Y031923D01*
X011128Y031765D02*
X012088Y031765D01*
X012088Y031606D02*
X011128Y031606D01*
X011273Y031448D02*
X012088Y031448D01*
X012088Y031289D02*
X011431Y031289D01*
X011590Y031131D02*
X012088Y031131D01*
X012088Y030972D02*
X011749Y030972D01*
X011746Y031063D02*
X012108Y030701D01*
X012526Y030701D01*
X012523Y030704D01*
X012523Y030704D01*
X012522Y031019D02*
X012523Y031019D01*
X012522Y031020D02*
X012522Y031019D01*
X012522Y031020D02*
X013152Y031020D01*
X013152Y029500D01*
X012525Y029500D01*
X013021Y029220D02*
X013036Y029220D01*
X013268Y029220D01*
X013432Y029384D01*
X013432Y030904D01*
X013432Y030977D01*
X013434Y030978D01*
X013436Y029953D01*
X013436Y029881D01*
X013436Y029686D01*
X014057Y029065D01*
X014057Y028968D01*
X014111Y028836D01*
X014212Y028735D01*
X014344Y028680D01*
X014487Y028680D01*
X014619Y028735D01*
X014630Y028746D01*
X014704Y028672D01*
X014836Y028617D01*
X014979Y028617D01*
X015111Y028672D01*
X015212Y028773D01*
X015235Y028830D01*
X015235Y028593D01*
X015235Y028461D01*
X015147Y028461D01*
X015015Y028406D01*
X014914Y028305D01*
X014860Y028174D01*
X014860Y028031D01*
X014896Y027944D01*
X012498Y027944D01*
X012430Y028013D01*
X012298Y028067D01*
X012155Y028067D01*
X012064Y028029D01*
X012064Y029127D01*
X012147Y029044D01*
X012904Y029044D01*
X013021Y029161D01*
X013021Y029220D01*
X013116Y029079D02*
X013116Y028834D01*
X012526Y028834D01*
X012526Y028831D01*
X012525Y028831D01*
X012064Y028753D02*
X014195Y028753D01*
X014080Y028911D02*
X012064Y028911D01*
X012064Y029070D02*
X012122Y029070D01*
X012064Y028594D02*
X015235Y028594D01*
X015235Y028753D02*
X015191Y028753D01*
X015086Y028435D02*
X012064Y028435D01*
X012064Y028277D02*
X014903Y028277D01*
X014860Y028118D02*
X012064Y028118D01*
X012482Y027960D02*
X014889Y027960D01*
X015084Y027079D02*
X015027Y027056D01*
X014926Y026955D01*
X014872Y026823D01*
X014872Y026680D01*
X014926Y026549D01*
X015027Y026448D01*
X015159Y026393D01*
X015302Y026393D01*
X015434Y026448D01*
X015508Y026522D01*
X015545Y026485D01*
X015924Y026485D01*
X015811Y026438D01*
X015742Y026369D01*
X015085Y026369D01*
X015016Y026438D01*
X014884Y026492D01*
X014742Y026492D01*
X014610Y026438D01*
X014509Y026337D01*
X014454Y026205D01*
X014454Y026062D01*
X014509Y025930D01*
X014548Y025892D01*
X014548Y025885D01*
X014300Y025638D01*
X014300Y026177D01*
X014183Y026294D01*
X013427Y026294D01*
X013370Y026237D01*
X013313Y026294D01*
X012557Y026294D01*
X012486Y026224D01*
X012486Y027073D01*
X012502Y027066D01*
X012596Y027066D01*
X012596Y026995D01*
X012651Y026864D01*
X012752Y026763D01*
X012883Y026708D01*
X013026Y026708D01*
X013158Y026763D01*
X013227Y026831D01*
X013257Y026831D01*
X013395Y026969D01*
X013505Y027079D01*
X015084Y027079D01*
X014980Y027009D02*
X013434Y027009D01*
X013276Y026850D02*
X014883Y026850D01*
X014872Y026691D02*
X012486Y026691D01*
X012486Y026533D02*
X014942Y026533D01*
X015080Y026374D02*
X015747Y026374D01*
X014970Y025423D02*
X014821Y025423D01*
X014970Y025265D02*
X014662Y025265D01*
X014503Y025106D02*
X014970Y025106D01*
X014970Y024947D02*
X014345Y024947D01*
X014235Y024789D02*
X014970Y024789D01*
X014970Y024630D02*
X012486Y024630D01*
X012492Y024472D02*
X014970Y024472D01*
X014970Y024313D02*
X012651Y024313D01*
X012809Y024155D02*
X014970Y024155D01*
X014402Y025740D02*
X014300Y025740D01*
X014300Y025899D02*
X014541Y025899D01*
X014456Y026057D02*
X014300Y026057D01*
X014262Y026216D02*
X014459Y026216D01*
X014546Y026374D02*
X012486Y026374D01*
X012486Y026850D02*
X012664Y026850D01*
X012596Y027009D02*
X012486Y027009D01*
X012929Y029070D02*
X014052Y029070D01*
X013894Y029228D02*
X013276Y029228D01*
X013432Y029387D02*
X013735Y029387D01*
X013576Y029545D02*
X013432Y029545D01*
X013432Y029704D02*
X013436Y029704D01*
X013432Y029862D02*
X013436Y029862D01*
X013432Y030021D02*
X013436Y030021D01*
X013432Y030179D02*
X013435Y030179D01*
X013432Y030338D02*
X013435Y030338D01*
X013432Y030496D02*
X013435Y030496D01*
X013432Y030655D02*
X013434Y030655D01*
X013432Y030814D02*
X013434Y030814D01*
X013432Y030972D02*
X013434Y030972D01*
X013356Y031334D02*
X012522Y031334D01*
X012523Y031334D01*
X012522Y031334D02*
X012522Y031334D01*
X012958Y031765D02*
X013432Y031765D01*
X013432Y031923D02*
X012958Y031923D01*
X012958Y032082D02*
X013431Y032082D01*
X013431Y032240D02*
X012958Y032240D01*
X012958Y032399D02*
X013431Y032399D01*
X013430Y032875D02*
X012958Y032875D01*
X012958Y033033D02*
X013429Y033033D01*
X013429Y033192D02*
X012958Y033192D01*
X012958Y033350D02*
X013429Y033350D01*
X013428Y033509D02*
X012958Y033509D01*
X012958Y033667D02*
X013428Y033667D01*
X012069Y033850D02*
X011746Y033527D01*
X011746Y031925D01*
X011746Y031063D01*
X011907Y030814D02*
X012100Y030814D01*
X011936Y030389D02*
X010849Y031476D01*
X010849Y032921D01*
X010286Y033484D01*
X010286Y034854D01*
X010018Y035094D02*
X009494Y035094D01*
X009494Y034936D02*
X009931Y034936D01*
X009929Y034777D02*
X009494Y034777D01*
X009494Y034619D02*
X010006Y034619D01*
X010006Y034460D02*
X009494Y034460D01*
X009494Y034302D02*
X010006Y034302D01*
X010006Y034143D02*
X009494Y034143D01*
X009494Y033984D02*
X010006Y033984D01*
X010006Y033826D02*
X009494Y033826D01*
X009494Y033667D02*
X009973Y033667D01*
X009927Y033509D02*
X009494Y033509D01*
X009494Y033350D02*
X009953Y033350D01*
X010071Y033192D02*
X009494Y033192D01*
X009494Y033033D02*
X010340Y033033D01*
X010499Y032875D02*
X009494Y032875D01*
X009494Y032716D02*
X010569Y032716D01*
X010569Y032558D02*
X009494Y032558D01*
X009494Y032399D02*
X010569Y032399D01*
X010569Y032240D02*
X009494Y032240D01*
X009494Y032082D02*
X010569Y032082D01*
X010569Y031923D02*
X009494Y031923D01*
X009494Y031765D02*
X010569Y031765D01*
X010569Y031606D02*
X009494Y031606D01*
X009494Y031448D02*
X010569Y031448D01*
X010640Y031289D02*
X009494Y031289D01*
X009520Y031131D02*
X010798Y031131D01*
X010957Y030972D02*
X009593Y030972D01*
X010117Y030338D02*
X010495Y030338D01*
X010103Y030179D02*
X011749Y030179D01*
X011591Y030338D02*
X010989Y030338D01*
X011088Y030496D02*
X011432Y030496D01*
X011274Y030655D02*
X011101Y030655D01*
X011115Y030814D02*
X011034Y030814D01*
X011936Y030389D02*
X012523Y030389D01*
X015007Y030021D02*
X015504Y030021D01*
X017045Y031448D02*
X017948Y031448D01*
X017948Y031606D02*
X017045Y031606D01*
X017045Y031765D02*
X017948Y031765D01*
X017948Y031289D02*
X017665Y031289D01*
X017769Y031131D02*
X017994Y031131D01*
X017769Y030972D02*
X020227Y030972D01*
X020227Y030814D02*
X017769Y030814D01*
X018419Y030850D02*
X019797Y030850D01*
X019797Y031520D02*
X019797Y031945D01*
X019471Y032271D01*
X019471Y032622D01*
X019467Y032622D01*
X020468Y032240D02*
X020707Y032240D01*
X020707Y032082D02*
X020627Y032082D01*
X020698Y031923D02*
X020707Y031923D01*
X020698Y031765D02*
X020707Y031765D01*
X020698Y031606D02*
X020707Y031606D01*
X020698Y031448D02*
X020707Y031448D01*
X020698Y031289D02*
X020707Y031289D01*
X020698Y031131D02*
X020707Y031131D01*
X020698Y030972D02*
X020707Y030972D01*
X020698Y030814D02*
X020707Y030814D01*
X020698Y030655D02*
X020707Y030655D01*
X020698Y030496D02*
X020707Y030496D01*
X020698Y030338D02*
X020707Y030338D01*
X018443Y030846D02*
X018423Y030846D01*
X018419Y030850D01*
X014795Y036680D02*
X014345Y036680D01*
X014504Y036838D02*
X014636Y036838D01*
X014610Y036997D02*
X014530Y036997D01*
X014530Y037155D02*
X014610Y037155D01*
X014678Y037314D02*
X014461Y037314D01*
X014303Y037472D02*
X014837Y037472D01*
X013610Y037155D02*
X013337Y037155D01*
X013495Y036997D02*
X013610Y036997D01*
X013365Y024789D02*
X013375Y024789D01*
X012505Y024789D02*
X012486Y024789D01*
X015346Y021618D02*
X019650Y021618D01*
X019808Y021460D02*
X015504Y021460D01*
X015663Y021301D02*
X020122Y021301D01*
X020449Y021301D02*
X020707Y021301D01*
X020707Y021142D02*
X015822Y021142D01*
X015980Y020984D02*
X020707Y020984D01*
X020707Y020825D02*
X016139Y020825D01*
X016297Y020667D02*
X020707Y020667D01*
X020707Y020508D02*
X016456Y020508D01*
X016614Y020350D02*
X020707Y020350D01*
X020707Y020191D02*
X016773Y020191D01*
X016931Y020033D02*
X020707Y020033D01*
X020707Y019874D02*
X017090Y019874D01*
X017248Y019716D02*
X020707Y019716D01*
X020707Y019557D02*
X017407Y019557D01*
X018577Y017813D02*
X018578Y017812D01*
X018572Y017654D02*
X018499Y017654D01*
X019035Y017737D02*
X019636Y017737D01*
X019636Y017736D01*
X019613Y018447D02*
X019452Y018447D01*
X019452Y018606D02*
X019505Y018606D01*
X019505Y018764D02*
X019452Y018764D01*
X019505Y018923D02*
X019372Y018923D01*
X019035Y016871D02*
X019030Y016871D01*
X019030Y016870D01*
X018219Y016870D01*
X018316Y015752D02*
X017958Y015752D01*
X018080Y015593D02*
X018461Y015593D01*
X018461Y015435D02*
X018109Y015435D01*
X018065Y015276D02*
X018516Y015276D01*
X017341Y013775D02*
X014203Y013775D01*
X015329Y012960D02*
X015329Y008649D01*
X016367Y006715D02*
X019401Y006715D01*
X019401Y006756D02*
X019401Y005685D01*
X019444Y005641D01*
X018744Y005641D01*
X018690Y005695D01*
X018558Y005750D01*
X018416Y005750D01*
X018284Y005695D01*
X018183Y005595D01*
X018128Y005463D01*
X018128Y005320D01*
X018183Y005188D01*
X018284Y005087D01*
X018416Y005033D01*
X018558Y005033D01*
X018690Y005087D01*
X018744Y005141D01*
X019460Y005141D01*
X019460Y004531D01*
X019401Y004472D01*
X019401Y003401D01*
X019518Y003284D01*
X020116Y003284D01*
X020234Y003401D01*
X020234Y004472D01*
X020174Y004531D01*
X020174Y005626D01*
X020234Y005685D01*
X020234Y006756D01*
X020116Y006873D01*
X019518Y006873D01*
X019401Y006756D01*
X019401Y006556D02*
X016367Y006556D01*
X016367Y006398D02*
X019401Y006398D01*
X019401Y006239D02*
X016367Y006239D01*
X016367Y006081D02*
X019401Y006081D01*
X019401Y005922D02*
X016367Y005922D01*
X016367Y005764D02*
X019401Y005764D01*
X019460Y005130D02*
X018733Y005130D01*
X018242Y005130D02*
X016308Y005130D01*
X016308Y005288D02*
X018142Y005288D01*
X018128Y005447D02*
X016308Y005447D01*
X016308Y005605D02*
X018194Y005605D01*
X019460Y004971D02*
X016308Y004971D01*
X016308Y004812D02*
X019460Y004812D01*
X019460Y004654D02*
X016308Y004654D01*
X016344Y004495D02*
X019423Y004495D01*
X019401Y004337D02*
X016367Y004337D01*
X016367Y004178D02*
X019401Y004178D01*
X019401Y004020D02*
X016367Y004020D01*
X016367Y003861D02*
X019401Y003861D01*
X019401Y003703D02*
X016367Y003703D01*
X016367Y003544D02*
X019401Y003544D01*
X019416Y003386D02*
X016352Y003386D01*
X015643Y002276D02*
X018408Y002276D01*
X018408Y002434D02*
X015620Y002434D01*
X015555Y002593D02*
X018408Y002593D01*
X018408Y002751D02*
X015454Y002751D01*
X015296Y002910D02*
X018408Y002910D01*
X018408Y002117D02*
X015643Y002117D01*
X015610Y001959D02*
X018453Y001959D01*
X018612Y001800D02*
X015545Y001800D01*
X019203Y001800D02*
X020707Y001800D01*
X020707Y001959D02*
X019362Y001959D01*
X019408Y002117D02*
X020707Y002117D01*
X020707Y002276D02*
X019408Y002276D01*
X019408Y002434D02*
X020707Y002434D01*
X020707Y002593D02*
X019408Y002593D01*
X019408Y002751D02*
X020707Y002751D01*
X020707Y002910D02*
X019408Y002910D01*
X019358Y003069D02*
X020707Y003069D01*
X020707Y003227D02*
X019199Y003227D01*
X020218Y003386D02*
X020707Y003386D01*
X020707Y003544D02*
X020234Y003544D01*
X020234Y003703D02*
X020707Y003703D01*
X020707Y003861D02*
X020234Y003861D01*
X020234Y004020D02*
X020707Y004020D01*
X020707Y004178D02*
X020234Y004178D01*
X020234Y004337D02*
X020707Y004337D01*
X020707Y004495D02*
X020211Y004495D01*
X020174Y004654D02*
X020707Y004654D01*
X020707Y004812D02*
X020174Y004812D01*
X020174Y004971D02*
X020707Y004971D01*
X020707Y005130D02*
X020174Y005130D01*
X020174Y005288D02*
X020707Y005288D01*
X020707Y005447D02*
X020174Y005447D01*
X020174Y005605D02*
X020707Y005605D01*
X020707Y005764D02*
X020234Y005764D01*
X020234Y005922D02*
X020707Y005922D01*
X020707Y006081D02*
X020234Y006081D01*
X020234Y006239D02*
X020707Y006239D01*
X020707Y006398D02*
X020234Y006398D01*
X020234Y006556D02*
X020707Y006556D01*
X020707Y006715D02*
X020234Y006715D01*
X017878Y021935D02*
X017216Y021935D01*
X017308Y022094D02*
X017794Y022094D01*
X017794Y022252D02*
X017308Y022252D01*
X004108Y009093D02*
X003576Y009093D01*
X003734Y008935D02*
X004108Y008935D01*
X004108Y008776D02*
X003829Y008776D01*
X003895Y008618D02*
X004108Y008618D01*
X004108Y008459D02*
X003899Y008459D01*
X003897Y008300D02*
X004108Y008300D01*
X004108Y008142D02*
X003831Y008142D01*
X003739Y007983D02*
X004108Y007983D01*
X004108Y007825D02*
X003581Y007825D01*
D34*
X005112Y008358D02*
X005112Y006102D01*
X005640Y005149D02*
X005943Y004846D01*
X006368Y004846D01*
X006368Y004847D01*
X006368Y004850D01*
X006368Y005520D02*
X006368Y005815D01*
X006081Y006102D01*
X005640Y005149D02*
X005640Y007098D01*
X005640Y007937D01*
X005640Y007736D01*
X005112Y008358D02*
X005451Y008697D01*
X006730Y008697D01*
X006730Y025220D01*
X005750Y026201D01*
X006041Y026508D02*
X007039Y025510D01*
X007039Y007938D01*
X007023Y007938D01*
X007022Y007937D01*
X006309Y007937D01*
X007045Y007937D01*
X007537Y007941D02*
X007537Y007240D01*
X007396Y007098D01*
X006309Y007098D01*
X007537Y008417D02*
X007352Y008602D01*
X007352Y025811D01*
X006356Y026807D01*
X006415Y028476D02*
X003703Y025764D01*
X003703Y021039D01*
X004128Y021043D02*
X004128Y025709D01*
X006896Y028476D01*
X007329Y028476D02*
X004526Y025677D01*
X004526Y021043D01*
X003293Y021039D02*
X003293Y025846D01*
X005951Y028516D01*
X005522Y028516D02*
X002888Y025882D01*
X002888Y021043D01*
X007404Y029680D02*
X007404Y030283D01*
X009758Y030283D01*
X009234Y030909D02*
X009234Y035122D01*
X008978Y035378D01*
X008978Y035823D01*
X008979Y035824D01*
X008979Y035822D01*
X008974Y035822D01*
X008979Y035824D02*
X008982Y035827D01*
X008663Y035374D02*
X008782Y035256D01*
X008782Y030921D01*
X008352Y030925D02*
X008352Y035842D01*
X008349Y035839D01*
X008349Y035822D01*
X008349Y035823D01*
X008349Y035823D01*
X008663Y035823D02*
X008664Y035823D01*
X008664Y035822D01*
X008664Y035812D01*
X008663Y035811D01*
X008663Y035374D01*
X008037Y035334D02*
X008037Y035815D01*
X008034Y035819D01*
X008034Y035820D01*
X008034Y035822D01*
X008034Y035822D01*
X008034Y035823D01*
X008034Y035827D01*
X008034Y035822D02*
X008037Y035819D01*
X007720Y035822D02*
X007720Y035780D01*
X007719Y035779D01*
X007719Y035374D01*
X007518Y035173D01*
X007518Y030929D01*
X007179Y030598D02*
X007014Y030764D01*
X007014Y031334D01*
X006380Y031334D01*
X006381Y031334D01*
X006381Y031334D01*
X006381Y031019D02*
X006025Y031019D01*
X005624Y030618D01*
X004856Y030618D01*
X004856Y030433D01*
X003919Y030433D01*
X003919Y030028D01*
X003920Y030028D01*
X003919Y030028D02*
X003919Y030027D01*
X004073Y031287D02*
X004077Y031287D01*
X004073Y031287D02*
X004073Y031287D01*
X002935Y031956D02*
X002935Y033831D01*
X003203Y034098D01*
X003203Y034610D01*
X004506Y034610D01*
X004506Y034610D01*
X004506Y034610D01*
X005175Y033425D02*
X005175Y033421D01*
X005176Y033425D02*
X005175Y033425D01*
X005175Y033425D01*
X005837Y033370D02*
X005837Y033224D01*
X006381Y033224D01*
X006381Y033224D01*
X006388Y033224D01*
X006381Y033539D02*
X006376Y033539D01*
X007010Y033539D01*
X006376Y033539D02*
X006376Y033539D01*
X006382Y032909D02*
X005837Y032909D01*
X006381Y032909D02*
X006382Y032909D01*
X006384Y032909D01*
X006381Y030704D02*
X006037Y030704D01*
X005726Y030394D01*
X005219Y030394D01*
X005219Y030028D01*
X005219Y030028D01*
X007179Y030598D02*
X010742Y030598D01*
X010868Y029697D02*
X010868Y026866D01*
X010557Y025610D02*
X010557Y029689D01*
X010554Y029689D01*
X010554Y029680D01*
X010868Y029697D02*
X010869Y029697D01*
X010869Y029680D01*
X012226Y027709D02*
X012226Y024370D01*
X018427Y018170D01*
X018957Y018170D01*
X018951Y018170D01*
X018951Y018169D01*
X018963Y017307D02*
X017750Y017307D01*
X012959Y022098D01*
X012955Y022106D02*
X012230Y022106D01*
X013388Y020598D02*
X014884Y019102D01*
X015297Y019102D01*
X017963Y016437D01*
X018951Y016437D01*
X018951Y016437D01*
X018957Y016437D01*
X018957Y016437D01*
X018959Y016437D01*
X018957Y016437D02*
X018951Y016437D01*
X018957Y016437D02*
X019064Y016437D01*
X019065Y016437D01*
X019037Y016870D02*
X019037Y016871D01*
X019035Y016871D01*
X019478Y023445D02*
X019478Y023464D01*
X019478Y023476D01*
X019478Y024264D02*
X019478Y025059D01*
X020148Y025059D02*
X020148Y024264D01*
X020148Y023476D01*
X020148Y023453D01*
X020148Y024232D02*
X020148Y024264D01*
X020148Y025059D02*
X020152Y025059D01*
X020160Y025067D01*
X020160Y025724D01*
X015230Y025807D02*
X015230Y023622D01*
X014675Y023067D01*
X014207Y023067D01*
X014223Y025193D02*
X013805Y025193D01*
X013805Y025838D01*
X013805Y025850D01*
X013805Y025838D02*
X012935Y025838D01*
X012935Y025193D01*
X012935Y025185D01*
X013805Y025838D02*
X013813Y025838D01*
X013805Y026508D02*
X013809Y026508D01*
X013805Y026508D02*
X012935Y026508D01*
X014223Y025193D02*
X014805Y025775D01*
X014813Y026134D01*
X012522Y034165D02*
X011943Y034165D01*
X011254Y034854D01*
X010286Y034854D01*
X009927Y035822D02*
X009924Y035822D01*
X009927Y035823D02*
X009927Y035822D01*
X009927Y035823D02*
X009927Y036484D01*
X008037Y035334D02*
X007931Y035228D01*
X007931Y030929D01*
X008034Y029689D02*
X008034Y028508D01*
X008349Y028791D02*
X008349Y029681D01*
X008349Y029680D01*
X008349Y029680D01*
X008663Y029680D02*
X008664Y029680D01*
X008664Y029680D01*
X008667Y029677D01*
X008667Y029086D01*
X008663Y029680D02*
X008663Y029681D01*
X008664Y029680D02*
X008664Y029682D01*
X008667Y029685D01*
X008034Y029688D02*
X008034Y029680D01*
X008034Y029688D02*
X008034Y029689D01*
X007405Y029680D02*
X007404Y029680D01*
X007720Y035822D02*
X007719Y035822D01*
X007719Y035823D01*
X007720Y035822D01*
X007719Y035823D02*
X007719Y035823D01*
X003203Y036960D02*
X003203Y034610D01*
X012518Y034169D02*
X012518Y034169D01*
X012523Y034169D01*
X012522Y034169D01*
X012522Y034169D01*
X012523Y034169D02*
X012523Y034166D01*
X012522Y034165D01*
X012667Y013500D02*
X012152Y013500D01*
X012667Y013500D02*
X014978Y011189D01*
X014978Y011185D01*
X019817Y006220D02*
X019817Y005391D01*
X019817Y005354D01*
X007539Y007938D02*
X007539Y007939D01*
X007537Y007941D01*
X007537Y008417D01*
D35*
X006368Y004850D02*
X006368Y004850D01*
X006368Y004331D01*
X006368Y004850D02*
X006368Y004850D01*
X008049Y004331D02*
X009034Y004331D01*
X009675Y003689D01*
X010223Y003689D01*
X010223Y003232D01*
X010419Y003232D02*
X010419Y002287D01*
X010081Y001949D01*
X010616Y002697D02*
X010616Y003232D01*
X010616Y003264D01*
X010616Y003236D02*
X010616Y003232D01*
X010813Y003232D02*
X010813Y003622D01*
X010533Y003902D01*
X010533Y004181D01*
X010533Y004657D01*
X010872Y004657D01*
X011184Y004477D02*
X011006Y004299D01*
X011006Y003244D01*
X011002Y003240D01*
X011010Y003232D01*
X011207Y003232D02*
X011207Y004169D01*
X011499Y004461D01*
X011499Y029680D01*
X011814Y029680D02*
X011814Y019578D01*
X014223Y017169D01*
X015392Y017169D01*
X016557Y016004D01*
X018911Y016004D01*
X018799Y016004D01*
X018911Y016004D02*
X018911Y016004D01*
X018974Y017295D02*
X018966Y017304D01*
X018963Y017307D01*
X018966Y017304D02*
X018957Y017304D01*
X017750Y015453D02*
X017750Y009338D01*
X012388Y003976D01*
X012388Y003232D01*
X011404Y003232D02*
X011404Y001953D01*
X010888Y001953D01*
X010860Y002453D02*
X010616Y002697D01*
X010813Y003216D02*
X010813Y003232D01*
X010223Y003689D02*
X009864Y004047D01*
X009864Y004181D01*
X010533Y004657D02*
X010533Y018539D01*
X010120Y018953D01*
X010120Y020122D01*
X009581Y020661D01*
X009581Y028886D01*
X009924Y029680D02*
X009924Y020798D01*
X010423Y020299D01*
X010423Y019338D01*
X010786Y020063D02*
X010786Y020386D01*
X010239Y020932D01*
X010239Y029680D01*
X011184Y029680D02*
X011184Y004477D01*
X014390Y003937D02*
X015951Y003937D01*
X018487Y005391D02*
X019817Y005391D01*
X019837Y005391D01*
X012959Y022098D02*
X012955Y022106D01*
X012987Y025091D02*
X012987Y025966D01*
X012887Y025966D02*
X012887Y025091D01*
X012787Y025091D02*
X012787Y025966D01*
X013937Y025966D01*
X013937Y025091D01*
X012787Y025091D01*
X012787Y025966D01*
X012787Y025916D02*
X013937Y025916D01*
X013887Y025966D02*
X013887Y025091D01*
X013937Y025116D02*
X012787Y025116D01*
X012787Y025216D02*
X013937Y025216D01*
X013937Y025316D02*
X012787Y025316D01*
X012787Y025416D02*
X013937Y025416D01*
X013937Y025516D02*
X012787Y025516D01*
X012787Y025616D02*
X013937Y025616D01*
X013937Y025716D02*
X012787Y025716D01*
X012787Y025816D02*
X013937Y025816D01*
X013787Y025966D02*
X013787Y025091D01*
X013687Y025091D02*
X013687Y025966D01*
X013587Y025966D02*
X013587Y025091D01*
X013487Y025091D02*
X013487Y025966D01*
X013387Y025966D02*
X013387Y025091D01*
X013287Y025091D02*
X013287Y025966D01*
X013187Y025966D02*
X013187Y025091D01*
X013087Y025091D02*
X013087Y025966D01*
X018809Y023464D02*
X019478Y023464D01*
X019478Y023476D02*
X019478Y024264D01*
X006381Y031334D02*
X006380Y031334D01*
X006380Y031334D01*
D36*
X006927Y031649D03*
X006939Y032579D03*
X007010Y033539D03*
X005837Y033370D03*
X005837Y032909D03*
X007518Y030929D03*
X007931Y030929D03*
X008352Y030925D03*
X008782Y030921D03*
X009234Y030909D03*
X009758Y030283D03*
X009104Y029075D03*
X008667Y029086D03*
X008349Y028791D03*
X008034Y028508D03*
X007329Y028476D03*
X006896Y028476D03*
X006415Y028476D03*
X005951Y028516D03*
X005522Y028516D03*
X006356Y026807D03*
X006041Y026508D03*
X005750Y026201D03*
X005372Y025807D03*
X005959Y024295D03*
X007494Y027252D03*
X008538Y025807D03*
X008494Y024827D03*
X008656Y023512D03*
X007927Y020775D03*
X008534Y019275D03*
X010423Y019338D03*
X010786Y020063D03*
X012230Y022106D03*
X012211Y022815D03*
X012955Y022106D03*
X013620Y022480D03*
X014207Y023067D03*
X014553Y023484D03*
X015219Y022905D03*
X016612Y025614D03*
X017152Y025657D03*
X017132Y027008D03*
X017553Y027008D03*
X017963Y027008D03*
X018486Y028102D03*
X017884Y028838D03*
X017258Y028421D03*
X016663Y028429D03*
X016612Y028838D03*
X016699Y027905D03*
X016699Y027008D03*
X016014Y026134D03*
X015230Y025807D03*
X014813Y026134D03*
X014703Y026657D03*
X015230Y026752D03*
X015219Y028102D03*
X014908Y028976D03*
X014415Y029039D03*
X013872Y028319D03*
X013116Y029079D03*
X012226Y027709D03*
X012573Y027425D03*
X012955Y027067D03*
X010868Y026866D03*
X010557Y025610D03*
X009581Y028886D03*
X010742Y030598D03*
X011746Y031925D03*
X013356Y031334D03*
X015762Y029771D03*
X015758Y029338D03*
X016305Y030173D03*
X016289Y030705D03*
X016809Y032118D03*
X017526Y032610D03*
X017813Y030433D03*
X018187Y030149D03*
X017089Y030209D03*
X019116Y026307D03*
X020160Y025724D03*
X020321Y026583D03*
X020341Y027512D03*
X019982Y028610D03*
X020254Y029937D03*
X017270Y035472D03*
X010423Y038484D03*
X009927Y036484D03*
X010286Y034854D03*
X010286Y033484D03*
X007061Y036622D03*
X004187Y035598D03*
X003203Y036960D03*
X004187Y029484D03*
X004128Y021043D03*
X003703Y021039D03*
X003293Y021039D03*
X002888Y021043D03*
X004526Y021043D03*
X006341Y017409D03*
X009069Y012905D03*
X009108Y011209D03*
X009203Y007937D03*
X009959Y004980D03*
X010872Y004657D03*
X010860Y002453D03*
X010888Y001953D03*
X010081Y001949D03*
X008049Y004331D03*
X007534Y003527D03*
X006813Y002858D03*
X006156Y003110D03*
X006368Y004331D03*
X006081Y006102D03*
X005112Y006102D03*
X003852Y005008D03*
X007274Y006709D03*
X012152Y013500D03*
X014203Y013775D03*
X015329Y012960D03*
X015817Y012976D03*
X016392Y012976D03*
X016986Y012976D03*
X017341Y013775D03*
X017750Y015453D03*
X018219Y016870D03*
X017750Y017307D03*
X018219Y017882D03*
X019636Y017736D03*
X019715Y022819D03*
X018809Y023464D03*
X013388Y020598D03*
X014978Y011185D03*
X015329Y008649D03*
X014390Y003937D03*
X018487Y005391D03*
D37*
X016986Y009035D02*
X011994Y004043D01*
X011994Y003232D01*
X011797Y003232D02*
X011797Y004157D01*
X016392Y008752D01*
X016392Y012976D01*
X016986Y012976D02*
X016986Y009035D01*
X015817Y008453D02*
X011600Y004236D01*
X011600Y003232D01*
X011600Y003220D01*
X015817Y008453D02*
X015817Y012976D01*
X017852Y024161D02*
X018289Y024161D01*
X017852Y024161D02*
X017793Y024220D01*
X017793Y026134D01*
X017597Y026134D02*
X017597Y025397D01*
X017305Y025106D01*
X016715Y025106D01*
X016612Y025614D02*
X016612Y026134D01*
X016612Y026138D01*
X016415Y026134D02*
X016014Y026134D01*
X014813Y026134D01*
X015230Y026752D02*
X015400Y026921D01*
X015825Y026921D01*
X016175Y026921D01*
X016175Y028102D01*
X015825Y028102D01*
X015825Y027905D02*
X015415Y027905D01*
X015219Y028102D01*
X015471Y028496D02*
X015825Y028496D01*
X015825Y028299D01*
X016388Y028299D01*
X016388Y026724D01*
X019171Y026724D01*
X019171Y026921D01*
X019809Y026921D01*
X019317Y027315D02*
X019171Y027315D01*
X019171Y027118D01*
X019171Y026921D01*
X019171Y027512D02*
X020341Y027512D01*
X020687Y027646D02*
X020427Y027905D01*
X019171Y027905D01*
X019171Y027709D02*
X018805Y027709D01*
X018805Y028102D01*
X018486Y028102D01*
X018730Y028299D02*
X019171Y028299D01*
X019171Y028102D02*
X018805Y028102D01*
X018730Y028299D02*
X018384Y028646D01*
X018384Y028732D01*
X019313Y029661D01*
X020254Y029661D01*
X020254Y029937D01*
X020254Y029945D01*
X020463Y030433D02*
X017813Y030433D01*
X017809Y030433D01*
X017274Y030405D02*
X017793Y029886D01*
X017793Y029480D01*
X017597Y029480D02*
X017597Y029114D01*
X017884Y029114D01*
X017884Y028838D01*
X017884Y029114D02*
X017990Y029114D01*
X017990Y029480D01*
X018187Y029480D02*
X018187Y030149D01*
X018187Y029480D02*
X018187Y028433D01*
X017959Y028205D01*
X017959Y027000D01*
X017963Y027004D01*
X017963Y027008D01*
X017553Y027008D02*
X017553Y028882D01*
X017400Y029035D01*
X017400Y029480D01*
X017400Y029807D01*
X017089Y030118D01*
X017089Y030209D01*
X017274Y030405D02*
X017274Y030846D01*
X016612Y030173D02*
X016612Y029480D01*
X016612Y028838D01*
X016971Y028894D02*
X016809Y029228D01*
X016809Y029480D01*
X016809Y032118D01*
X017526Y032610D02*
X018061Y032610D01*
X016612Y030173D02*
X016305Y030173D01*
X015762Y029771D02*
X014923Y029771D01*
X014581Y030114D01*
X014581Y035579D01*
X013132Y037027D01*
X010554Y037027D01*
X010554Y035822D01*
X010869Y035822D02*
X010869Y036779D01*
X013018Y036779D01*
X014274Y035516D01*
X014274Y030094D01*
X015037Y029338D01*
X015758Y029338D01*
X015825Y028890D02*
X015471Y028890D01*
X015471Y028496D01*
X015825Y028693D02*
X016242Y028693D01*
X016506Y028429D01*
X016663Y028429D01*
X016699Y027905D02*
X016699Y027008D01*
X016971Y026988D02*
X016971Y028894D01*
X017203Y028846D02*
X017258Y028791D01*
X017258Y028484D01*
X017262Y028480D01*
X017258Y028476D01*
X017258Y028421D01*
X017203Y028846D02*
X017203Y029480D01*
X017006Y029480D01*
X017400Y029480D02*
X017400Y029476D01*
X018384Y029480D02*
X018384Y028646D01*
X019171Y028496D02*
X019175Y028496D01*
X019179Y028500D01*
X019561Y028500D01*
X019671Y028610D01*
X019982Y028610D01*
X020687Y027646D02*
X020687Y026653D01*
X020687Y025894D01*
X020518Y025724D01*
X020160Y025724D01*
X018530Y025724D01*
X018384Y025870D01*
X018384Y026134D01*
X018384Y026464D01*
X017400Y026464D01*
X017400Y026134D01*
X017400Y026126D01*
X017203Y026134D02*
X017006Y026134D01*
X016809Y026134D01*
X016388Y026724D02*
X015825Y026724D01*
X015825Y027315D02*
X013408Y027315D01*
X013160Y027067D01*
X012955Y027067D01*
X013002Y027425D02*
X012573Y027425D01*
X012226Y027709D02*
X015825Y027709D01*
X015825Y027512D02*
X013089Y027512D01*
X013002Y027425D01*
X014415Y029039D02*
X013671Y029783D01*
X013671Y029941D01*
X013660Y035413D01*
X012750Y036323D01*
X011499Y036323D01*
X011499Y035822D01*
X011184Y035822D02*
X011184Y036539D01*
X012915Y036539D01*
X013971Y035480D01*
X013971Y029949D01*
X014742Y029177D01*
X014908Y028976D01*
X016242Y029047D02*
X016242Y028693D01*
X016242Y029047D02*
X016415Y029220D01*
X016415Y029480D01*
X016415Y029484D01*
X016971Y026988D02*
X017132Y027000D01*
X017132Y027008D01*
X017553Y027008D02*
X017553Y027004D01*
X017990Y026134D02*
X017990Y025882D01*
X018317Y025555D01*
X019478Y025555D01*
X019478Y025059D01*
X018943Y026134D02*
X019116Y026307D01*
X018943Y026134D02*
X018581Y026134D01*
X020687Y026638D02*
X020687Y026653D01*
X020463Y030433D02*
X020463Y031913D01*
X020140Y032236D01*
X020140Y032622D01*
X017270Y035472D02*
X017270Y036130D01*
X016195Y036130D01*
D38*
X010419Y003236D02*
X010419Y003232D01*
D39*
X015951Y003929D02*
X015951Y003937D01*
X015951Y006220D01*
X017408Y006220D02*
X017408Y003937D01*
X017408Y003921D01*
X017408Y006220D02*
X018360Y006220D01*
X018360Y006201D01*
X018360Y006201D01*
X018360Y006201D01*
X018360Y006220D02*
X018376Y006220D01*
X019817Y006220D02*
X019817Y006220D01*
X019817Y003937D01*
X019817Y006220D02*
X019817Y006220D01*
M02*
